<svg width="320" height="40" viewBox="0 0 320 40" fill="none" xmlns="http://www.w3.org/2000/svg">
<path d="M107.587 0.444854C108.403 0.220124 109.234 -0.087756 110.094 0.0234853C110.96 0.0425873 111.763 0.587557 112.2 1.31568C112.417 1.65727 112.343 2.07077 112.27 2.44382C112.749 2.70226 113.414 2.72698 113.621 3.32139C113.198 3.39555 112.761 3.37421 112.348 3.49444C111.874 3.60343 111.884 4.19559 111.648 4.53606C112.426 5.06193 113.27 5.53386 113.842 6.30019C114.431 6.81706 115.312 7.11146 115.595 7.91038C115.726 8.57558 116.002 9.20145 116.12 9.87002C116.3 10.624 116.44 11.3892 116.685 12.1263C116.751 12.3229 116.736 12.5331 116.74 12.7376C116.677 13.632 117.2 14.4253 117.202 15.3152C117.103 15.4231 117.003 15.5298 116.906 15.6377C117.009 16.7827 117.101 17.9277 117.12 19.0783C118.164 19.1626 119.211 19.0446 120.257 19.0896C120.972 19.0839 121.685 19.2604 122.399 19.1457C123.674 18.9749 124.954 19.3401 126.226 19.1502C127.548 18.9974 128.874 19.3188 130.196 19.1502C131.553 18.9985 132.906 19.3064 134.263 19.1997C135.446 19.1255 136.629 19.2795 137.809 19.1592C138.695 19.1491 139.582 19.2221 140.469 19.2177C141.073 19.2199 141.669 19.0772 142.276 19.1244C143.026 19.175 143.781 19.23 144.531 19.1345C145.428 19.0176 146.334 19.1064 147.236 19.112C148.144 19.1188 149.052 18.9828 149.961 19.0514C151.271 19.1536 152.576 18.9277 153.888 18.9873C153.651 18.53 153.4 18.0704 153.348 17.549C153.331 17.1692 152.967 16.9288 152.942 16.5546C152.895 16.1692 152.863 15.7748 152.68 15.4253C152.746 14.8939 152.74 14.3174 152.392 13.8769C152.446 13.1926 152.492 12.5072 152.517 11.8218C152.537 11.6364 152.412 11.4847 152.333 11.3308C152.295 10.6465 152.687 10.0183 152.603 9.33853C152.866 8.94863 153.135 8.56209 153.414 8.18117C153.664 7.8306 154.13 7.77104 154.475 7.54744C154.593 7.22944 154.406 6.85302 154.573 6.54065C154.877 5.9777 155.271 5.4552 155.766 5.04395C156.484 4.40909 157.426 4.12705 158.242 3.6495C158.528 3.15397 158.712 2.59327 159.105 2.16291C159.624 1.59996 160.235 1.03814 161.021 0.904426C161.686 0.869593 162.396 1.08196 162.862 1.573C163.116 1.83144 163.151 2.20673 163.252 2.53821C163.366 2.97531 163.619 3.3551 163.845 3.74276C164.373 3.74726 164.934 3.78996 165.378 4.11132C166.2 4.5428 167.151 4.81809 167.787 5.53498C168.151 6.01815 168.54 6.6665 168.175 7.25978C168.416 7.6598 168.812 7.92049 169.113 8.26432C169.48 9.161 169.793 10.0824 170.019 11.0263C170.132 11.6274 170.162 12.2409 170.245 12.8477C170.307 13.1792 170.142 13.4837 170.005 13.7725C170.097 14.4702 170.114 15.1804 170.016 15.8782C169.934 16.4501 169.712 16.9895 169.597 17.5535C169.502 17.6165 169.41 17.6783 169.32 17.7412C169.23 18.2176 169.168 18.6985 169.153 19.1839C170.922 19.1188 172.689 19.2705 174.459 19.1817C175.588 19.0952 176.715 19.3042 177.843 19.1963C179.12 19.1334 180.399 19.2727 181.677 19.1963C182.734 19.1311 183.791 19.2806 184.848 19.1952C185.863 19.1132 186.879 19.2671 187.896 19.2087C188.795 19.1502 189.697 19.1738 190.596 19.2053C191.276 19.2446 191.947 19.0828 192.628 19.1098C193.381 19.0873 194.132 19.239 194.885 19.157C195.638 19.0761 196.397 19.0907 197.155 19.1087C197.114 18.9884 197.085 18.8659 197.065 18.7412C196.928 18.7457 196.792 18.7502 196.659 18.757C196.509 18.13 196.527 17.4782 196.379 16.8512C196.316 16.5793 196.305 16.2995 196.3 16.0209C196.187 15.9804 196.076 15.94 195.968 15.8995C195.983 15.3489 196.066 14.8017 196.076 14.2511C195.947 14.3129 195.835 14.3826 195.719 14.459C195.579 13.8095 195.701 13.1477 195.635 12.4926C195.593 12.2038 195.671 11.9196 195.751 11.6443C195.9 11.1588 195.805 10.6431 195.894 10.1476C195.998 9.56663 196.179 8.97784 196.547 8.50479C196.871 8.11713 197.392 8.00589 197.796 7.72834C197.858 7.54407 197.723 7.38226 197.66 7.22046C197.598 6.48222 198.144 5.88219 198.759 5.55858C199.329 4.84843 200.393 4.76753 200.855 3.94839C201.301 3.15734 202.01 2.46742 202.904 2.2146C203.565 2.02583 204.249 1.78874 204.948 1.90672C205.473 2.0056 206.017 2.22247 206.346 2.66406C206.602 3.03486 206.651 3.5068 206.574 3.94165C206.512 4.23942 206.65 4.52033 206.725 4.80236C207.18 5.03496 207.704 5.04395 208.177 5.2316C208.675 5.41138 209.198 5.53161 209.678 5.76533C210.037 5.94062 210.337 6.22041 210.713 6.36648C211.385 6.62267 211.96 7.11933 212.331 7.73059C212.615 8.14971 212.948 8.56321 213.01 9.08346C213.139 9.86552 213.349 10.6341 213.651 11.3678C213.483 11.1858 213.306 11.0128 213.098 10.8768C213.252 11.787 213.316 12.7084 213.489 13.6151C213.576 14.0073 213.288 14.3556 213.331 14.7455C213.37 15.3849 213.398 16.0265 213.346 16.6658C213.589 16.9838 213.835 17.3052 214.005 17.6704C214.18 17.9918 214.187 18.4064 213.887 18.657C213.884 18.7749 213.887 18.8929 213.896 19.0109C214.325 19.1154 214.773 19.0514 215.212 19.066C215.931 19.0514 216.644 19.248 217.363 19.1289C218.794 18.9761 220.22 19.2907 221.65 19.1671C222.532 19.1098 223.413 19.2323 224.296 19.2042C224.491 18.4423 224.55 17.6547 224.685 16.8805C224.597 16.8906 224.419 16.9108 224.33 16.9209C224.335 16.6726 224.33 16.4231 224.26 16.1827C224.325 15.5208 224.579 14.8995 224.708 14.2489C224.56 14.3601 224.417 14.4747 224.274 14.5871C224.25 13.7095 224.958 13.0286 224.985 12.16C225.023 11.6881 224.893 11.1993 225.072 10.7442C225.254 10.2577 225.294 9.73293 225.478 9.24752C225.609 8.87447 225.565 8.43175 225.846 8.12162C226.458 7.35529 227.278 6.6856 228.25 6.45188C228.456 6.15524 228.626 5.835 228.763 5.50015C229.253 5.17092 229.481 4.48662 230.119 4.39448C230.962 4.18548 231.85 4.00457 232.568 3.48432C233.081 3.09554 233.754 3.10902 234.327 2.85845C235.145 2.50225 236.123 2.74496 236.834 3.23263C237.223 3.48432 237.352 3.94165 237.419 4.37313C237.953 4.69449 238.569 4.83383 239.141 5.07766C239.941 6.04961 241.061 6.85302 241.409 8.12162C241.672 9.20482 241.866 10.306 242.186 11.3768C242.389 12.0353 242.388 12.7275 242.436 13.4073C242.463 13.7792 242.327 14.1354 242.21 14.4803C241.638 14.8815 241.791 15.6355 241.713 16.231C241.58 17.1524 241.741 18.0749 241.813 18.9929C243.636 18.9424 245.458 19.0278 247.281 18.9671C248.709 19.0255 250.139 18.9424 251.569 18.9839C252.51 19.0412 253.453 18.9592 254.397 18.9839C255.049 18.9671 255.704 19.1143 256.355 18.9862C255.938 18.0805 255.657 17.1232 255.345 16.1793C255.145 15.5287 255.264 14.8512 255.283 14.1882C255.218 14.1264 255.155 14.0646 255.097 14.0028C255.203 13.5421 255.224 13.0634 255.377 12.6128C255.472 12.3061 255.661 12.0297 255.695 11.7038C255.75 11.2521 255.963 10.8206 255.9 10.3566C256.176 9.94081 256.502 9.55652 256.706 9.09582C256.909 9.0093 257.171 8.98571 257.313 8.79244C257.82 8.09578 258.482 7.498 259.263 7.12045C259.675 6.91595 260.05 6.65077 260.401 6.353C260.82 6.11928 261.332 6.15074 261.782 5.99118C261.787 6.05186 261.797 6.17321 261.802 6.23501C262.048 6.2294 262.296 6.22265 262.548 6.21479C262.596 6.31479 262.648 6.41592 262.704 6.51593C263.181 6.44963 263.641 6.29232 264.114 6.20018C264.369 6.15748 264.522 6.4148 264.724 6.52492C265.016 6.40693 265.037 5.94961 265.347 5.835C265.704 5.86309 265.996 6.1204 266.354 6.16085C266.751 6.21367 267.201 6.13276 267.54 6.39907C267.868 6.63391 268.263 6.73953 268.653 6.8328C268.66 7.01483 268.66 7.20023 268.697 7.38001C268.873 7.5744 269.108 7.71037 269.289 7.90476C269.279 8.12274 269.23 8.33736 269.223 8.55535C269.347 8.82053 269.597 8.99919 269.765 9.23628C270.357 10.1049 270.809 11.0555 271.259 12.0016C271.42 12.4735 271.423 12.9792 271.512 13.4668C271.599 13.959 271.639 14.4657 271.527 14.9579C271.354 14.9276 271.185 14.895 271.019 14.8624C271.077 15.3613 271.109 15.877 270.919 16.3546C270.73 17.1086 270.15 17.6917 270.007 18.4626C270.146 18.6334 270.275 18.812 270.408 18.9918C271.352 19.0896 272.303 19.0221 273.251 19.0929C274.344 19.1716 275.434 18.93 276.524 19.0727C277.694 19.2132 278.856 18.8547 280.026 19.0334C281.154 19.2143 282.281 18.9188 283.413 18.9862C284.318 18.9536 285.223 19.1424 286.124 18.9896C287.512 18.948 288.903 19.0536 290.291 18.9412C292.092 19.0929 293.903 18.8749 295.703 19.0648C296.533 19.0379 297.367 18.9143 298.2 19.0289C298.653 19.1019 299.112 19.0536 299.568 19.0075C300.532 18.9716 301.502 18.9727 302.467 19.048C304.166 18.8952 305.872 19.0525 307.576 18.9817C308.519 18.9412 309.47 19.0648 310.408 18.93C310.516 18.9446 310.633 18.9626 310.749 18.9794C311.635 18.7334 312.539 19.0705 313.434 18.9525C314.786 18.7806 316.152 18.9334 317.508 18.857C318.332 18.7221 319.168 18.7828 320 18.785V20.266C319.249 20.3278 318.498 20.4166 317.745 20.3885C317.213 20.3964 316.686 20.2694 316.159 20.3525C315.225 20.4761 314.28 20.4177 313.343 20.3964C312.584 20.3559 311.836 20.5379 311.08 20.502C310.325 20.5436 309.575 20.3593 308.825 20.4739C307.96 20.5379 307.089 20.5267 306.226 20.4818C305.623 20.411 305.023 20.5334 304.422 20.5278C303.477 20.5492 302.532 20.4638 301.589 20.511C300.841 20.5458 300.092 20.5469 299.346 20.5121C298.361 20.457 297.378 20.5705 296.394 20.5289C295.829 20.5368 295.269 20.4098 294.708 20.4851C293.694 20.5806 292.677 20.511 291.664 20.4593C290.649 20.5233 289.627 20.5885 288.613 20.4739C288.122 20.4076 287.634 20.5166 287.146 20.5289C285.903 20.5851 284.66 20.4166 283.42 20.5458C282.364 20.6593 281.308 20.42 280.254 20.5548C279.313 20.666 278.366 20.6245 277.427 20.5391C276.524 20.5683 275.625 20.6851 274.721 20.6278C273.583 20.5312 272.443 20.6334 271.308 20.702C271.179 21.1706 270.66 21.2346 270.313 21.4807C269.737 21.8526 269.106 22.1358 268.553 22.5437C268.581 22.4077 268.609 22.2706 268.646 22.1358C268.522 22.0492 268.431 21.9032 268.284 21.8706C267.413 21.9908 266.651 22.4819 265.789 22.6257C265.521 22.6774 265.252 22.7122 264.987 22.7527C264.725 22.5807 264.434 22.3605 264.106 22.4875C263.25 22.7504 262.285 22.974 261.432 22.5819C260.92 22.3268 260.378 22.1268 259.811 22.038C259.821 22.1863 259.841 22.3347 259.857 22.4841C259.233 22.3661 258.814 21.8582 258.303 21.5301C257.913 21.2717 257.605 20.9076 257.214 20.6537C256.357 20.5379 255.487 20.5087 254.626 20.5941C253.571 20.7031 252.521 20.4436 251.466 20.5413C250.222 20.6458 248.979 20.4222 247.736 20.5492C246.569 20.6458 245.402 20.4143 244.239 20.5604C243.559 20.6447 242.877 20.584 242.198 20.5379C241.536 20.4919 240.874 20.5604 240.219 20.6436C240.145 21.1391 240.09 21.6571 239.791 22.0796C239.828 21.6301 239.946 21.184 239.898 20.7323C239.792 20.6222 239.61 20.6009 239.488 20.6863C239.277 21.1099 239.199 21.6178 238.853 21.9638C238.336 22.2594 237.752 22.4302 237.251 22.7549C236.985 22.9931 236.734 23.2538 236.4 23.3954C236.231 23.6808 236.086 23.9797 235.949 24.2808C235.841 24.2471 235.737 24.2145 235.636 24.1819C235.536 24.4291 235.431 24.6718 235.333 24.9179C235.218 24.9011 235.105 24.8853 234.996 24.8696C234.892 25.2247 234.827 25.6281 234.506 25.8607C234.306 26.164 234.122 26.4832 234.036 26.8394C233.844 27.6091 233.487 28.3316 233.387 29.1237C233.221 29.7833 233.184 30.5946 232.552 31.0025C232.445 31.4126 232.414 31.8542 232.203 32.2295C232.023 32.4048 231.763 32.4621 231.544 32.5711C231.382 33.406 231.177 34.2341 231.112 35.0847C230.972 35.9375 230.787 36.9241 230.009 37.4376C229.431 37.8062 228.8 38.086 228.196 38.4062C227.647 38.1961 227.129 37.8657 226.512 37.9354C226.398 38.0051 226.284 38.0702 226.172 38.1332C225.498 37.5567 224.769 36.9488 224.484 36.078C224.235 35.1465 224.618 34.2172 224.889 33.3363C225.096 32.616 225.341 31.9036 225.466 31.1632C225.336 31.0182 225.2 30.8811 225.1 30.7182C225.32 29.7283 225.809 28.8024 225.895 27.781C225.888 27.4428 225.787 27.1135 225.785 26.7753C225.77 26.2494 225.965 25.7517 226.034 25.2359C225.87 24.9224 225.863 24.564 225.826 24.2224C225.214 25.1651 224.672 26.1697 224.327 27.2428C224.108 27.908 223.767 28.5383 223.675 29.2395C223.6 30.3912 223.112 31.4576 222.68 32.5115C222.863 31.4452 223.255 30.426 223.372 29.3485C223.484 28.4372 223.827 27.5765 223.979 26.6731C224.081 26.0787 224.298 25.5 224.305 24.891C224.306 24.4752 224.377 24.0448 224.189 23.6549C223.99 23.8819 223.813 24.1257 223.632 24.3651C223.501 23.7392 223.68 23.1145 223.749 22.4931C223.823 21.8942 224.015 21.32 224.147 20.7335C223.54 20.7222 222.936 20.7773 222.332 20.7829C221.275 20.8121 220.221 20.6615 219.164 20.7458C217.999 20.8233 216.839 20.5975 215.675 20.6829C214.666 20.7177 213.658 20.6514 212.652 20.6155C212.555 21.6526 212.87 22.7358 212.505 23.7381C212.331 24.2898 211.735 24.4595 211.252 24.6404C211.177 25.4651 211.123 26.2921 211.017 27.1135C210.971 27.5203 210.865 27.9271 210.917 28.3394C211.025 29.2395 211.109 30.1429 211.275 31.0339C211.382 31.407 211.146 31.7598 211.189 32.1284C211.41 33.1397 211.539 34.1723 211.855 35.1622C212.099 35.8926 212.103 36.6758 211.986 37.4297C211.873 37.9635 211.417 38.3197 211.075 38.713C210.649 39.1972 210.047 39.4624 209.575 39.8928C209.466 39.8422 209.358 39.7917 209.254 39.7422C208.867 39.7973 208.49 39.7332 208.142 39.5658C207.513 39.2444 207.055 40.1007 206.424 39.9265C206.076 39.8389 205.712 39.7827 205.374 39.931C204.529 39.3984 203.593 38.9804 202.867 38.2848C202.368 37.5489 202.466 36.5938 202.513 35.7521C202.535 34.2566 202.56 32.7599 202.567 31.2632C202.582 30.7429 202.271 30.3024 202.11 29.8283C201.752 28.899 201.392 27.9686 201.122 27.009C201.02 26.6315 200.886 26.2584 200.653 25.9404C200.644 25.8562 200.627 25.6865 200.618 25.6022C200.311 25.5809 200.043 25.7674 199.746 25.7798C199.176 25.7056 198.904 25.1247 198.787 24.6291C198.596 23.7785 198.494 22.9111 198.374 22.0481C198.303 21.5537 198.032 21.1234 197.858 20.6627C196.954 20.7806 196.036 20.7784 195.127 20.7233C194.035 20.6042 192.944 20.8492 191.851 20.7638C190.495 20.6402 189.14 20.8705 187.785 20.7582C186.915 20.6728 186.048 20.8144 185.179 20.7762C184.46 20.775 183.744 20.6582 183.026 20.729C182.014 20.811 181 20.7391 179.992 20.6638C178.861 20.7301 177.728 20.7705 176.598 20.6818C175.545 20.7278 174.49 20.8357 173.436 20.7537C172.532 20.6739 171.632 20.8559 170.73 20.802C170.019 20.7986 169.309 20.7222 168.598 20.7604C168.4 21.2717 168.077 21.7357 167.976 22.2807C167.87 22.7695 167.755 23.2594 167.563 23.7224C167.405 24.1426 166.928 24.3831 166.889 24.8584C166.576 26.4113 166.31 27.9832 165.759 29.4754C165.674 29.7226 165.545 29.9732 165.586 30.2418C165.76 31.5542 165.945 32.8655 166.07 34.1835C166.114 34.6757 166.298 35.1454 166.319 35.6409C166.341 36.5567 166.131 37.5747 165.362 38.1635C164.784 38.7399 164.049 39.1062 163.415 39.6096C162.817 39.4512 162.196 39.3557 161.579 39.377C161.134 39.4827 160.729 39.7141 160.283 39.8141C159.895 39.4916 159.402 39.3197 159.046 38.959C158.742 38.6545 158.355 38.4545 158.045 38.159C157.477 37.5174 157.351 36.5994 157.419 35.7746C157.604 34.4285 157.649 33.0666 157.668 31.7104C157.148 29.762 156.785 27.772 156.335 25.8056C156.084 25.7708 155.733 25.8079 155.635 25.5146C155.219 24.5584 154.954 23.5325 154.885 22.492C154.848 21.8189 154.482 21.2335 154.254 20.6155C153.461 20.6121 152.668 20.6773 151.877 20.6301C150.594 20.5245 149.311 20.7604 148.029 20.6548C147.013 20.5649 146.002 20.7705 144.987 20.729C144.192 20.7031 143.398 20.6559 142.605 20.7424C141.465 20.8503 140.324 20.6458 139.184 20.7559C138.478 20.7919 137.768 20.811 137.064 20.7481C136.315 20.675 135.565 20.775 134.817 20.7795C133.986 20.811 133.159 20.6481 132.328 20.7087C131.431 20.7683 130.533 20.7896 129.636 20.7267C128.728 20.6492 127.824 20.8177 126.916 20.7896C126.235 20.7896 125.557 20.6863 124.876 20.7233C124.015 20.7638 123.154 20.8155 122.294 20.7368C121.276 20.6413 120.257 20.7908 119.238 20.7391C118.607 20.7335 117.978 20.6278 117.347 20.6795C117.366 21.075 117.389 21.4706 117.438 21.8627C117.392 21.8964 117.3 21.9638 117.254 21.9964C117.244 22.3852 116.998 22.6538 116.702 22.8718C116.739 24.6235 116.925 26.3708 117.038 28.1203C117.111 28.6653 117.356 29.1687 117.567 29.671C117.988 30.5474 118.329 31.4576 118.699 32.3565C118.907 32.9475 119.185 33.5577 119.114 34.1993C118.958 34.9791 118.451 35.6139 117.992 36.2398C117.497 36.2196 117.003 36.187 116.511 36.1364C116.075 36.5027 115.574 36.7724 115.08 37.0511C114.597 36.8735 114.054 36.8207 113.636 36.4982C112.846 35.9173 112.386 34.9926 112.089 34.0846C111.907 33.2397 111.565 32.443 111.341 31.6104C111.232 31.2014 110.991 30.8508 110.73 30.5249C110.262 29.9384 109.905 29.2676 109.38 28.7271C108.82 28.1383 108.43 27.4225 107.954 26.7708C107.512 26.1112 107.111 25.4258 106.695 24.7494C106.513 24.4505 106.17 24.3156 105.934 24.0707C105.52 23.6695 105.341 23.0897 104.906 22.7088C104.257 22.1391 103.859 21.3605 103.312 20.7054C103.151 20.4997 102.858 20.593 102.637 20.5919C101.475 20.7188 100.307 20.6919 99.1424 20.6357C97.9003 20.7503 96.6526 20.7278 95.4095 20.6604C94.2622 20.7537 93.1116 20.7458 91.961 20.7638C91.506 20.5885 91.0159 20.7144 90.5451 20.675C89.9986 20.6548 89.3843 20.557 88.9112 20.8953C87.239 20.9166 85.5667 20.8863 83.8956 20.8593C82.8082 20.8368 81.7084 20.9402 80.6334 20.7357C79.9921 20.6357 79.3428 20.7233 78.6981 20.7144C77.7925 20.7514 76.8926 20.5649 75.9881 20.6604C75.2881 20.7301 74.579 20.6391 73.8857 20.6941C73.6102 21.1076 73.373 21.556 72.979 21.8751C72.5826 21.6324 72.1242 21.7627 71.7279 21.929C71.0222 21.8268 70.2871 21.9706 69.6593 22.3021C69.5904 22.4021 69.5193 22.4998 69.4459 22.5965C68.9197 22.71 68.3856 22.5875 67.8583 22.5672C66.9109 22.5616 66.0517 22.1167 65.1641 21.8447C64.7283 21.7975 64.3455 21.5627 63.9108 21.5088C63.1554 21.3852 62.5524 20.8874 61.8648 20.5964C61.5464 20.4469 61.1873 20.5042 60.8497 20.5188C59.8391 20.5986 58.8285 20.4548 57.8191 20.4638C56.577 20.5627 55.3315 20.5132 54.0917 20.4503C52.8892 20.5525 51.6833 20.5323 50.4819 20.4615C49.2759 20.5784 48.0666 20.557 46.8596 20.4907C45.8049 20.5525 44.7458 20.6087 43.6901 20.5256C42.9019 20.4447 42.1149 20.5818 41.3256 20.5795C40.8322 20.5885 40.341 20.5413 39.8498 20.5098C39.0244 20.4469 38.2001 20.584 37.3747 20.5514C36.6984 20.5469 36.0254 20.4593 35.349 20.4537C34.4469 20.5087 33.5402 20.5233 32.638 20.4537C31.4716 20.2964 30.2972 20.5492 29.1275 20.4289C28.0378 20.3008 26.9471 20.5031 25.8563 20.448C25.1054 20.4155 24.3523 20.3402 23.6025 20.4289C22.2814 20.566 20.9581 20.2829 19.6392 20.4492C18.7754 20.5447 17.9105 20.4222 17.0467 20.4031C16.3681 20.3862 15.6951 20.502 15.0176 20.4907C14.1945 20.4784 13.3736 20.3604 12.5493 20.4143C11.7522 20.4638 10.9505 20.4773 10.1533 20.4245C9.06366 20.3042 7.9729 20.5245 6.88102 20.4368C6.094 20.3728 5.3036 20.3537 4.51658 20.4222C3.61327 20.4739 2.71221 20.3806 1.81115 20.348C1.20706 20.3761 0.605222 20.4278 0 20.4087V18.7817C0.527311 18.7581 1.05462 18.7716 1.57742 18.848C2.37008 18.9547 3.15935 18.7086 3.95201 18.803C4.25236 18.8356 4.55498 18.8468 4.85646 18.8244C5.61411 18.8851 6.37968 18.9109 7.1362 18.821C7.57883 18.7648 8.02258 18.8334 8.46521 18.8536C9.85745 18.9322 11.2519 18.8221 12.6453 18.8716C13.8874 18.9188 15.1306 18.7985 16.3726 18.8716C17.6519 18.9345 18.9313 18.8075 20.2106 18.8671C21.0778 18.9098 21.9461 18.8783 22.8133 18.857C23.9142 18.8311 25.0162 18.9536 26.1138 18.8277C27.4191 18.8424 28.73 18.9289 30.0353 18.8188C31.3135 18.894 32.5939 18.8895 33.8733 18.8581C34.7325 18.8199 35.5839 19.0188 36.4421 18.948C37.7428 18.7446 39.0481 19.1019 40.3546 18.9615C41.8823 18.8525 43.4168 19.1165 44.94 18.9053C45.9969 18.8839 47.0606 19.0693 48.1163 18.9233C49.1653 18.7693 50.2188 19.048 51.27 18.9289C52.2716 18.7918 53.2844 18.8749 54.2893 18.9165C56.105 18.7862 57.9241 18.9356 59.742 18.8525C59.5737 18.239 59.0397 17.8356 58.7754 17.2726C58.4965 16.6984 58.1476 16.1085 58.1849 15.4478C58.2097 14.9253 58.1996 14.3882 58.3904 13.8916C58.5474 13.5174 58.4028 13.1196 58.4062 12.7342C58.413 12.1454 58.5033 11.5555 58.6964 10.9982C58.8443 10.5465 58.8308 10.0655 58.9098 9.60147C59.1752 9.03515 59.4834 8.46096 59.9859 8.06656C60.0085 7.97779 60.031 7.89015 60.0548 7.80138C60.6239 7.39574 61.2336 7.05078 61.884 6.7901C62.3785 6.45862 62.8212 6.05411 63.3304 5.74061C64.0982 5.1653 65.0162 4.85742 65.8473 4.39223C66.3012 4.11244 66.8601 4.272 67.3468 4.10233C67.7488 3.9821 68.1903 3.78546 68.6024 3.98884C69.1354 4.26751 69.7553 4.04839 70.3153 4.21469C70.5852 4.27762 70.8528 4.42706 71.1385 4.36639C71.6172 4.26076 72.035 3.98659 72.4934 3.82591C73.0422 3.88097 73.4803 4.2765 73.9681 4.50235C74.3068 4.21919 74.614 3.80456 75.0882 3.76074C75.5896 3.74389 75.9452 4.13829 76.2219 4.50235C76.4014 4.50572 76.5866 4.47313 76.765 4.52033C76.9637 4.63382 77.132 4.79899 77.342 4.89787C78.0974 4.78101 78.8449 4.41695 79.624 4.60797C79.4569 4.80686 79.2423 4.95518 79.0063 5.0608C78.5242 5.28778 78.0669 5.56195 77.6107 5.83387C77.5904 6.06759 77.5746 6.30243 77.5622 6.53728C77.8704 6.63166 78.2238 6.66537 78.4644 6.90359C78.6552 7.1036 78.7726 7.35866 78.9171 7.59238C79.5099 7.24518 80.07 6.8474 80.6052 6.41705C81.0817 6.13389 81.6113 5.80915 82.1849 5.84511C82.2188 6.56087 81.88 7.22045 81.6056 7.86206C81.0625 9.09358 80.2394 10.1655 79.4749 11.2667C79.4298 11.751 79.458 12.2364 79.4625 12.7218C79.3507 13.423 79.0323 14.0904 78.5649 14.6264C79.3474 15.3029 80.227 15.8512 81.0998 16.4029C81.2601 16.4973 81.3753 16.6434 81.4848 16.7906C80.2495 16.4445 78.9815 16.2332 77.7304 15.9535C77.5735 15.9152 77.4109 15.9287 77.2539 15.94C77.1805 15.9209 77.1094 15.9029 77.0382 15.8849C76.791 16.2816 76.5019 16.6535 76.2941 17.0749C76.1293 17.4502 75.6991 17.5974 75.4902 17.9401C75.3874 18.1086 75.3129 18.2918 75.2361 18.4727C75.104 18.6176 74.9742 18.7637 74.8477 18.912C75.7894 18.9772 76.7356 19.1132 77.6807 19.0176C79.0018 18.9064 80.3274 19.2491 81.6418 19.0087C84.0796 18.9626 86.5186 18.9446 88.9575 18.9648C89.4837 18.9356 89.9602 19.3042 90.4898 19.1828C90.9945 19.0648 91.5004 18.9154 92.0265 18.948C92.9637 18.9806 93.9054 18.9547 94.8392 19.0637C95.895 19.1851 96.9553 19.0165 98.0133 19.0615C99.4157 19.1502 100.808 18.9086 102.21 18.9558C101.981 18.4614 101.767 17.9502 101.436 17.512C101.127 17.176 100.735 16.8793 100.62 16.4141C100.492 15.8602 100.438 15.2894 100.259 14.7467C99.8696 13.5915 99.7894 12.3589 99.7815 11.1487C99.7646 10.3858 100.241 9.75541 100.593 9.1183C100.885 8.68344 100.891 8.12724 101.191 7.69801C101.508 7.23169 101.857 6.7856 102.242 6.3721C102.577 6.01815 102.773 5.5642 103.022 5.15182C103.259 4.75854 103.242 4.22593 103.633 3.93041C104.248 3.44275 104.571 2.70226 105.14 2.17302C105.311 2.00672 105.479 1.83705 105.645 1.66626C106.156 1.08196 106.875 0.723518 107.587 0.444854Z" fill="#272727"/>
</svg>
