<svg width="150" height="101" viewBox="0 0 150 101" fill="none" xmlns="http://www.w3.org/2000/svg">
<path d="M95.3885 3.14175C94.6791 3.53026 94.0372 4.61134 92.7365 7.60121C92.348 8.47959 91.9764 9.27351 91.8919 9.37486C91.5203 9.84783 91.0304 11.9931 90.794 14.0708C90.6588 15.3715 90.5406 16.5032 90.5406 16.6046C90.5406 16.7228 90.2534 16.9931 89.8987 17.2127C89.5608 17.4492 89.0034 17.8208 88.6825 18.0573C88.3615 18.2938 87.9561 18.5134 87.7872 18.5303C87.6014 18.564 87.2635 18.733 87.0102 18.9019L86.5541 19.2228L85.3041 18.6485C84.1385 18.108 83.9021 18.0573 82.3818 18.0404C81.4696 18.0404 80.6926 18.0742 80.625 18.1249C80.4223 18.3445 81.3852 18.5472 82.2804 18.4796C83.294 18.412 85.1352 18.9019 85.8277 19.4424L86.2331 19.7634L85.6419 19.662C85.321 19.6113 84.6115 19.4593 84.071 19.3242C82.9054 19.0539 82.7703 19.037 82.7703 19.2397C82.7703 19.3242 83.1757 19.4762 83.6656 19.5945C85.5068 20.0167 85.5406 20.1012 83.919 20.2026C82.2973 20.3208 81.723 20.439 81.8075 20.6586C81.8412 20.7769 82.0102 20.8445 82.196 20.8276C82.3649 20.8107 83.2264 20.7093 84.0879 20.608C84.9494 20.4897 85.6926 20.439 85.7264 20.4728C85.9291 20.6586 85.2365 22.2296 84.5271 23.1586C84.1048 23.7499 83.6318 24.4762 83.5135 24.7803L83.2771 25.3208L81.7061 25.3039C80.5744 25.287 79.6791 25.3884 78.4629 25.6755C76.5541 26.1316 76.571 26.1316 76.7906 26.3512C76.9088 26.4695 77.4325 26.4188 78.3953 26.1992C80.1858 25.7938 81.7568 25.5911 81.7568 25.7769C81.7568 25.8613 80.8784 26.3343 79.8142 26.8411C78.7331 27.3478 77.8717 27.8546 77.8717 27.9728C77.8717 28.2938 78.1588 28.26 78.6994 27.8884C79.2399 27.4999 82.5507 26.0134 82.8717 26.0134C83.3784 26.0134 83.0068 26.3005 81.571 27.0269C80.7433 27.4323 80.1352 27.8377 80.2196 27.9222C80.2872 27.9897 80.8784 27.7532 81.5372 27.3647C82.1791 26.9931 82.8379 26.689 82.973 26.689C83.294 26.689 83.446 27.0438 83.446 27.7701C83.446 28.1924 83.5473 28.3613 83.8683 28.5134C84.1048 28.6316 84.4257 28.7161 84.5608 28.7161C84.696 28.7161 84.848 28.8174 84.8987 28.9526C85.0169 29.2735 84.2737 30.6417 83.5135 31.537C83.1081 32.01 82.9899 32.2634 83.1419 32.2634C83.4798 32.2634 83.7669 31.9086 84.6453 30.4222C85.0338 29.7296 85.4054 29.2566 85.4392 29.358C85.473 29.4593 85.3041 30.0843 85.0676 30.7431C84.8311 31.4019 84.6284 32.0269 84.6284 32.1282C84.6284 32.483 85.0676 31.9424 85.2872 31.3005C85.946 29.3749 86.0304 29.2228 86.3852 29.2228C86.571 29.2228 86.8581 29.3073 86.9933 29.3917C87.196 29.5269 87.1115 29.6789 86.5034 30.3039C85.7264 31.0978 85.6757 31.4695 86.3852 31.0978C86.6048 30.9627 86.8919 30.912 87.0271 30.9627C87.1622 31.0134 87.0102 31.1485 86.6385 31.3005C85.8277 31.6553 85.5068 32.0438 85.8784 32.1958C86.1318 32.2972 86.098 32.3816 85.6926 32.8039C85.4392 33.0742 84.9662 33.4458 84.6791 33.6485C84.0034 34.0539 83.9865 34.2397 84.5608 34.3917L85 34.51L84.2061 35.3039C83.2095 36.3174 83.3108 36.8411 84.3075 35.8782C85.2196 34.983 85.2534 35.2195 84.3581 36.3005C83.9527 36.7904 83.6149 37.2634 83.6149 37.3478C83.6149 37.635 84.0203 37.4999 84.4933 37.0438C85.2027 36.3681 85.2365 36.6722 84.544 37.5843C84.0541 38.2262 83.9527 38.4627 84.0372 38.8681C84.1048 39.1384 84.223 39.3917 84.3075 39.4424C84.3919 39.51 84.4595 39.6958 84.4595 39.8816C84.4595 40.0505 84.544 40.2026 84.6284 40.2026C84.7298 40.2026 84.696 40.3715 84.5608 40.5742C84.4257 40.7938 84.2737 41.1485 84.2061 41.3681C84.1048 41.7228 84.1217 41.7566 84.4426 41.6722C84.848 41.5708 84.8649 41.6553 84.5608 42.2127C84.4257 42.4492 84.3581 42.7363 84.4088 42.8546C84.4595 42.9728 84.4088 43.2938 84.3075 43.5472C84.0203 44.2228 82.196 44.814 80.4223 44.7803C78.3615 44.7465 78.0912 44.8478 76.8581 46.0978C76.25 46.7059 75.6081 47.5167 75.4223 47.8884C75.2534 48.26 74.9494 48.7836 74.7635 49.0539C74.4595 49.51 74.3919 49.5269 73.6656 49.4086C73.2433 49.3411 72.0946 49.2397 71.1149 49.1722L69.3412 49.0539L70.3379 48.7499C70.9798 48.5472 71.25 48.3951 71.1149 48.3107C70.6081 48.0066 68.6656 48.6316 67.6183 49.4255L67.0777 49.8478L66.571 48.8343C66.2838 48.2938 65.8784 47.7026 65.6588 47.5167C65.2196 47.1789 64.7635 46.4188 64.6622 45.8782C64.6284 45.608 64.7635 45.5066 65.4561 45.3377L66.3007 45.1181L65.1689 45.1519C63.7669 45.1857 63.8514 45.0674 65.8953 44.0201C66.7399 43.5978 67.2635 43.2431 67.0946 43.2431C66.723 43.2431 65.9967 43.5303 64.4764 44.2735C63.6318 44.6958 63.2939 44.7634 62.7196 44.6789C61.9088 44.5607 61.1487 44.037 61.1487 43.5809C61.1487 43.0911 62.0439 41.0134 62.6352 40.1688C62.9392 39.7296 63.1757 39.3411 63.1757 39.2735C63.1757 39.2228 63.3277 38.8174 63.5304 38.3951C64.1385 37.0438 64.375 36.0472 64.7804 32.8039C65.1689 29.7803 65.1858 29.6282 64.8987 29.0539C64.6791 28.5978 64.4933 28.4458 64.071 28.412C63.6487 28.3613 63.5135 28.4289 63.4291 28.7499C63.3615 28.9695 63.0575 29.662 62.7534 30.3208C62.4494 30.9627 62.0777 31.8073 61.9088 32.1789C61.7399 32.5505 61.4865 32.9897 61.3345 33.1586C60.8446 33.7161 59.6622 35.6924 59.0203 36.9931C57.7872 39.5607 57.4325 40.5911 57.3142 41.9255C57.2298 43.1249 57.0946 43.4796 56.8581 43.108C56.8075 43.0235 56.8581 42.4154 56.9426 41.7228C57.0946 40.7262 57.0777 40.3546 56.875 39.7972C56.723 39.4086 56.5203 38.6992 56.4189 38.2093C55.9967 36.3681 54.8818 33.3782 54.223 32.3309C53.8514 31.7397 53.5473 31.1823 53.5473 31.0978C53.5473 30.8107 51.9426 28.9863 51.4696 28.733C50.8277 28.3951 50.2196 28.6147 49.8649 29.358C49.5777 29.8985 49.5608 30.1688 49.6791 31.5032C49.7635 32.3309 49.8987 34.2059 49.9831 35.6417C50.2365 39.8309 50.3885 40.7769 50.9291 41.5539C51.1825 41.9255 51.4527 42.2296 51.5203 42.2296C51.5879 42.2296 51.8581 42.4323 52.1115 42.6688C52.3818 42.9053 52.9223 43.2431 53.3108 43.412C54.1217 43.7667 54.3244 44.0708 54.4933 45.0843C54.5608 45.4728 54.7298 45.9289 54.8818 46.064C55.0507 46.2499 55.1521 46.6553 55.1689 47.1958C55.1689 47.6688 55.2365 48.2938 55.3041 48.5809C55.3717 48.8681 55.3548 49.2904 55.2534 49.51C55.1689 49.7803 55.1689 50.0336 55.2534 50.2194C55.3717 50.4053 55.3379 50.6249 55.1352 50.9289C54.9662 51.1992 54.8987 51.5032 54.9662 51.7735C55.1014 52.3309 54.7298 53.0066 53.9865 53.5472C53.3953 53.9694 52.821 55.0674 52.973 55.4728C53.0237 55.5911 52.8548 55.7769 52.6183 55.8782C52.3818 55.9796 52.196 56.2161 52.196 56.385C52.196 56.9931 51.6385 57.2634 50.1689 57.3816C48.9527 57.4661 48.6994 57.5505 48.3615 57.9053C48.1419 58.1417 47.973 58.3782 47.973 58.4458C47.973 58.5134 47.7196 58.7499 47.3987 58.9694C47.0777 59.189 46.571 59.7634 46.2669 60.2701C45.9629 60.7769 45.321 61.5877 44.848 62.0607C44.375 62.5505 43.8176 63.1586 43.6318 63.3951C43.0575 64.1215 41.0135 65.6417 40.2872 65.8782C39.9156 65.9965 39.3412 66.233 39.0034 66.4019C38.6656 66.5708 38.0406 66.7397 37.6014 66.8073C36.723 66.9086 34.9494 67.7195 34.2906 68.3276C34.0541 68.5472 33.3953 68.885 32.8379 69.0877C32.2298 69.3073 31.571 69.6958 31.2669 69.9999L30.7433 70.5404L28.7331 70.5066C26.6216 70.4728 25.7939 70.2363 25.6081 69.6282C25.4561 69.1722 24.0034 67.8377 23.1419 67.3647C22.7196 67.1282 22.0777 66.7397 21.723 66.4863C21.3514 66.2499 20.5237 65.8782 19.8649 65.6924C19.2061 65.5066 18.2433 65.1857 17.7365 64.983C16.5372 64.51 14.223 64.4762 12.8548 64.9154C12.3311 65.0674 11.1149 65.2701 10.1352 65.3377C8.76692 65.439 8.12503 65.5911 7.38178 65.9289C6.19935 66.4695 3.71624 68.0573 3.71624 68.2769C3.71624 68.6316 4.25678 68.5809 5.00003 68.1417C7.26354 66.8073 10.7433 65.5742 10.1352 66.3005C10.0169 66.4357 9.13854 67.0776 8.1757 67.7363C7.21287 68.3951 6.41895 69.0032 6.41895 69.1046C6.41895 69.3917 7.1453 69.2566 7.66895 68.8512C7.95611 68.6316 9.07097 67.939 10.1352 67.314C11.1994 66.6722 12.1115 66.1147 12.1622 66.064C12.2129 66.0134 12.5338 65.8276 12.8885 65.6586C13.9021 65.2026 15.8277 65.2701 17.4325 65.8276C18.1588 66.0978 18.75 66.3512 18.75 66.4019C18.75 66.4695 18.4629 66.5539 18.1081 66.5877C17.2973 66.7059 14.3412 67.9728 14.7298 68.0404C15.1183 68.1249 18.9358 66.9593 19.0879 66.7059C19.2568 66.4526 20.2872 66.7904 20.9122 67.2972C21.1656 67.5167 21.6723 67.8546 22.0608 68.0404C22.4325 68.2262 22.8548 68.5134 22.9899 68.6823C23.2095 68.9526 23.1757 68.9695 22.3818 68.8512C21.9257 68.7836 21.1994 68.6992 20.7771 68.6485C20.3548 68.6147 19.848 68.5303 19.6284 68.4796C19.4088 68.4458 18.8007 68.5134 18.2771 68.6485C17.7534 68.7836 16.8919 68.9695 16.3683 69.0877C14.4595 69.4593 9.78043 72.7532 8.73314 74.4593C8.63178 74.5945 8.69935 74.662 8.90205 74.662C9.07097 74.662 9.93246 74.0032 10.8277 73.1755C11.7061 72.3647 12.5676 71.5877 12.7365 71.4526C13.5642 70.7938 12.4325 72.8039 10.6926 75.0674C10.2027 75.7093 9.848 76.3005 9.89868 76.3681C10.1014 76.7059 10.473 76.4863 11.0304 75.7093C11.3514 75.2701 12.0777 74.3749 12.6689 73.733C13.2433 73.0742 13.9189 72.2803 14.1723 71.9593C14.4088 71.6384 14.9831 70.9796 15.4561 70.5066C16.2669 69.6789 16.3514 69.6282 17.6014 69.4424C18.3277 69.3242 18.9865 69.2735 19.071 69.3242C19.1554 69.3749 20.1521 69.4931 21.3007 69.5945C23.4291 69.7803 25.0169 70.135 25.3379 70.5235C25.473 70.6924 25.0845 70.8445 23.6149 71.1823C21.3852 71.7059 20.2027 72.1282 20.3885 72.314C20.473 72.3985 21.4021 72.2296 22.4494 71.9424C23.4966 71.6722 24.4764 71.4526 24.6115 71.4863C24.7804 71.5201 24.5946 71.9255 23.9865 72.8884C23.4291 73.7667 23.2095 74.2566 23.3446 74.3073C23.4629 74.3411 23.6318 74.2397 23.7331 74.0708C24.0879 73.4627 25.5575 71.7904 25.9798 71.5201C26.4021 71.2499 26.4358 71.2499 26.6048 71.5539C26.6892 71.7228 27.0271 72.1113 27.3311 72.4154C27.9899 73.0742 27.9561 73.2938 27.0608 74.2735C25.4899 75.9965 24.8987 76.6722 24.5777 77.1113L24.223 77.5843L23.4966 76.7059C22.5507 75.5742 21.0811 74.4593 19.8311 73.9019C18.4629 73.2938 16.6048 73.0235 15.7095 73.2938C15.3379 73.3951 15.0338 73.5472 15.0338 73.6147C15.0338 73.6823 15.6926 73.7499 16.5203 73.7499C17.348 73.7667 18.2264 73.8681 18.5473 74.0032L19.0879 74.2397L18.2939 74.8309C17.0608 75.7431 17.2298 75.9458 18.598 75.1857L19.848 74.51L20.6081 74.9999C21.6048 75.6417 22.9223 76.7904 22.7872 76.9255C22.7196 76.9931 22.348 76.9593 21.9426 76.8749C20.8953 76.6215 17.8548 76.6553 16.5541 76.9255C13.5642 77.5505 12.5338 77.9728 12.973 78.412C13.1419 78.5809 13.2939 78.5809 13.7331 78.412C15.8615 77.5674 16.8919 77.314 18.5642 77.2296C20.625 77.1282 20.6926 77.2465 19.2399 78.26C18.1926 78.9863 18.0406 79.2228 18.6149 79.2228C19.0034 79.2228 19.1385 79.1553 20.8446 77.9728L21.8075 77.2972L22.7365 77.6181C24.0203 78.0573 24.0879 78.1924 23.598 79.1722C23.3615 79.6113 22.973 80.5911 22.7196 81.3343C22.2973 82.5843 22.2804 82.8377 22.348 84.7972C22.3987 85.9627 22.4494 86.9931 22.4831 87.0945C22.5169 87.2127 22.4831 87.314 22.3818 87.314C22.2973 87.3309 22.196 87.1282 22.1622 86.8749C22.0777 85.912 21.9426 85.6417 20.8446 84.1722C19.6284 82.5505 18.9527 82.1113 17.6521 82.1113C16.8075 82.1282 14.6453 83.2093 14.5608 83.6823C14.4933 83.9863 15.2534 84.8309 16.1318 85.4053C16.5034 85.6417 16.571 85.7938 16.4865 86.1823C16.4021 86.5708 16.4527 86.6722 16.8075 86.7566C17.3818 86.8917 17.3311 87.1113 16.723 87.2465C16.098 87.3816 16.0473 87.8546 16.6385 88.1755C16.875 88.2938 17.2129 88.6485 17.3818 88.9526C17.8041 89.6451 18.2771 89.9661 19.3412 90.2194C20.4899 90.4897 21.3852 90.8613 21.7061 91.2161C21.9426 91.4694 21.9257 91.5201 21.6216 91.8073C21.3345 92.0607 21.0811 92.0944 19.848 92.0269C18.598 91.9424 18.3615 91.9762 18.0068 92.2465L17.5845 92.5674L17.3649 92.1113C17.0946 91.537 16.723 91.4019 16.723 91.8749C16.723 92.2972 16.5879 92.314 16.098 91.9762C15.7939 91.7735 15.7433 91.5539 15.7264 90.7262C15.7264 89.2059 15 87.8884 14.2737 88.0404C14.0203 88.0911 14.0372 88.1417 14.3581 88.5134C14.5608 88.7499 14.7973 89.1046 14.8818 89.3242C15.0507 89.7465 15.0845 90.5404 14.9494 90.5404C14.8987 90.5404 14.3412 90.0505 13.7162 89.4424C12.1453 87.9053 11.5372 87.6519 9.32435 87.5505C7.78719 87.483 7.38178 87.5167 6.67232 87.8039C6.21624 87.9897 5.81084 88.26 5.77705 88.412C5.70949 88.7499 6.04732 88.7499 7.11151 88.412C8.24327 88.0404 9.47638 88.1755 10.8615 88.8512C12.6183 89.6958 12.6014 89.8309 10.8277 89.7296C10 89.6958 9.10476 89.7127 8.83449 89.7803L8.36151 89.9154L8.86827 90.0336C9.15543 90.1012 9.69597 90.1688 10.0845 90.1857C11.6385 90.2194 14.4595 91.6722 13.6149 91.9931C13.4291 92.0607 13.1926 91.9762 12.9561 91.7566C12.2973 91.1485 10.473 90.3715 9.67908 90.3715C9.25678 90.3715 8.95273 90.4559 8.95273 90.5573C8.95273 90.6586 9.07097 90.6924 9.223 90.6417C9.37503 90.5911 9.79732 90.76 10.2196 91.0472C10.625 91.3343 11.0304 91.5539 11.1149 91.5539C11.4021 91.5539 11.8581 92.1958 11.7906 92.5167C11.723 92.8884 11.4358 92.8715 9.96624 92.483C8.51354 92.0944 7.21286 92.2127 6.26692 92.8039C5.42232 93.3444 5.37165 93.8343 6.16557 93.8343C6.45273 93.8343 6.84124 93.7667 7.06084 93.6823C7.31422 93.5809 7.50003 93.5809 7.61827 93.6992C7.73651 93.8174 7.56759 93.9019 7.07773 93.9863C5.81084 94.189 3.86827 95.5911 3.44597 96.5877C3.15881 97.2972 3.24327 97.6857 3.83449 98.0573C4.20611 98.3107 4.52705 98.3276 6.06422 98.2262C7.04395 98.1755 21.6554 98.0911 38.5135 98.0573C55.3717 98.0066 71.875 97.939 75.169 97.9053C81.9764 97.8039 110.524 97.6012 124.831 97.5505C139.088 97.483 139.595 97.483 139.865 97.4661C140 97.4661 140.693 97.4154 141.385 97.3816C142.517 97.314 143.834 97.4154 145.811 97.7194C146.419 97.8039 146.436 97.787 146.605 97.1789C146.807 96.4357 146.537 96.1316 145.642 96.1147C144.882 96.1147 144.155 95.5742 143.75 94.7127C143.564 94.3411 143.412 94.0032 143.412 93.9694C143.412 93.9357 143.936 93.9188 144.561 93.9188C145.574 93.9188 145.76 93.8681 146.115 93.4965C146.757 92.8208 146.402 92.6519 144.459 92.7026C143.564 92.7363 142.77 92.8039 142.703 92.8377C142.399 93.0235 142.601 92.6688 143.193 91.9424C143.53 91.537 144.189 90.9965 144.628 90.7769C145.591 90.287 145.608 89.9323 144.679 89.983C143.682 90.0505 142.5 90.8782 141.419 92.314L141.047 92.8208L141.149 92.3478C141.25 91.9255 141.216 91.8749 140.946 91.9255C140.76 91.9424 140.507 92.2296 140.338 92.5336C139.966 93.2769 139.916 93.3276 139.628 93.0911C139.493 92.9728 139.223 92.9222 139.02 92.9897C138.75 93.0742 138.682 93.0235 138.682 92.7532C138.682 92.5505 138.75 92.3985 138.834 92.3985C138.936 92.3985 139.24 92.1789 139.561 91.8917C139.865 91.6215 140.473 91.2667 140.912 91.1147C141.351 90.9796 141.774 90.7769 141.824 90.6755C142.196 90.0674 140.591 90.3377 138.885 91.1654C138.345 91.4188 137.855 91.6553 137.753 91.7059C137.669 91.7397 137.72 91.5708 137.889 91.3343C138.041 91.0809 138.176 90.8444 138.176 90.7938C138.176 90.5742 137.601 90.7431 137.044 91.1147C136.351 91.5877 136.149 91.5539 135.76 90.8782C135.591 90.608 135.304 90.3377 135.118 90.287C134.527 90.1012 134.814 89.6451 135.557 89.6113C136.892 89.5438 138.851 88.6147 138.463 88.2431C138.226 88.0066 137.162 88.0066 136.487 88.2431C136.081 88.3782 135.709 88.4627 135.659 88.412C135.608 88.3782 135.997 87.9222 136.503 87.4154C138.193 85.6924 140 84.4593 140.811 84.4593C141.655 84.4593 141.976 84.1046 141.402 83.8005C140.997 83.5809 140.169 83.8174 138.497 84.6282C137.753 84.983 137.162 85.2026 137.162 85.1012C137.162 84.358 141.588 79.8985 142.314 79.8985C142.399 79.8985 142.77 79.7465 143.159 79.5607C143.547 79.3749 144.223 79.1553 144.662 79.0708C145.659 78.885 145.845 78.7161 145.541 78.2938C145.321 77.9897 145.27 77.9897 143.902 78.4458C142.162 79.0201 141.301 79.51 139.73 80.8107C138.26 82.0269 136.858 83.8174 135.878 85.6924L135.169 87.0438L135.051 86.3005C134.983 85.8951 134.78 85.3884 134.595 85.1857C134.291 84.8647 134.274 84.7465 134.459 84.2228C134.73 83.3951 136.115 81.1316 136.993 80.1012C137.584 79.3749 137.787 79.2397 138.108 79.3242C138.328 79.3917 138.514 79.358 138.514 79.2735C138.514 79.0032 137.652 78.2093 136.993 77.8715C136.622 77.6857 136.318 77.4492 136.318 77.3647C136.318 77.1958 137.77 76.7397 138.598 76.6553C139.172 76.6046 139.223 76.3005 138.682 76.2161C138.311 76.1485 136.351 76.6046 135.726 76.8917C135.253 77.0945 133.615 76.5877 133.615 76.233C133.615 76.1316 134.139 75.5742 134.78 75.0336L135.946 74.0201L137.686 74.0032C139.865 73.9695 142.28 74.4255 144.561 75.2701C145.743 75.7262 146.216 75.7769 146.318 75.4728C146.622 74.5776 143.057 73.4965 139.324 73.3613C138.041 73.3107 136.993 73.2093 136.993 73.1417C136.993 72.939 138.699 71.689 139.645 71.2161C140.625 70.7262 140.862 70.4897 140.473 70.3377C140.118 70.2026 138.311 71.2499 136.824 72.4661C136.132 73.0404 135.541 73.412 135.507 73.3107C135.355 72.8546 138.311 69.4255 140.186 67.8884C141.503 66.8242 141.74 66.5539 141.639 66.385C141.453 66.0809 140.997 66.2161 140.27 66.8073C139.882 67.1282 139.443 67.3985 139.291 67.3985C139.139 67.3985 139.02 67.4999 139.02 67.6012C139.003 67.7195 138.581 68.2769 138.074 68.8343C137.112 69.8816 136.199 71.0472 135.101 72.6857C134.493 73.5809 134.443 73.6147 133.514 73.733C133.007 73.7836 132.534 73.8174 132.5 73.7667C132.247 73.5303 134.595 70.6755 135.726 69.8647C136.166 69.5438 135.98 69.3749 135.372 69.5269C134.764 69.6789 132.095 72.3647 131.487 73.4458C131.115 74.1046 130.878 74.3242 130.389 74.4762C130.051 74.5776 129.696 74.662 129.612 74.662C129.375 74.662 129.375 73.8005 129.612 73.5134C129.73 73.3613 129.679 73.1924 129.443 72.9222C129.257 72.7195 128.97 72.2634 128.801 71.9086C128.632 71.5539 128.311 71.1485 128.108 70.9965C127.889 70.8613 127.703 70.6417 127.703 70.5404C127.703 70.287 128.632 69.3073 129.223 68.9357C129.459 68.8005 130.034 68.3951 130.49 68.0742C130.963 67.7363 131.672 67.2803 132.095 67.0607C132.517 66.8242 132.973 66.5539 133.108 66.4526C133.328 66.2836 133.851 65.9965 135.726 64.9661C136.014 64.814 136.537 64.5776 136.909 64.4255C137.534 64.1722 137.551 64.1384 137.23 63.9863C136.976 63.8681 136.639 63.9357 135.878 64.2735C134.679 64.7972 132.635 65.9796 130.963 67.0945C130.287 67.5505 129.73 67.8546 129.73 67.7701C129.73 67.6857 130.693 66.6384 131.858 65.4728C133.851 63.4627 134.02 63.3276 134.595 63.3613C135.591 63.412 135.811 63.3613 135.811 63.108C135.811 62.8715 136.047 62.787 137.466 62.5843C138.209 62.4661 138.311 62.3647 137.99 62.0438C137.855 61.9086 138.007 61.6553 138.581 61.0978C139.003 60.6755 139.358 60.2532 139.358 60.1519C139.358 60.0505 139.459 59.9661 139.578 59.9661C139.696 59.9661 139.966 59.7803 140.169 59.5438C140.372 59.3073 140.625 59.1215 140.726 59.1215C140.828 59.1215 140.862 59.0032 140.811 58.8512C140.726 58.6485 140.777 58.5978 140.98 58.6823C141.334 58.8174 142.905 58.2938 143.024 57.9897C143.328 57.1958 141.622 57.3985 139.696 58.412C136.655 59.9999 131.655 64.3917 128.834 67.939C128.108 68.8512 127.449 69.5945 127.348 69.5945C127.095 69.5945 127.331 66.3343 127.686 64.8985C127.99 63.7667 127.939 63.2431 127.601 63.733C126.537 65.2195 126.064 68.1924 126.605 69.8647C126.706 70.1857 126.639 70.2532 126.047 70.3546C125.693 70.4053 124.78 70.4728 124.037 70.4897L122.686 70.5066L121.571 69.4255C120.946 68.8343 120.439 68.2262 120.439 68.0742C120.439 67.939 120.625 67.5505 120.828 67.2296C121.605 66.0809 121.875 65.0674 121.858 63.3444C121.858 61.8917 121.774 61.537 121.149 59.7803C120.76 58.6992 120.439 57.6688 120.439 57.483C120.439 57.2972 120.135 56.8073 119.78 56.385C119.409 55.9627 119.054 55.4053 119.003 55.135C118.953 54.8647 118.784 54.2059 118.632 53.6654C118.378 52.7532 118.378 52.6688 118.649 52.3985C118.902 52.1282 118.97 52.1451 119.696 52.5167C120.101 52.7363 120.76 53.2938 121.132 53.7499C121.52 54.189 121.875 54.5607 121.959 54.5607C122.314 54.5607 122.213 54.037 121.689 53.1924C121.081 52.2465 120.608 51.7735 119.983 51.5201C119.764 51.4357 119.595 51.2836 119.595 51.1992C119.595 50.9458 119.899 50.8107 120.017 51.0134C120.084 51.1147 120.811 51.1316 121.959 51.064C123.581 50.9796 123.868 50.9965 124.527 51.3174C124.932 51.5032 125.574 51.9931 125.929 52.4154C126.672 53.2431 127.787 55.1012 128.108 56.064C128.362 56.7735 129.054 57.0438 129.054 56.4188C129.054 56.0472 128.48 54.814 128.226 54.662C128.159 54.6113 127.889 54.1722 127.652 53.6823C126.993 52.3478 125.304 50.4222 124.493 50.1012C123.632 49.7634 121.959 49.7465 121.166 50.0843C120.828 50.2194 120.524 50.3039 120.49 50.2701C120.456 50.2363 120.794 49.8309 121.233 49.3917C121.892 48.733 122.314 48.4796 123.311 48.1586C124.949 47.635 127.027 47.1451 127.044 47.2803C127.061 47.3309 127.044 47.5843 127.027 47.8377C126.993 48.5303 127.466 48.4458 127.703 47.7195C127.804 47.3985 127.956 47.0945 128.024 47.0438C128.108 47.01 128.682 46.9255 129.291 46.858C130.355 46.7566 130.439 46.7735 130.524 47.0945C130.574 47.2972 130.997 47.6688 131.52 47.9559C132.01 48.2431 132.5 48.6316 132.601 48.8174C132.703 49.0032 132.889 49.1553 133.024 49.1553C133.53 49.1553 133.26 48.4965 132.432 47.7026C131.976 47.2634 131.639 46.858 131.672 46.8073C131.892 46.6046 133.733 46.689 134.122 46.9424C135 47.483 136.368 48.9526 137.112 50.1181C137.551 50.7938 137.99 51.3512 138.125 51.3512C138.378 51.3512 138.412 50.9965 138.209 50.7431C137.855 50.3546 137.179 49.0032 137.365 49.0877C137.483 49.1384 138.007 49.6958 138.514 50.3546C139.443 51.537 139.899 51.9424 140.101 51.7397C140.338 51.5032 140.152 51.1823 139.003 49.7296C137.331 47.635 136.622 47.0776 136.385 47.7195C136.301 47.9222 136.098 47.8208 135.473 47.2296C134.544 46.3512 133.497 45.9627 132.872 46.2499C132.652 46.3512 131.47 46.4357 130.186 46.4357H127.889L127.838 44.983C127.804 44.189 127.821 43.4965 127.872 43.4289C128.024 43.1924 130.304 41.6046 131.351 40.9965C132.483 40.3208 133.784 40.0674 134.459 40.3546C135.051 40.608 135.524 40.9289 135.743 41.2161C135.929 41.4357 135.997 41.4357 136.267 41.1654C136.74 40.7431 136.774 40.76 138.142 41.4357C138.463 41.5877 138.818 41.7228 138.953 41.7228C139.122 41.7228 139.189 41.9424 139.189 42.483C139.189 43.3613 139.612 43.564 139.797 42.7701C139.865 42.5167 140.017 42.1789 140.169 42.0269C140.372 41.7735 140.389 41.6553 140.186 41.1823C139.899 40.4897 139.105 39.5776 138.53 39.2904C137.77 38.9019 135.287 38.7836 134.257 39.0877C131.351 39.9323 126.926 42.9559 122.804 46.8917C121.318 48.3107 120.828 48.6316 118.834 49.4086C118.193 49.662 117.534 49.983 117.382 50.1012C116.959 50.4897 116.605 50.3715 116.267 49.7634C115.946 49.1553 114.189 47.5336 113.666 47.3816C113.48 47.314 113.345 47.2127 113.345 47.1282C113.345 47.0607 112.99 46.8917 112.568 46.7735C111.368 46.4188 111.334 46.2499 112.28 45.2363C112.737 44.7465 113.243 44.1722 113.378 43.9526C113.632 43.5809 113.75 43.564 116.064 43.4965C118.851 43.4289 119.764 43.3107 119.764 42.9728C119.764 42.787 119.324 42.7532 117.264 42.8546C115.642 42.9222 114.713 42.8884 114.645 42.787C114.527 42.6181 117.416 39.8647 118.328 39.2735C118.632 39.0877 119.172 38.9357 119.679 38.9188C120.152 38.9019 120.929 38.7667 121.419 38.6316C121.909 38.4796 122.753 38.3107 123.311 38.2431C124.341 38.1249 124.916 37.8039 124.409 37.6012C124.122 37.4999 122.128 37.7363 121.03 38.0066C119.341 38.412 119.443 38.1586 121.503 36.7566C123.429 35.4559 123.868 35.3208 125.929 35.4728C127.753 35.608 128.074 35.6924 128.699 36.1823C129.003 36.4188 129.155 36.4526 129.291 36.3005C129.426 36.1654 129.291 35.9627 128.834 35.5573C128.209 35.0167 127.145 34.6282 126.284 34.6282C125.22 34.6282 125.608 34.3917 130.152 32.2296C130.997 31.8411 131.774 31.4188 131.875 31.3174C131.993 31.1992 132.179 31.0809 132.297 31.0303C132.466 30.9627 132.449 30.8951 132.264 30.6755C132.027 30.439 131.892 30.4728 130.743 31.064C130.051 31.4188 129.257 31.7566 128.97 31.8242C127.804 32.1113 124.747 33.6485 123.733 34.4593C123.26 34.8309 122.551 35.3377 122.145 35.5911C119.409 37.3309 113.75 42.4492 111.993 44.814C111.334 45.6924 111.166 45.76 110.726 45.2701C110.524 45.0505 110.203 44.9323 109.797 44.9323C109.189 44.9323 107.77 44.1215 107.77 43.7667C107.77 43.6823 107.365 43.3445 106.892 43.0235C105.709 42.2127 104.426 40.8613 104.307 40.2701C104.257 39.9999 104.054 39.4593 103.868 39.0539C103.699 38.6654 103.547 38.1586 103.547 37.9559C103.547 37.7532 103.446 37.4323 103.328 37.2296C103.226 37.0269 102.922 36.5032 102.669 36.0472C102.416 35.5911 101.791 34.7972 101.267 34.3073C100.743 33.8005 100.101 32.9559 99.8311 32.4323C99.5608 31.9086 99.2399 31.385 99.0879 31.2667C98.9358 31.1316 98.8176 30.9458 98.8176 30.8445C98.8176 30.7262 98.5473 30.3884 98.2264 30.0674C97.3987 29.2735 96.5203 27.7026 96.8075 27.5336C96.9764 27.4154 96.9764 27.2803 96.7906 26.8749C96.6048 26.4019 96.6048 26.3174 96.8581 26.1316C97.0777 25.9627 97.1115 25.8276 96.9933 25.5066C96.875 25.2026 96.9257 24.9661 97.1622 24.5607C97.5338 23.9188 97.5845 22.7363 97.2973 21.4357C97.0946 20.4897 97.0946 20.4559 97.6352 19.4931C98.0912 18.6485 98.3108 18.4289 99.0541 18.108C101.74 16.8917 102.128 16.6553 103.48 15.2701C104.24 14.51 105.118 13.4796 105.439 12.9728C105.76 12.483 106.216 11.7566 106.47 11.3681C106.706 10.9796 107.331 10.2026 107.838 9.64513C108.345 9.0708 109.122 8.07418 109.561 7.4154C110.355 6.26675 110.372 6.21607 110.118 5.77688C109.966 5.48972 109.595 5.21945 109.155 5.06742C108.446 4.83094 108.378 4.83094 106.537 5.47283C105.49 5.82756 104.459 6.24986 104.223 6.41878C103.987 6.5708 103.497 6.87486 103.125 7.06067C102.753 7.24648 101.757 8.00661 100.895 8.74986C100.051 9.4931 99.2906 10.1181 99.2061 10.1519C98.8007 10.3208 97.5507 12.1958 96.8075 13.7499C95.9798 15.4222 94.9325 16.7904 94.9325 16.1485C94.9325 15.9965 95.0338 15.6586 95.169 15.4053C95.6926 14.358 95.9629 12.4154 96.0304 9.20594C96.098 6.48634 96.1487 5.86134 96.4527 5.10121C97.1453 3.29378 96.6892 2.43229 95.3885 3.14175ZM93.0744 16.9931C93.0744 17.0269 92.9223 17.0607 92.7196 17.0607C92.5338 17.0607 92.4156 16.9931 92.4831 16.8917C92.5676 16.7566 93.0744 16.8411 93.0744 16.9931ZM91.7906 21.2161C91.9426 21.6046 91.8919 21.6215 91.1318 21.2667L90.4561 20.9627H91.0642C91.4865 20.9458 91.723 21.0303 91.7906 21.2161ZM90.8108 22.0269C91.1487 22.3816 91.098 22.4999 90.6926 22.2972C90.5068 22.1789 90.2365 22.1451 90.1014 22.1958C89.8649 22.2972 89.7804 22.1113 89.9831 21.9086C90.169 21.7228 90.5575 21.7735 90.8108 22.0269ZM96.1149 31.6722C96.1149 31.9593 96.0811 31.9593 95.946 31.7566C95.8615 31.6215 95.7771 31.3512 95.7771 31.1654C95.7771 30.8782 95.8108 30.8782 95.946 31.0809C96.0304 31.2161 96.1149 31.4863 96.1149 31.6722ZM125.507 34.358C125.507 34.3917 125.321 34.4593 125.084 34.4931C124.865 34.5438 124.713 34.51 124.764 34.4424C124.848 34.2904 125.507 34.2228 125.507 34.358ZM102.179 39.4255C102.568 40.0336 102.601 40.2026 102.399 40.2026C102.314 40.2026 102.095 39.8985 101.875 39.5269C101.419 38.7161 101.689 38.6147 102.179 39.4255ZM135.304 39.5776C135.304 39.7127 135.084 39.7972 134.713 39.7972C134.088 39.7972 133.919 39.6113 134.426 39.4762C135 39.3242 135.304 39.358 135.304 39.5776ZM138.682 40.4728C138.682 40.608 138.615 40.6755 138.514 40.6249C138.429 40.5742 138.345 40.4559 138.345 40.3546C138.345 40.2701 138.429 40.2026 138.514 40.2026C138.615 40.2026 138.682 40.3208 138.682 40.4728ZM101.655 41.7904C101.875 42.2296 102.01 42.6857 101.976 42.787C101.943 42.9053 101.672 42.5167 101.385 41.9255C101.081 41.3343 100.946 40.8782 101.064 40.912C101.166 40.9458 101.436 41.3512 101.655 41.7904ZM86.6554 43.8512C86.5372 44.2566 86.3852 44.6451 86.3176 44.6789C86.0642 44.8309 86.1825 43.4965 86.4527 43.0742C86.8075 42.4999 86.9088 42.9053 86.6554 43.8512ZM102.331 44.1722C102.703 44.9492 102.635 45.2195 102.213 44.5438C102.078 44.3411 101.858 44.0032 101.723 43.7836C101.52 43.4627 101.52 43.412 101.723 43.412C101.858 43.412 102.128 43.7499 102.331 44.1722ZM103.818 44.3749C103.716 44.4931 102.872 43.9188 102.872 43.7161C102.872 43.6316 103.108 43.7161 103.395 43.9188C103.666 44.1215 103.868 44.3242 103.818 44.3749ZM87.5507 44.9492C87.4494 45.0505 87.4325 44.8985 87.4831 44.5607C87.5507 44.0877 87.5845 44.0708 87.6352 44.4086C87.669 44.6282 87.6352 44.8647 87.5507 44.9492ZM99.1554 44.9154C99.1554 45.3715 98.9021 45.7431 98.7162 45.5742C98.598 45.439 98.8514 44.4255 99.0034 44.4255C99.0879 44.4255 99.1554 44.6451 99.1554 44.9154ZM127.061 45.1857C127.365 46.5877 127.314 46.6384 125.338 47.1451C124.358 47.3985 123.412 47.6688 123.243 47.7363C122.77 47.9222 123.057 47.5167 123.97 46.7059C124.392 46.3343 125.118 45.6755 125.591 45.2363C126.047 44.7803 126.554 44.4424 126.689 44.4762C126.824 44.4931 126.993 44.814 127.061 45.1857ZM85.2703 45.7431C85.2534 46.5201 85.6081 47.8039 85.8446 47.8039C85.8953 47.8039 86.1656 47.635 86.4358 47.4154C87.5676 46.5032 87.5338 46.5201 87.3142 47.0269C87.0946 47.4999 85.794 48.4796 85.3717 48.4796C85.2365 48.4796 85.1352 48.3276 85.1352 48.108C85.1352 47.9053 85.0169 47.6181 84.8818 47.4661C84.6622 47.2127 84.6453 47.01 84.8311 45.9796C85.0507 44.6451 85.3041 44.51 85.2703 45.7431ZM87.8548 45.4897C87.6858 45.6417 87.669 45.6249 87.7703 45.3884C87.821 45.2195 87.9223 45.135 87.973 45.1857C88.0237 45.2363 87.973 45.3715 87.8548 45.4897ZM96.6217 45.8107C96.6217 45.912 96.7399 45.8782 96.9088 45.76C97.1453 45.5573 97.1791 45.5573 97.0946 45.7769C97.0102 46.0809 96.4696 46.1823 96.1318 45.9627C96.0135 45.8782 95.946 45.7262 96.0135 45.6417C96.1487 45.4222 96.6217 45.5573 96.6217 45.8107ZM95.4899 45.9458C95.5406 46.1316 95.5068 46.2836 95.4223 46.2836C95.3379 46.2836 95.2703 46.1316 95.2703 45.9458C95.2703 45.76 95.3041 45.608 95.3379 45.608C95.3717 45.608 95.4392 45.76 95.4899 45.9458ZM63.2939 46.233C63.0406 46.5032 63.0068 46.5032 63.0068 46.2499C63.0068 46.0978 63.1081 45.9458 63.2264 45.8951C63.5642 45.7769 63.598 45.9289 63.2939 46.233ZM98.3108 45.9458C98.3108 46.0303 98.2433 46.1147 98.1419 46.1147C98.0575 46.1147 97.973 46.0303 97.973 45.9458C97.973 45.8445 98.0575 45.7769 98.1419 45.7769C98.2433 45.7769 98.3108 45.8445 98.3108 45.9458ZM87.669 46.1992C87.669 46.3343 87.5507 46.4526 87.4156 46.4526C87.1453 46.4526 87.0777 46.2499 87.2804 46.064C87.4662 45.8613 87.669 45.9289 87.669 46.1992ZM99.3244 46.1147C99.3244 46.1992 99.2399 46.2836 99.1385 46.2836C99.0541 46.2836 99.0203 46.1992 99.071 46.1147C99.1217 46.0134 99.2061 45.9458 99.2568 45.9458C99.2906 45.9458 99.3244 46.0134 99.3244 46.1147ZM95.7771 47.5336C95.2027 48.3613 94.9831 48.4458 95.169 47.7532C95.3041 47.162 95.9629 46.4019 96.1487 46.5877C96.25 46.689 96.098 47.0438 95.7771 47.5336ZM84.6284 48.9863C84.6284 49.0877 84.4426 49.3411 84.223 49.5438C84.0034 49.7465 83.4291 50.3039 82.9223 50.7769C82.4156 51.233 81.5034 52.0269 80.8784 52.5167C79.8818 53.3276 79.6622 53.5978 78.9527 55.0505C78.5304 55.9458 77.973 57.0776 77.7196 57.5843C77.4831 58.0911 76.875 58.9357 76.4021 59.4424C75.4899 60.4222 74.3244 62.4999 74.3244 63.1586C74.3244 63.3613 74.223 63.7836 74.0879 64.1046C73.9527 64.4086 73.8852 64.7127 73.9527 64.7634C74.1048 64.9154 74.8818 64.8816 75.169 64.6958C75.321 64.6113 75.4899 64.6113 75.625 64.7296C75.794 64.8647 75.9291 64.8309 76.1487 64.6282C76.3176 64.4762 76.571 64.358 76.723 64.358C76.8581 64.358 77.2635 64.1722 77.6014 63.9357C77.9392 63.6992 78.294 63.5134 78.3615 63.5134C78.446 63.5134 78.598 63.3951 78.7162 63.2431C78.8514 63.108 79.1892 62.8884 79.5102 62.7532C79.8142 62.6181 80.0676 62.4154 80.0676 62.314C80.0676 62.1958 80.2365 61.9255 80.4223 61.7228C81.2669 60.8276 81.875 59.4762 81.9933 58.2431C82.0777 57.5167 82.2467 56.9593 82.4494 56.689C82.6183 56.4694 82.7703 56.2161 82.7703 56.1147C82.7703 55.7938 84.375 54.3917 85.2872 53.9188C85.8108 53.6485 86.5034 53.412 86.8244 53.412C87.196 53.3951 87.5169 53.2769 87.669 53.0742C88.0068 52.6688 88.598 52.3478 88.75 52.483C88.8007 52.5336 88.8514 52.8039 88.8514 53.0742C88.8514 53.6147 88.9527 53.6654 89.3919 53.26C89.7129 52.9728 89.7129 52.9897 89.6115 53.7161C89.4764 54.6789 89.8311 55.2701 90.3379 54.9492C90.7264 54.7127 90.8784 54.814 90.8784 55.3208C90.8784 55.9965 91.2331 56.7059 91.6554 56.9086C91.8919 57.01 92.1453 57.0607 92.2298 57.01C92.3142 56.9593 92.4662 57.0776 92.5676 57.2634C92.669 57.4492 92.973 57.7194 93.2433 57.8546C93.6994 58.0911 93.75 58.0911 93.75 57.8546C93.75 57.3647 94.1048 57.6012 94.6284 58.4458C94.9156 58.9019 95.2027 59.2904 95.2703 59.2904C95.3379 59.2904 95.4561 59.0877 95.5237 58.8343L95.625 58.3951L96.3345 59.1553C96.723 59.5776 97.3649 60.0843 97.7703 60.287C98.1757 60.4897 98.5304 60.76 98.598 60.8951C98.7838 61.4019 99.0034 61.1316 98.8852 60.5066L98.7838 59.8816L99.1723 60.2532L99.5608 60.6249L98.4967 62.8715C97.9223 64.1046 97.3142 65.4222 97.1284 65.7938L96.8075 66.4695L96.7906 65.1181C96.7737 63.5809 96.2669 61.858 95.5406 60.8951C95.1014 60.3377 93.4798 59.3917 93.2264 59.5607C92.9392 59.7296 93.0912 59.8985 93.8345 60.2701C94.8987 60.7938 95.7433 62.314 96.1318 64.4931C96.3007 65.4053 96.2331 65.8782 96.0135 65.2701C95.6081 64.1722 93.6318 62.3309 92.8379 62.3309C92.669 62.3309 92.5 62.1789 92.4494 61.9762C92.3311 61.5708 92.2635 61.5877 90.2027 62.1282C89.5102 62.314 89.0372 62.483 89.1554 62.483C89.5777 62.5167 89.3412 62.8377 88.5642 63.2938C86.8075 64.2904 84.223 66.1823 82.8717 67.4154C81.9088 68.2938 81.8412 68.3276 80.4223 68.5303C79.1217 68.7161 77.973 68.9188 76.9088 69.1722C76.5879 69.2397 76.5034 69.1384 76.2669 68.3276C75.9629 67.2634 76.0135 67.0607 76.6554 67.0438C77.0946 67.0438 77.0777 67.0269 76.5203 66.8073C76.1994 66.689 75.7771 66.5708 75.5912 66.5708C75.4054 66.5539 75.0338 66.4357 74.7635 66.3005C74.0034 65.8951 72.8717 65.9796 71.9764 66.5032C70.5575 67.3309 69.375 68.2093 68.2433 69.2904C67.6352 69.8816 66.6217 70.8276 66.0135 71.4019C65.2534 72.1282 64.6622 72.8715 64.1385 73.8512C63.5473 74.9154 63.1588 75.4053 62.5 75.8951C62.0271 76.2499 61.5879 76.5032 61.5541 76.4695C61.3683 76.2836 60.9629 74.1722 60.946 73.3613C60.946 72.7532 61.0473 72.314 61.3007 71.9086C61.4865 71.5877 61.6554 71.0978 61.6554 70.8107C61.6554 70.3546 61.7061 70.3039 62.2129 70.3377C62.7365 70.3546 62.7534 70.3377 62.8041 69.6282C62.8379 69.1553 62.9392 68.9188 63.0912 68.9188C63.5135 68.9188 63.6318 68.3782 63.598 66.7228C63.5811 65.7431 63.6318 65.0674 63.75 64.9999C63.8345 64.9323 63.9021 64.6113 63.8852 64.2735C63.8514 63.9188 63.9189 63.5472 64.0372 63.412C64.223 63.1924 64.1723 62.2296 63.9189 60.9796C63.8345 60.5911 63.8514 60.5742 64.071 60.8444C64.2061 61.0134 64.3919 61.1485 64.5102 61.1485C64.8142 61.1485 64.7298 60.608 64.2737 59.8309C63.8852 59.1553 63.8852 59.1046 64.1892 59.2059C64.6453 59.358 64.6284 58.9526 64.1217 57.3647C63.598 55.76 63.6656 54.7296 64.3244 54.7296C64.848 54.7296 65.3717 55.3208 65.3717 55.9289C65.3717 56.1823 65.4561 56.4526 65.5406 56.5032C65.6419 56.5708 65.7095 56.3512 65.7095 55.9796V55.3546L66.098 55.7093C66.7737 56.3512 66.9764 56.0472 66.3852 55.287C65.946 54.7127 65.9629 54.2566 66.4358 54.037C67.0608 53.7499 67.7534 52.5674 67.6183 52.0438C67.5507 51.8073 67.5 51.4188 67.4831 51.1823C67.4831 50.76 67.5 50.76 69.4088 50.608C70.8615 50.5066 71.2669 50.4222 71.0304 50.287C70.8446 50.1857 69.9831 50.1519 68.8852 50.2026C66.9426 50.3039 66.7906 50.2026 68.1081 49.7634C68.8683 49.51 70.9967 49.51 73.1081 49.7634C73.9021 49.8647 74.0541 50.2026 73.446 50.5235C72.5338 50.9965 70.8277 52.1958 70.4223 52.635C69.4257 53.7499 67.6183 57.1113 67.8379 57.4661C67.973 57.6688 70.0338 57.5336 71.1994 57.2634C72.8041 56.8749 73.9696 56.385 74.2399 55.9796C74.375 55.76 74.7804 55.3039 75.1183 54.9492C75.473 54.6113 75.8615 54.1215 76.0135 53.8681C76.1487 53.6147 76.6892 52.8039 77.196 52.0438C77.9054 51.0134 78.2264 50.6755 78.5135 50.6755C78.75 50.6755 78.8514 50.608 78.8007 50.5066C78.6487 50.2532 79.0372 49.814 79.6453 49.5607C79.9325 49.4424 80.6926 49.3073 81.3345 49.2397C82.2973 49.1553 83.6487 48.9863 84.5102 48.8343C84.5777 48.8343 84.6284 48.9019 84.6284 48.9863ZM119.24 50.8276L117.99 52.1958L117.534 51.689C116.791 50.8782 116.655 51.0134 119.848 49.5944C120.135 49.4593 120.389 49.3917 120.422 49.4255C120.456 49.4593 119.916 50.0843 119.24 50.8276ZM93.8007 49.7634C93.9696 49.9323 93.598 50.5404 93.0237 51.0472C92.4325 51.5877 92.3987 51.6046 92.3987 51.2836C92.3987 51.0472 93.4122 49.6789 93.598 49.6789C93.6487 49.662 93.75 49.7127 93.8007 49.7634ZM59.5102 54.3073C59.7804 54.7634 59.848 55.0167 59.696 54.8816C59.2906 54.5438 58.7838 53.4458 58.8007 52.9222L58.8176 52.4492L58.9527 52.9728C59.0203 53.2769 59.2737 53.8681 59.5102 54.3073ZM57.4662 56.2836C57.2635 56.4863 57.0608 56.6046 56.9933 56.5539C56.9426 56.4863 57.0608 56.2836 57.2635 56.0809C57.4662 55.8782 57.6689 55.76 57.7365 55.8107C57.7872 55.8782 57.6689 56.0809 57.4662 56.2836ZM107.095 57.0776C107.095 57.2972 106.757 57.5336 105.676 58.108C105 58.4796 104.645 58.5809 104.443 58.4627C104.206 58.3444 104.223 58.2938 104.561 58.1924C104.764 58.1249 105.372 57.8208 105.895 57.4999C106.875 56.9086 107.095 56.8242 107.095 57.0776ZM104.139 57.7701C103.53 58.3951 103.311 58.4796 102.365 58.3107L101.622 58.1924L102.365 57.9559C102.787 57.8377 103.395 57.635 103.716 57.5167C104.612 57.1789 104.662 57.2127 104.139 57.7701ZM108.108 58.0742C108.108 58.3444 107.517 58.7499 106.943 58.8681C106.216 59.0201 106.368 58.7499 107.23 58.2769C107.922 57.9222 108.108 57.8715 108.108 58.0742ZM108.699 59.7634C108.53 59.9323 107.77 59.5944 107.77 59.358C107.77 59.1384 107.838 59.1384 108.277 59.3917C108.547 59.5607 108.733 59.7296 108.699 59.7634ZM99.8311 60.3208C99.8311 60.4222 99.7635 60.439 99.6622 60.3884C99.5777 60.3377 99.4933 60.2026 99.4933 60.1181C99.4933 60.0167 99.5777 59.9999 99.6622 60.0505C99.7635 60.1012 99.8311 60.2363 99.8311 60.3208ZM108.666 60.4222C108.547 60.4559 108.345 60.4559 108.243 60.4222C108.125 60.3715 108.209 60.3377 108.446 60.3377C108.682 60.3377 108.767 60.3715 108.666 60.4222ZM101.014 61.1485C101.267 61.6046 101.115 62.01 100.389 62.8715C99.5777 63.8512 97.8041 66.4863 97.7872 66.7566C97.7872 66.8917 97.7534 66.9086 97.7027 66.7904C97.5507 66.4188 99.5102 61.858 100.135 61.0978C100.473 60.7093 100.794 60.7262 101.014 61.1485ZM108.159 60.9965C109.24 61.3005 108.851 61.4863 107.145 61.4863C106.233 61.4863 105.304 61.537 105.068 61.6046C104.443 61.7566 104.797 61.4526 105.625 61.1147C106.453 60.7769 107.264 60.7431 108.159 60.9965ZM48.6149 61.5539C48.2095 61.858 48.2264 62.0607 48.6487 61.9424C48.8345 61.8917 48.9865 61.9255 48.9865 62.01C48.9865 62.2127 48.125 62.3985 47.4156 62.3478C47.0271 62.3309 47.196 62.0438 47.8717 61.6384C48.4967 61.2667 49.0879 61.1823 48.6149 61.5539ZM102.28 62.162C102.365 62.2972 102.466 62.2972 102.618 62.162C102.787 62.01 102.889 62.0438 103.024 62.314C103.226 62.6688 103.226 62.6519 102.112 65.1181C101.909 65.5742 101.605 66.7059 101.436 67.6012C101.166 69.1553 101.166 69.2904 101.436 69.9661C101.588 70.3715 101.892 70.9796 102.128 71.3343C102.568 71.9931 102.517 72.314 101.926 72.8039C101.689 73.0066 101.622 73.0066 101.419 72.7195C101.284 72.5505 101.182 72.2634 101.182 72.0776C101.182 71.1316 99.2399 69.7972 98.2264 70.0674C97.6352 70.2363 97.4494 70.608 97.973 70.608C99.0034 70.608 100.76 72.0776 100.946 73.0911C101.047 73.6654 101.014 73.7499 99.8142 74.8985C99.1217 75.5742 97.8548 76.9086 96.9764 77.8715C96.1149 78.8512 95.3379 79.662 95.2534 79.6958C95.0338 79.7803 95.0676 79.5269 95.4392 78.1755C95.8277 76.7904 95.8446 76.5201 95.6081 76.5201C95.5068 76.5201 95.3885 76.7566 95.321 77.0269C95.2027 77.6688 94.8311 77.5843 94.8987 76.9424C95.0507 75.7938 95.5575 75.3039 95.9122 75.9458C96.1149 76.3174 96.6892 76.1823 96.7568 75.7431C96.7906 75.5404 96.6048 75.1519 96.3683 74.8647C95.9967 74.4086 95.9629 74.2904 96.1487 74.0032C96.4021 73.5978 96.6554 73.564 97.1115 73.8512C97.3649 74.0032 97.5338 74.0032 97.8717 73.8512C98.6994 73.4796 98.3108 72.7701 96.9257 72.0607C96.1994 71.689 96.1825 71.6722 96.5541 70.4222C96.9257 69.1384 98.4122 66.5539 100.811 63.0404C101.503 62.0269 102.01 61.7228 102.28 62.162ZM135.811 62.3309C135.473 62.5505 135.084 62.5505 135.22 62.3309C135.27 62.2296 135.49 62.162 135.693 62.162C135.997 62.162 136.014 62.1958 135.811 62.3309ZM46.7906 62.4999C46.4527 62.7194 46.2331 62.7194 46.3683 62.4999C46.4189 62.3985 46.6048 62.3309 46.7568 62.3309C47.0102 62.3309 47.0102 62.3647 46.7906 62.4999ZM91.9426 62.787C93.446 63.564 95.5068 65.5066 95.7095 66.3343C95.7771 66.5708 95.7264 67.1789 95.625 67.6857C95.5237 68.2093 95.4392 68.9188 95.4392 69.2735C95.4392 69.6282 95.3548 70.3039 95.2534 70.7769C95.1014 71.5201 94.9831 71.6722 94.4088 71.9593C93.7331 72.314 93.5473 72.635 94.0034 72.635C94.4088 72.635 94.4764 73.0742 94.1723 73.5472C93.8176 74.0708 93.5811 74.1046 93.4629 73.6485C93.3615 73.2431 92.3142 73.0066 91.875 73.2938C91.4021 73.5809 91.3683 73.5303 91.4696 72.9222C91.5372 72.635 91.5034 72.0776 91.419 71.7059C91.25 70.9289 91.3176 70.608 91.6554 70.608C91.8244 70.608 91.875 70.4897 91.8075 70.2195C91.6892 69.7296 92.6858 68.108 93.1588 68.0404C93.6487 67.9728 93.6825 67.4661 93.2095 67.3309C92.9899 67.2803 92.1284 67.2296 91.3007 67.2296C89.9662 67.2296 89.7467 67.1958 89.5777 66.8917C89.2737 66.4188 88.4122 66.0134 87.7872 66.0809C86.9426 66.1654 87.1115 66.5877 88.0744 66.8242C88.5304 66.9424 89.0203 67.1451 89.1554 67.2972C89.3919 67.5167 89.3581 67.6012 88.8683 68.0573C88.5642 68.3445 88.1419 68.5809 87.9392 68.5809C87.3142 68.5809 86.8244 68.3782 86.8244 68.1417C86.8244 67.8377 86.6723 67.8377 85.9291 68.1586C85.2534 68.4458 82.7703 68.5134 82.7703 68.2431C82.7703 67.6857 90.3379 62.4999 91.1656 62.4999C91.3007 62.4999 91.6385 62.6181 91.9426 62.787ZM61.9426 63.5472C62.1284 63.7836 62.3818 64.6958 62.2635 64.6958C62.1791 64.6958 61.4865 63.5978 61.4865 63.4458C61.4865 63.2769 61.7737 63.3276 61.9426 63.5472ZM61.4358 65.9627C61.5372 66.2836 61.5541 66.5539 61.4696 66.5539C61.3176 66.5539 60.9291 65.8613 60.7264 65.2026C60.6081 64.7972 60.6081 64.7972 60.9291 65.0843C61.1149 65.2363 61.3345 65.6417 61.4358 65.9627ZM60.4561 66.4188L60.9798 67.314L60.3041 66.5539C59.6284 65.7938 59.4933 65.5404 59.7804 65.5404C59.848 65.5404 60.1521 65.9458 60.4561 66.4188ZM59.4764 67.1958C60.1858 67.8377 60.3717 68.1417 60.4054 68.6147C60.4392 68.9357 60.473 69.2735 60.4899 69.358C60.5912 69.9323 60.3717 69.6789 59.7973 68.5303C59.4426 67.8208 58.9189 67.0438 58.6656 66.8073C58.4122 66.5877 58.2771 66.385 58.3953 66.385C58.4967 66.385 58.9865 66.7566 59.4764 67.1958ZM74.848 67.8884C75.4899 68.26 76.0135 69.1722 75.7433 69.4086C75.6081 69.5269 74.1217 69.9999 73.2095 70.2195C72.9392 70.287 72.6858 70.135 72.2467 69.662C71.6554 69.0201 71.6217 69.0032 70.5406 69.037C69.9325 69.0539 69.4257 69.0032 69.4257 68.9357C69.4257 68.7667 70.2703 68.1586 71.7906 67.1958L73.0575 66.4019L73.6487 66.9593C73.9696 67.2634 74.5102 67.6857 74.848 67.8884ZM110.118 68.8174C110.439 69.0539 110.777 69.2566 110.878 69.2566C111.081 69.2566 112.5 69.9323 112.5 70.0336C112.5 70.2195 111.199 69.8647 110.777 69.5776C110.524 69.4086 110.237 69.2566 110.135 69.2566C109.949 69.2566 108.953 68.3613 108.953 68.1755C108.953 68.0235 109.392 68.2769 110.118 68.8174ZM83.8683 68.7499C84.6115 68.7499 84.5608 68.8343 83.4291 69.4931L82.669 69.9323L82.1791 69.4255L81.7061 68.9357L82.1115 68.7667C82.3311 68.6654 82.669 68.6316 82.8548 68.6654C83.0406 68.7161 83.4967 68.7499 83.8683 68.7499ZM87.9223 69.2566C88.1926 69.51 88.3277 69.5438 88.4798 69.3917C88.6318 69.2397 88.8852 69.2566 89.6115 69.51C90.4392 69.7803 90.8446 70.1012 90.3717 70.1012C90.0676 70.1012 90.1858 70.5911 90.5406 70.8107C91.0642 71.1485 90.946 71.4019 90.1183 71.7228C89.2399 72.0438 89.1723 72.2296 89.8311 72.4999C90.0845 72.6181 90.4223 72.8039 90.5912 72.939C91.1487 73.4289 90.9291 73.5978 89.6622 73.6823C88.9865 73.733 87.9899 73.9019 87.4662 74.0708C86.0811 74.51 84.1892 76.0134 85.0169 76.0134C85.169 76.0134 85.3885 75.8951 85.5237 75.76C86.3007 74.9999 88.3784 74.4255 90.1183 74.5269L91.1318 74.5776L91.5034 75.3377C92.0777 76.537 92.1622 77.6181 91.723 78.7161C91.5203 79.2228 91.3007 79.6958 91.2331 79.7634C91.1825 79.8309 90.8108 79.7465 90.4392 79.5438C89.5271 79.1046 87.2804 78.6485 86.5879 78.7836C86.0135 78.885 84.2399 80.2701 84.1554 80.6755C84.0541 81.1147 84.6115 81.1147 85.1521 80.6755C85.4899 80.3884 85.8784 80.2363 86.2838 80.2363C86.6217 80.2195 87.0946 80.1181 87.3142 79.9999C87.7872 79.7296 88.3108 79.8309 90.169 80.5573C90.4561 80.6755 90.7095 80.8782 90.7095 81.0134C90.7095 81.3512 89.5946 82.0269 88.3784 82.4323C87.4494 82.7363 87.2804 82.7532 86.7737 82.5336C85.946 82.1958 84.848 82.0438 84.7298 82.2465C84.5946 82.4661 84.848 82.6181 85.4899 82.6857C86.1825 82.787 86.5203 83.0742 86.3852 83.4796C86.3007 83.7667 86.3514 83.8005 86.7906 83.7667C87.3142 83.6992 87.8379 84.0201 87.8379 84.358C87.8379 84.4762 87.5676 84.6451 87.2298 84.7296C86.9088 84.814 86.6554 84.9492 86.6723 85.0505C86.7061 85.135 86.8244 85.2026 86.9257 85.1688C87.1622 85.1181 87.669 85.7769 87.669 86.1316C87.669 86.3343 87.6183 86.3343 87.3818 86.1147C86.9088 85.7093 86.5203 85.6417 86.3176 85.8951C86.0642 86.1992 85.4899 86.0809 84.4764 85.5404C83.5135 85.0167 83.1757 85.0336 82.1622 85.6755C81.7061 85.9627 81.1487 86.1992 80.9122 86.1992C80.2872 86.1823 79.5608 85.8613 79.5608 85.5742C79.5608 85.439 79.375 85.2701 79.1385 85.1857C78.7331 85.0505 78.7162 85.0336 78.9865 84.662C79.223 84.3242 79.2906 84.2904 79.544 84.51C79.696 84.6451 79.9494 84.7972 80.1014 84.8478C80.3885 84.9492 80.5575 84.9154 82.3987 84.2904C83.5135 83.9188 83.7838 83.9526 83.7838 84.4762C83.7838 84.7296 83.9021 84.7972 84.3919 84.7972C85.2703 84.7972 85.0845 84.3411 83.9527 83.6654C82.821 82.9728 81.419 82.8884 80.8277 83.4458C80.625 83.6316 80.2196 83.8512 79.9325 83.9357C79.4257 84.0877 79.4257 84.0877 79.5946 83.6823C79.7467 83.3782 79.7298 83.1755 79.5608 82.8546C79.1892 82.162 78.6318 82.314 78.0912 83.26C77.7027 83.9526 77.5 84.0032 77.2973 83.4289C77.1791 83.0742 77.2298 82.9222 77.6014 82.5505C77.8379 82.314 78.0406 81.9424 78.0406 81.7397C78.0406 81.4357 78.1081 81.4019 78.5135 81.4863C78.7669 81.5539 79.1723 81.8411 79.4088 82.1282C79.8649 82.6688 80.2365 82.6519 80.2365 82.0945C80.2365 81.6046 79.071 80.5404 78.6149 80.6249C78.0406 80.7262 77.9561 80.2701 78.5135 80.0505C78.7669 79.9492 79.1892 79.7634 79.4426 79.6451C79.7129 79.51 80.1352 79.4424 80.4054 79.4931C80.6588 79.5438 80.9122 79.5269 80.9798 79.4255C81.1656 79.1215 80.4223 78.6823 79.5271 78.564C78.8683 78.4796 78.6487 78.3782 78.6825 78.2093C78.9021 77.3309 78.919 76.858 78.7331 76.858C78.5135 76.858 78.3108 77.314 78.1081 78.2769C77.9392 79.0201 77.6183 79.2566 77.4831 78.7161C77.4325 78.5303 77.3142 78.3782 77.196 78.3782C76.9764 78.3782 77.1284 79.3411 77.3987 79.6789C77.5169 79.8309 77.5169 79.983 77.3649 80.135C77.196 80.3546 77.0946 80.3546 76.6048 80.1012C76.2838 79.9492 76.0135 79.662 75.9798 79.4931C75.946 79.3073 75.7095 79.037 75.4223 78.885C74.7804 78.5303 74.7298 78.2431 75.1521 77.2803C75.473 76.537 75.7264 76.3512 75.9291 76.689C76.0811 76.9255 76.571 76.8917 77.7027 76.5539C78.5304 76.3174 78.7162 76.1992 78.7162 75.912C78.7162 75.6417 78.5473 75.5066 78.0575 75.3715C77.1622 75.1012 77.0271 75.1181 76.571 75.5404C75.8615 76.1992 76.0135 75.76 76.7906 74.8647C77.5169 74.037 78.0575 73.7836 78.294 74.1553C78.5135 74.5269 78.75 74.3073 78.6656 73.8343C78.5642 73.3951 78.6487 73.26 79.2568 72.7701C80.2365 71.9931 81.6217 71.1147 81.8581 71.1147C81.9764 71.1147 82.1115 71.233 82.1622 71.385C82.3311 71.8073 82.7703 71.3512 82.7703 70.76C82.7703 70.3884 82.9223 70.1688 83.446 69.8309C83.8176 69.5776 84.1385 69.4086 84.1723 69.4424C84.6453 70.2701 84.9662 71.1654 84.9662 71.6553C84.9662 72.4661 85.3548 72.5167 85.625 71.7735C85.8953 70.9627 85.8446 70.2532 85.473 69.6282C85.2872 69.3242 85.1858 68.9863 85.2365 68.885C85.4392 68.5809 87.5 68.8512 87.9223 69.2566ZM80.8953 69.2059C80.7602 69.3749 80.169 70.0336 79.5608 70.6586C78.9527 71.2836 78.3953 71.9424 78.3108 72.1282C78.125 72.5336 77.7534 72.6857 77.4156 72.4999C77.0271 72.2803 76.419 72.4492 76.0135 72.9053C75.4899 73.4289 75.6757 73.8512 76.3514 73.7161C77.0608 73.564 77.0102 73.8681 76.1487 74.6958C75.7433 75.0674 74.9831 75.7769 74.4595 76.2836C73.4629 77.2296 73.1588 77.3647 72.8041 76.9424C72.4662 76.537 71.9595 76.4695 71.6048 76.7904C71.1994 77.1451 71.4527 77.5336 72.1115 77.5336C73.0406 77.5336 72.9392 77.7701 71.1825 79.6113C69.5608 81.3343 69.4426 81.4188 69.2568 81.0809C69.1048 80.7938 68.9358 80.7262 68.3615 80.7769C67.5 80.8445 67.3987 81.2499 68.2095 81.4526C68.9527 81.6553 68.9189 82.0945 68.0912 83.0911C67.7365 83.5134 67.0102 84.4424 66.5034 85.135C65.9798 85.8276 65.4223 86.5877 65.2365 86.8073L64.9156 87.2127L64.3919 86.8242C63.8345 86.4188 63.598 85.9458 63.4291 84.9323C63.3277 84.2228 63.5304 83.9526 64.3919 83.6316C65.5744 83.1755 65.7433 83.0911 65.6419 82.9897C65.5912 82.939 65.0845 83.0235 64.5271 83.1924C63.9696 83.3613 63.4798 83.4627 63.446 83.4289C63.4122 83.3951 63.3615 83.0911 63.3277 82.7701C63.2939 82.4492 63.2095 82.0776 63.125 81.9593C62.8885 81.6384 63.2602 81.3174 64.1048 81.0978C65.1183 80.8445 65.1521 80.8445 65.2703 81.3343C65.3379 81.5708 65.4561 81.7566 65.5575 81.7566C65.6588 81.7566 65.9629 81.9931 66.2331 82.2972C66.5879 82.6688 66.7906 82.7701 66.9257 82.635C67.1284 82.4323 66.8244 81.385 66.4527 81.0809C66.098 80.7769 66.1656 80.6249 66.6554 80.5066C66.9426 80.4222 67.0439 80.3208 66.9426 80.2195C66.8412 80.1181 66.1994 80.2195 65.1858 80.4897C62.5676 81.1992 62.7196 81.1992 62.4325 80.4897C62.2804 80.135 62.1622 79.7634 62.1622 79.6282C62.1622 79.51 62.5845 79.1046 63.125 78.733C64.223 77.939 64.9662 77.8377 65.8615 78.3951C66.5203 78.8005 66.875 78.6147 66.5203 78.0573C66.3007 77.6857 65.6588 77.4154 65.2196 77.5167C64.7129 77.6181 65.1858 77.1113 66.0304 76.6722C66.8412 76.233 66.9595 76.2161 67.2804 76.4357C67.5169 76.6046 67.6858 76.6215 67.8379 76.5032C67.973 76.385 68.1926 76.4695 68.5473 76.7735L69.071 77.2127L69.2568 76.8411C69.4257 76.537 69.3919 76.4019 69.1048 76.0134C68.8345 75.6249 68.8007 75.5066 68.9865 75.3546C69.3412 75.0674 71.1149 74.4931 71.1149 74.6789C71.1149 74.7634 71.2162 74.8309 71.3514 74.8309C71.4696 74.8309 71.8412 75.0167 72.1791 75.2363C72.8041 75.6586 72.973 75.6417 72.973 75.1688C72.973 74.8816 72.3987 74.2904 71.9426 74.1215C71.723 74.037 69.3075 74.7803 67.9561 75.3546C67.4494 75.5573 67.3818 75.5404 67.0271 75.2195C66.8075 75.0167 66.4358 74.7803 66.1825 74.6789C65.7939 74.5269 65.6419 74.5776 65.2027 74.9323C64.9325 75.1688 64.696 75.3039 64.696 75.2195C64.7129 74.8985 65.5237 74.1722 66.5372 73.5472C67.5338 72.939 67.7365 72.8884 68.8345 72.8884C69.696 72.8884 70.1521 72.9728 70.4899 73.1755C70.7264 73.3445 70.9798 73.4796 71.0304 73.4796C71.25 73.4796 71.0811 72.8208 70.7771 72.5505C70.5912 72.3816 70.4392 72.1958 70.4392 72.1282C70.4392 72.0607 70.8277 71.8411 71.3007 71.6384C72.0777 71.3005 72.1791 71.2836 72.4494 71.5201C72.9054 71.9424 73.1419 71.858 73.0406 71.3174C72.9561 70.8782 73.0068 70.8107 73.6825 70.5742C75.794 69.7972 79.2737 68.9526 80.473 68.9357C81.0642 68.9188 81.098 68.9357 80.8953 69.2059ZM90.7095 69.0877C90.7095 69.1722 90.6757 69.2566 90.6419 69.2566C90.5912 69.2566 90.5068 69.1722 90.4561 69.0877C90.4054 68.9863 90.4392 68.9188 90.5237 68.9188C90.625 68.9188 90.7095 68.9863 90.7095 69.0877ZM70.8784 70.1181C71.3852 70.4053 71.7906 70.6586 71.7906 70.7093C71.7906 70.7431 71.3176 71.0134 70.7433 71.3005C70.1521 71.5877 69.6284 71.9086 69.5777 71.9931C69.5271 72.0776 69.4257 72.0438 69.375 71.8917C69.1385 71.2836 67.6352 71.7566 66.25 72.8884C65.8446 73.2093 65.4392 73.4796 65.3548 73.4796C65.2027 73.4796 67.1453 71.1147 67.9054 70.3715C68.8345 69.4762 69.6453 69.4086 70.8784 70.1181ZM113.767 70.4053C113.666 70.5066 113.176 70.1012 113.176 69.9154C113.176 69.8309 113.328 69.8985 113.514 70.0505C113.699 70.2026 113.801 70.3715 113.767 70.4053ZM81.419 70.2701C81.571 70.5573 81.4358 70.7262 80.1521 71.6553C78.5811 72.8039 78.3784 72.9222 78.3784 72.6857C78.3784 72.4323 80.8108 69.9323 81.0304 69.9323C81.1487 69.9323 81.3176 70.0843 81.419 70.2701ZM42.3987 71.1485C42.3987 71.4357 42.0608 71.9424 42.0608 71.6722C42.0608 71.5708 42.0102 71.3681 41.9595 71.2161C41.8919 71.0303 41.9426 70.9458 42.1284 70.9458C42.2804 70.9458 42.3987 71.0472 42.3987 71.1485ZM29.696 71.2667C29.8818 71.3681 29.7635 71.5877 29.223 72.1451L28.5135 72.8884L27.9392 72.2634C27.0777 71.3174 27.1622 71.1147 28.4291 71.1147C29.0034 71.1147 29.5777 71.1823 29.696 71.2667ZM54.4764 73.2093C54.7467 73.3951 54.8818 73.564 54.7635 73.6147C54.3581 73.7499 53.446 73.108 52.9392 72.3309C52.0777 71.0472 52.1115 70.9796 53.0912 71.9593C53.598 72.4661 54.223 73.0404 54.4764 73.2093ZM104.747 73.7836C105.253 74.189 106.402 75.2363 107.314 76.1147C108.649 77.4154 108.919 77.7701 108.801 78.0066C108.547 78.4458 107.078 79.983 106.351 80.5573C105.743 81.0472 105.693 81.064 104.122 80.9965L102.517 80.9289L101.419 81.9255C100.811 82.483 99.8649 83.1417 99.3075 83.412L98.3108 83.885V83.5134C98.3108 82.3647 97.6858 82.2803 97.1115 83.3613C96.8919 83.7836 96.6554 84.1215 96.5879 84.1215C96.1994 84.1215 96.6048 82.9897 97.7872 80.7769C100.439 75.8276 100.76 75.3546 101.199 75.7938C101.554 76.1485 101.368 77.4999 100.659 79.5269C99.7973 82.01 99.7467 82.2634 99.9831 82.2634C100.186 82.2634 101.959 78.6654 102.348 77.483C102.652 76.5708 103.209 76.7059 103.463 77.7532C103.649 78.4796 104.155 78.2938 104.088 77.5336C104.02 76.8242 103.615 76.2161 102.905 75.76C102.449 75.4728 102.399 75.3546 102.466 74.8985C102.534 74.5438 102.466 74.3242 102.297 74.1722C101.926 73.8681 101.959 73.7499 102.551 73.0573C103.142 72.3816 102.889 72.2972 104.747 73.7836ZM111.824 73.6485C112.331 73.9357 112.855 74.1553 112.973 74.1553C113.074 74.1553 113.176 74.2228 113.176 74.3242C113.176 74.5438 111.774 74.0877 111.166 73.6654C110.878 73.4458 110.642 73.26 110.642 73.2093C110.642 73.0573 110.912 73.1755 111.824 73.6485ZM94.9494 74.0032C94.848 74.2735 94.7804 74.3073 94.7804 74.1215C94.7635 73.7499 94.9831 73.1924 95.0507 73.412C95.0845 73.5134 95.0338 73.7836 94.9494 74.0032ZM118.75 74.0032C118.75 74.5269 119.037 74.9492 119.595 75.2363C120.051 75.4559 120.135 75.4559 120.22 75.2363C120.355 74.8816 120.591 74.9492 120.76 75.3715C120.878 75.6924 120.726 75.9627 119.831 76.9762C119.24 77.6519 118.598 78.4458 118.378 78.733C118.057 79.1553 117.905 79.2397 117.517 79.1553C116.892 79.0201 116.047 78.3782 116.047 78.0235C116.047 77.8546 116.267 77.5674 116.554 77.3647C116.824 77.162 117.112 76.8073 117.162 76.5877C117.264 76.2161 117.145 76.0303 116.453 75.4222C115.997 75.0336 115.659 74.662 115.709 74.6113C115.845 74.51 118.294 73.6654 118.547 73.6485C118.649 73.6485 118.75 73.8005 118.75 74.0032ZM55.7433 74.6282C55.946 75.3884 55.946 75.5066 55.7771 75.5066C55.5575 75.5066 55.2365 74.7127 55.2365 74.2228C55.2365 73.6316 55.5237 73.8681 55.7433 74.6282ZM102.112 74.3242C102.28 74.5945 101.875 75.1688 101.52 75.1688C101.115 75.1688 101.081 74.8816 101.47 74.4593C101.774 74.1215 101.959 74.0708 102.112 74.3242ZM93.5642 74.5945C93.6149 74.6282 93.4798 74.983 93.2771 75.3884C93.0912 75.7769 92.8379 76.3174 92.7365 76.6046L92.5507 77.1113L92.1622 76.0134C91.7568 74.8309 91.7737 74.5607 92.196 74.4424C92.4831 74.358 93.4291 74.4762 93.5642 74.5945ZM133.953 74.4086C133.953 74.6282 133.48 75.4728 133.176 75.8276C132.855 76.1654 132.72 76.1992 132.095 76.0978C131.436 75.9796 131.402 75.9458 131.503 75.5235C131.672 74.8816 132.01 74.5776 132.635 74.5269C132.922 74.4931 133.209 74.4424 133.26 74.4086C133.362 74.3073 133.953 74.3073 133.953 74.4086ZM94.696 74.9154C94.7635 75.0505 94.7467 75.3546 94.696 75.5911C94.6115 75.9458 94.4933 76.0134 94.0879 75.9796C93.5135 75.9289 93.4798 75.8445 93.8345 75.1688C94.1217 74.6282 94.544 74.51 94.696 74.9154ZM128.209 75.0505C128.209 75.1857 127.889 75.439 127.5 75.6417C126.52 76.1147 123.851 77.0776 123.682 76.9931C123.598 76.9762 123.632 76.689 123.767 76.385C123.987 75.8445 124.037 75.8276 124.645 75.9289C125.22 76.0303 125.321 75.9965 125.422 75.6924C125.541 75.3039 125.76 75.2363 125.929 75.5066C126.098 75.7769 126.858 75.7093 126.976 75.4053C127.044 75.2363 127.196 75.1688 127.449 75.2363C127.703 75.3039 127.872 75.2532 127.939 75.0843C128.057 74.7634 128.209 74.7465 128.209 75.0505ZM130.405 75.5066C130.253 75.7769 130.068 75.8445 129.341 75.8276H128.463L129.139 75.5066C129.51 75.3377 129.983 75.1857 130.203 75.1857C130.541 75.1688 130.557 75.2195 130.405 75.5066ZM38.3615 75.8276C38.5811 76.0134 38.6994 76.2161 38.6318 76.2836C38.5642 76.3512 38.2939 76.2161 38.0406 75.9627C37.5338 75.439 37.7703 75.3377 38.3615 75.8276ZM66.2838 75.8613C66.3683 75.9458 66.1994 76.1316 65.8784 76.3005C65.2365 76.6553 64.1385 77.4154 63.2771 78.108C62.4831 78.733 62.2804 78.5303 62.973 77.8208C63.2771 77.5167 63.5135 77.2127 63.5135 77.1451C63.5135 77.0945 63.7162 76.7059 63.9527 76.3005L64.4088 75.5573L65.2703 75.6417C65.7433 75.6755 66.1994 75.7769 66.2838 75.8613ZM99.6115 76.7228C99.375 77.1282 98.9021 77.8715 98.5642 78.3782C98.2095 78.885 97.3987 80.3884 96.7568 81.7059C96.098 83.0404 95.5406 84.1215 95.4899 84.1215C95.4561 84.1215 95.1183 83.885 94.7635 83.5809C94.0372 83.0066 94.0203 82.7701 94.5608 81.6722C95.169 80.439 99.3244 76.0134 99.8649 76.0134C99.9494 76.0134 99.848 76.3343 99.6115 76.7228ZM122.027 76.2667C122.213 76.4019 122.5 76.5201 122.669 76.5201C122.838 76.5201 122.973 76.5539 122.973 76.5877C122.973 76.9424 122.568 77.314 121.385 78.1249C119.831 79.1553 119.493 79.4931 118.902 80.5066L118.497 81.1992V80.3208C118.497 79.4593 118.53 79.4086 119.983 77.7363C120.811 76.7904 121.52 76.0134 121.588 76.0134C121.655 76.0134 121.858 76.1316 122.027 76.2667ZM62.8379 76.3512C62.8379 76.689 62.0102 78.3782 61.8412 78.3782C61.7399 78.3782 61.6554 78.0911 61.6554 77.7532C61.6554 77.314 61.7906 76.9931 62.1115 76.6553C62.5676 76.1654 62.8379 76.064 62.8379 76.3512ZM57.4325 78.1417C57.8041 78.9357 58.1081 79.7803 58.1081 80.0336C58.1081 80.287 57.8717 80.9458 57.6014 81.5032C57.3142 82.0607 57.0946 82.6688 57.0946 82.8715C57.0946 83.0573 56.9426 83.3613 56.7737 83.5303C56.4527 83.8174 56.4189 83.8005 56.098 83.26C55.8953 82.939 55.7433 82.5505 55.7433 82.3816C55.7433 82.2127 55.5912 81.7904 55.4054 81.4188C55.1521 80.9289 55.0676 80.4053 55.0507 79.3073L55.0338 77.8377L55.6588 77.1958C56.0135 76.8242 56.4021 76.5877 56.5203 76.6384C56.6554 76.689 57.0608 77.3647 57.4325 78.1417ZM75 76.6722C75 76.7566 74.7635 77.0776 74.4595 77.3816C74.1554 77.7026 73.9358 78.0066 73.9527 78.0742C73.9696 78.1249 73.6318 78.3782 73.2264 78.6316C72.1453 79.2566 71.7061 80.2195 72.7027 79.7634C72.9223 79.662 73.1588 79.6282 73.2095 79.6789C73.2602 79.7296 73.0237 80.287 72.6858 80.8951C71.3345 83.3613 70.8277 84.4593 69.848 87.0776C69.4257 88.2093 69.071 88.9188 68.9358 88.885C67.8548 88.6485 67.0946 88.4458 66.8919 88.3276C66.7568 88.2431 66.3514 88.0235 66.0135 87.8377C65.6588 87.6519 65.3717 87.4323 65.3717 87.3647C65.3717 87.2972 65.9629 86.5201 66.6892 85.6249C67.3987 84.7465 68.2939 83.6485 68.6656 83.1755C69.0372 82.7195 69.7298 81.9255 70.2027 81.4188C70.6757 80.912 71.5541 79.9492 72.1622 79.3073C74.6115 76.6384 75 76.2836 75 76.6722ZM129.814 76.9762C129.764 77.1451 129.544 77.8884 129.358 78.6316C129.155 79.3749 128.868 80.1181 128.733 80.3039C128.412 80.6586 126.064 82.314 125.777 82.3647C125.118 82.4661 123.193 83.3613 121.993 84.1046C121.216 84.5945 120.541 84.9661 120.507 84.9154C120.473 84.8816 120.726 84.4086 121.081 83.8512C121.875 82.635 124.696 79.8985 125.659 79.4086C126.03 79.2059 126.351 78.9695 126.351 78.885C126.351 78.2431 123.987 79.5776 121.875 81.4019C121.233 81.9593 120.676 82.3816 120.642 82.3478C120.557 82.2803 121.892 79.5776 122.568 78.4289C122.737 78.1249 123.159 77.7701 123.48 77.6181C124.172 77.314 127.72 76.7228 129.037 76.7059C129.831 76.689 129.916 76.7228 129.814 76.9762ZM131.841 76.858C131.943 77.0269 130.253 78.9526 130.118 78.8174C130.017 78.7161 130.76 76.9593 130.963 76.8242C131.25 76.6384 131.723 76.6553 131.841 76.858ZM94.071 77.0945C94.3075 77.3647 94.2399 77.5505 93.4291 78.8343C92.821 79.814 92.5676 79.7634 92.5676 78.6654C92.5845 77.7532 92.7534 77.3985 93.3277 77.0607C93.7669 76.8073 93.8345 76.8073 94.071 77.0945ZM133.699 77.2634L134.206 77.483L132.618 78.2769C131.757 78.7161 131.014 79.037 130.963 78.9863C130.811 78.8512 132.635 77.0269 132.922 77.0269C133.074 77.0438 133.429 77.1451 133.699 77.2634ZM136.284 78.0573C137.314 78.4796 137.5 78.8343 136.959 79.3073C136.402 79.814 135.237 81.2499 134.865 81.9086C134.679 82.2296 134.291 82.939 133.987 83.5134L133.446 84.5438L133.547 83.4458C133.598 82.8377 133.767 82.0945 133.902 81.7904C134.223 81.1316 134.003 80.7262 133.564 81.1485C133.412 81.3005 133.159 81.4188 132.99 81.4188C132.821 81.4188 132.213 81.537 131.672 81.689C130.726 81.9424 129.764 82.01 129.578 81.8411C129.544 81.7904 129.612 81.4526 129.73 81.0809C129.899 80.5573 130.152 80.287 130.76 79.8985C131.757 79.2904 134.983 77.7195 135.237 77.7026C135.338 77.7026 135.811 77.8546 136.284 78.0573ZM35.9629 78.1417C35.9967 78.1755 35.9967 78.2431 35.946 78.2938C35.7939 78.4458 34.9662 78.1924 34.9662 78.0066C34.9662 77.8546 35.7939 77.9559 35.9629 78.1417ZM43.5811 78.6485C43.6825 78.885 43.75 79.2735 43.7331 79.5269C43.7331 79.9323 43.7162 79.9492 43.598 79.6451C43.2433 78.7499 43.1081 78.2093 43.2602 78.2093C43.3446 78.2093 43.4967 78.412 43.5811 78.6485ZM121.791 78.5472C121.791 78.8681 120.693 80.912 120.524 80.912C119.966 80.912 117.635 84.0877 117.044 85.6417C116.74 86.4695 116.706 86.4863 116.014 86.1823C115.473 85.9627 115.422 85.7431 115.845 85.439C116.182 85.1857 116.605 84.5607 117.23 83.3951C117.483 82.939 117.939 82.2972 118.26 81.9593C118.581 81.6215 119.02 81.0472 119.223 80.7093C119.612 80.0843 121.385 78.3782 121.655 78.3782C121.723 78.3782 121.791 78.4458 121.791 78.5472ZM54.223 78.885C54.223 79.0708 54.1554 79.2228 54.071 79.2228C53.8345 79.2228 53.6825 78.9188 53.8007 78.7161C53.9696 78.4289 54.223 78.5303 54.223 78.885ZM94.544 79.4424C94.6115 79.8647 94.5271 80.2532 94.2737 80.7769C93.8007 81.7566 92.2804 83.4458 91.875 83.4458C91.6217 83.4458 91.5879 83.5303 91.6554 83.9019C91.723 84.2566 91.6217 84.5269 91.25 84.9661C90.6081 85.7093 90.4054 85.5404 90.8615 84.662C91.0473 84.2904 91.4358 83.2769 91.723 82.4154C92.348 80.5573 92.2635 80.6924 93.3108 79.4931C93.7838 78.9526 94.2061 78.5978 94.2906 78.6823C94.375 78.7667 94.4764 79.1046 94.544 79.4424ZM114.426 79.3073C113.784 79.9154 113.446 80.0167 113.007 79.7296C112.821 79.6113 112.973 79.4762 113.682 79.1553C114.966 78.5809 115.169 78.6147 114.426 79.3073ZM45.1014 80.2701C45.1014 80.9289 44.848 81.1485 44.696 80.608C44.6622 80.4559 44.5777 79.983 44.5102 79.5607L44.4088 78.8005L44.7467 79.2228C44.9494 79.4762 45.1014 79.8985 45.1014 80.2701ZM74.7467 79.2059C74.7973 79.2904 74.6453 79.6451 74.4088 79.9999C74.0034 80.5911 73.8345 81.5877 74.1217 81.5877C74.3075 81.5877 75.3885 80.7938 75.625 80.4728C75.794 80.2363 75.8953 80.2532 76.419 80.6586C76.8075 80.9627 77.1453 81.0809 77.3818 81.0303C77.6521 80.9627 77.6858 80.9796 77.5169 81.1823C77.4156 81.3005 77.3649 81.5201 77.4156 81.6553C77.5338 81.9424 77.0946 82.6012 76.7906 82.6012C76.6554 82.6012 76.4696 82.483 76.3514 82.3309C75.8953 81.8073 75.6081 81.7735 74.7467 82.1789C73.8852 82.5674 72.7027 83.8174 72.8885 84.1215C73.0575 84.3917 73.5642 84.3242 74.0034 83.9863C74.5608 83.5472 75.946 83.0404 76.2669 83.1586C76.6554 83.3107 76.571 83.6147 76.1318 83.6147C75.6757 83.6147 75.1521 83.9526 74.2399 84.814C73.8683 85.1688 73.2264 85.6417 72.821 85.8613C71.9426 86.3174 71.7399 86.6553 72.348 86.6553C72.7027 86.6553 73.9358 85.9796 74.1554 85.6417C74.2061 85.5742 74.4257 85.4728 74.6622 85.4222C75.6588 85.2026 76.419 84.814 76.5541 84.4593C76.7399 83.9695 77.2635 84.0877 77.3311 84.6451C77.3649 84.8816 77.2804 85.1519 77.1622 85.2532C76.8075 85.5404 74.8649 86.1485 74.3244 86.1485C74.0034 86.1485 73.7669 86.2667 73.6487 86.4695C73.3953 86.9593 73.6825 87.0438 74.6622 86.7566C75.946 86.3681 76.875 86.8749 76.098 87.5336C75.946 87.6519 75.6926 87.8715 75.5406 88.0235C75.3548 88.2093 74.8142 88.3445 74.071 88.412C72.2298 88.5978 71.7906 88.6992 71.6217 89.0201C71.4358 89.3749 71.5879 89.5945 71.875 89.358C72.0102 89.2566 72.2804 89.3073 72.7196 89.5269C73.0912 89.7127 73.6149 89.8647 73.9021 89.8647C74.1723 89.8647 74.5271 89.9492 74.6622 90.0505C74.848 90.1857 74.7298 90.2026 74.1892 90.135C73.5304 90.0336 73.4122 90.0843 72.8548 90.6249C72.348 91.1147 72.1284 91.2161 71.5203 91.2161C70.8277 91.2161 70.7602 91.1654 70.1858 90.3377C69.8649 89.8478 69.5946 89.358 69.5946 89.2566C69.5946 89.0032 70.9122 85.5911 71.5372 84.2059C71.7906 83.6485 72.1284 83.0404 72.2973 82.8546C72.4662 82.6688 72.8885 81.8749 73.2095 81.0978C73.9358 79.358 74.4426 78.733 74.7467 79.2059ZM41.4696 79.4086C42.2635 79.6282 43.9358 81.2836 43.9189 81.8411C43.9021 82.01 43.8176 81.8917 43.1419 80.9796C42.9561 80.7431 42.4831 80.3377 42.0608 80.1012C41.3852 79.6958 41.1318 79.6451 39.696 79.6451C38.8176 79.6451 37.821 79.7127 37.5 79.7972C37.0608 79.8985 36.9595 79.8816 37.0946 79.7465C37.5169 79.2904 40.2872 79.0877 41.4696 79.4086ZM53.5473 79.5269C53.5473 79.6958 53.1757 80.0674 53.0068 80.0674C52.9223 80.0674 52.9561 79.9154 53.0744 79.7296C53.2939 79.3917 53.5473 79.2735 53.5473 79.5269ZM91.8581 80.3546C91.6892 81.1992 91.0473 82.1451 91.0473 81.5539C91.0473 81.2499 91.875 79.3242 91.9764 79.4086C92.0102 79.4424 91.9595 79.8647 91.8581 80.3546ZM46.723 81.2161C46.5879 81.3512 46.1149 80.8951 45.8446 80.3884C45.4561 79.6451 45.5575 79.6451 46.1994 80.4053C46.5372 80.8107 46.7568 81.1654 46.723 81.2161ZM52.0271 80.5404C52.0271 80.7093 51.6554 81.0809 51.4865 81.0809C51.2669 81.0809 51.3345 80.608 51.571 80.5235C51.8919 80.3884 52.0271 80.3884 52.0271 80.5404ZM112.247 81.3005C112.399 82.1113 112.044 83.2431 111.436 83.885C110.709 84.6789 109.848 84.9661 108.024 85.0336C107.162 85.0674 107.078 85.0505 107.449 84.8985C108.311 84.5269 109.257 83.6992 110.878 81.858C111.419 81.2499 111.926 80.7431 112.01 80.7431C112.078 80.7431 112.196 80.9965 112.247 81.3005ZM58.446 81.7904C58.446 82.1451 58.0237 82.5843 57.6521 82.6012C57.5338 82.6012 57.6014 82.3478 57.821 81.9424C58.2095 81.2499 58.446 81.1823 58.446 81.7904ZM129.054 81.5877C128.868 81.9255 128.547 82.0607 128.547 81.7904C128.547 81.6046 128.919 81.2499 129.088 81.2499C129.172 81.2499 129.155 81.4019 129.054 81.5877ZM51.6385 83.5809C52.196 84.7634 52.8041 86.1316 52.973 86.6215L53.2771 87.5167L52.8379 87.9222C52.5845 88.1586 52.3142 88.3445 52.2298 88.3445C52.1453 88.3445 52.0271 87.9897 51.9595 87.5336C51.8075 86.4019 51.3514 85.2026 50.8277 84.5776C50.2196 83.8512 50.0169 84.1215 50.4899 85.0167C51.0811 86.0809 51.5203 87.4661 51.5203 88.2093C51.5203 88.9357 51.2838 88.9526 51.1318 88.2262C51.0811 87.9559 50.7939 87.483 50.5237 87.1451C49.6284 86.064 47.4156 85.8445 45.9122 86.689C44.8987 87.2634 45.1014 87.5505 46.1825 87.0607C47.8548 86.3005 49.2568 86.9086 50.4561 88.9357C50.8108 89.5269 50.6926 89.8647 49.7973 90.8951L48.9189 91.8917H47.5507C46.2331 91.8749 46.1825 91.8749 45.6081 91.2836C45.2872 90.9458 44.6622 90.4897 44.223 90.2701C43.5304 89.9154 43.4122 89.7803 43.4122 89.3411C43.4122 89.0708 43.2939 88.26 43.1419 87.5674C42.8885 86.3005 42.8885 86.3005 43.3277 85.3884C43.7838 84.4086 43.9189 84.3242 44.5946 84.7127C45.1858 85.0505 45.2703 85.0336 45.2703 84.5438C45.2703 84.0877 45.5575 83.9695 45.7095 84.3749C45.8446 84.7296 46.571 84.6958 46.8919 84.3073C47.0439 84.1384 47.2973 84.037 47.4662 84.0708C47.6689 84.1215 47.8548 84.0201 47.9899 83.7499C48.1081 83.5472 48.4291 83.0742 48.6994 82.7363C49.1048 82.2296 49.2906 82.1282 49.5946 82.1958C49.9156 82.2803 50.0338 82.1958 50.1858 81.858C50.3041 81.6215 50.4392 81.4188 50.4899 81.4188C50.5406 81.4188 51.0642 82.3985 51.6385 83.5809ZM119.916 82.7195C119.645 83.3613 119.426 83.9863 119.426 84.1215C119.392 84.5269 118.345 86.537 118.125 86.6215C117.72 86.7397 117.889 85.8445 118.497 84.662C118.818 84.0201 119.155 83.2769 119.257 83.0235C119.443 82.5336 120.118 81.6046 120.304 81.6046C120.355 81.5877 120.186 82.0945 119.916 82.7195ZM133.024 82.2972C132.77 83.1249 132.449 84.9154 132.432 85.5573C132.432 86.385 132.28 86.9931 132.078 86.9931C131.993 86.9931 131.503 86.5877 130.963 86.0809L130 85.1519L130.422 84.814C130.642 84.6282 130.878 84.4762 130.963 84.4593C131.03 84.4593 131.081 84.3749 131.081 84.2904C131.081 84.0032 130.355 84.1046 129.814 84.4593C129.274 84.814 128.801 84.8985 128.632 84.6451C128.463 84.358 128.936 83.6147 129.527 83.2431C130.372 82.7195 132.28 81.9593 132.753 81.9424C133.091 81.9255 133.125 81.9762 133.024 82.2972ZM44.0372 82.7195C43.9865 82.8884 43.9527 82.787 43.9527 82.5167C43.9527 82.2296 43.9865 82.1113 44.0372 82.2127C44.071 82.3309 44.071 82.5674 44.0372 82.7195ZM23.0575 82.4323C23.1081 82.5167 23.0744 82.6012 22.9899 82.6012C22.8885 82.6012 22.8041 82.5167 22.8041 82.4323C22.8041 82.3309 22.8379 82.2634 22.8716 82.2634C22.9223 82.2634 23.0068 82.3309 23.0575 82.4323ZM90.8277 83.1586C90.7095 83.3613 90.5406 83.8005 90.473 84.1384C90.4223 84.4593 90.2534 84.8816 90.1352 85.0674C89.8987 85.3715 89.8818 85.3715 89.7298 84.9492C89.4933 84.3411 90.1352 82.635 90.625 82.5674C91.0642 82.4999 91.1318 82.6857 90.8277 83.1586ZM93.7838 82.8039C93.6656 82.9222 93.5811 82.939 93.5811 82.8377C93.5811 82.6012 93.7838 82.3985 93.9021 82.5167C93.9358 82.5674 93.8852 82.7026 93.7838 82.8039ZM128.716 82.6012C128.716 82.787 127.213 83.8512 127.095 83.733C126.926 83.5809 128.074 82.4323 128.395 82.4323C128.564 82.4323 128.716 82.4999 128.716 82.6012ZM58.9527 83.0911C58.9527 83.1755 58.5304 83.5134 58.0237 83.8512C56.8919 84.5945 56.8244 84.4086 57.8548 83.4627C58.5304 82.8377 58.9527 82.7026 58.9527 83.0911ZM126.875 83.0573C126.233 84.189 125.372 85.0674 124.578 85.3546C124.105 85.5235 123.564 85.8445 123.345 86.0809C123.041 86.4357 122.922 86.4863 122.72 86.3174C122.584 86.1992 122.466 86.0472 122.466 85.9627C122.466 85.7262 125.034 83.6147 125.845 83.1755C126.791 82.6857 127.112 82.6519 126.875 83.0573ZM89.6791 83.3782C89.4088 84.1215 89.3412 84.1553 88.919 83.7667C88.294 83.1924 88.3615 83.1249 89.6453 82.9559C89.7973 82.939 89.8142 83.0573 89.6791 83.3782ZM58.9527 84.0201C58.9527 84.0708 58.7331 84.662 58.446 85.3546C58.1757 86.064 57.9392 86.7059 57.9392 86.8073C57.9392 86.8917 57.8548 87.1789 57.7534 87.4492L57.5676 87.9222L57.2467 87.5167C57.0271 87.2465 56.9257 86.858 56.9257 86.2499C56.9257 85.5066 56.9933 85.3039 57.3987 84.9492C58.1419 84.2566 58.9527 83.7836 58.9527 84.0201ZM59.8818 84.4593C60.3041 85.2701 60.2027 85.5742 59.2737 86.3174C58.7838 86.689 58.3784 86.9762 58.3446 86.9424C58.2095 86.8242 59.3581 83.9526 59.5271 83.9526C59.5777 83.9526 59.7298 84.1722 59.8818 84.4593ZM93.8345 84.3917C94.5946 84.662 94.6284 84.6958 94.3244 84.9154C94.1217 85.0674 93.7838 85.1181 93.446 85.0674C92.973 84.9999 92.8717 85.0505 92.7365 85.4053C92.5845 85.8107 92.5507 85.8107 92.1453 85.5404C91.6385 85.2026 91.6385 85.2195 92.0777 84.6113C92.4831 84.0539 92.7027 84.0201 93.8345 84.3917ZM128.378 84.3749C128.378 84.5269 128.226 84.6282 128.024 84.6282C127.72 84.6282 127.703 84.5945 127.872 84.3749C127.99 84.2397 128.142 84.1215 128.226 84.1215C128.311 84.1215 128.378 84.2397 128.378 84.3749ZM106.064 85.2026C106.284 85.4728 106.166 85.5911 105.186 86.0303L104.561 86.3174L104.003 85.8107L103.463 85.3208L104.223 85.3039C104.645 85.287 105.135 85.2195 105.321 85.135C105.794 84.9323 105.845 84.9323 106.064 85.2026ZM127.855 85.287C128.041 85.4053 128.024 85.4728 127.77 85.608C127.01 86.0134 125.27 86.6384 125.186 86.5539C125.135 86.5032 125.422 86.1485 125.828 85.7938C126.571 85.135 127.314 84.9492 127.855 85.287ZM129.949 85.8276C130.152 85.9289 130.456 86.1485 130.625 86.2836C130.912 86.537 130.878 86.5708 130.203 86.8917C129.696 87.1451 129.459 87.3647 129.426 87.6519C129.375 88.0066 129.409 88.0404 129.848 87.9559C130.118 87.9053 130.76 87.9559 131.267 88.0742C132.112 88.2769 132.145 88.2938 131.706 88.4289C131.453 88.4965 130.98 88.6992 130.642 88.8681C130.203 89.0877 129.932 89.1215 129.713 89.0201C129.561 88.9188 129.307 88.9019 129.155 88.9526C128.97 89.0201 128.767 88.7667 128.412 88.0573L127.905 87.0776L128.682 86.3681C129.122 85.9796 129.493 85.6586 129.527 85.6417C129.561 85.6417 129.747 85.7262 129.949 85.8276ZM90.5406 85.9796C90.5406 86.064 90.4561 86.1485 90.3548 86.1485C90.2703 86.1485 90.2365 86.064 90.2872 85.9796C90.3379 85.8782 90.4223 85.8107 90.473 85.8107C90.5068 85.8107 90.5406 85.8782 90.5406 85.9796ZM86.2669 86.5539C86.6554 86.4863 86.8581 86.5708 87.3142 87.0607L87.9054 87.6688H87.4325C87.1622 87.6688 86.6554 87.5843 86.3007 87.483C85.7771 87.314 85.625 87.3309 85.4054 87.5336C85.2703 87.6857 84.7973 87.8546 84.3581 87.9222C83.6994 88.0066 83.5135 87.9897 83.3446 87.7532C83.1926 87.5505 82.9392 87.483 82.4831 87.5336C81.4696 87.6181 81.6217 87.2972 82.9392 86.6215L84.1554 85.9965L84.9831 86.3174C85.4561 86.5032 85.9967 86.6046 86.2669 86.5539ZM60.7771 86.7735C60.8784 87.1282 61.0811 87.8039 61.2162 88.2938C61.3683 88.7667 61.4865 89.2735 61.4865 89.3917C61.4865 89.51 61.6048 89.8309 61.7399 90.0843L61.9933 90.5573L61.4358 90.4559C59.5439 90.0505 57.973 89.2397 57.9561 88.6485C57.9392 88.3107 60.0338 86.1485 60.3548 86.1485C60.4899 86.1485 60.6757 86.4357 60.7771 86.7735ZM77.7027 86.5539C77.7027 86.8242 77.3987 87.0776 77.2467 86.9255C77.1115 86.7904 77.3311 86.3174 77.5338 86.3174C77.6183 86.3174 77.7027 86.4188 77.7027 86.5539ZM42.8379 88.8681C42.9561 89.8647 42.9392 89.9323 42.6689 89.7127C42.4831 89.5438 42.1453 89.51 41.5372 89.5776C40.8953 89.662 40.6757 89.6282 40.5912 89.4424C40.5068 89.1722 41.25 87.8884 41.9257 87.1789L42.2973 86.7566L42.5 87.2634C42.6183 87.5505 42.7703 88.26 42.8379 88.8681ZM38.3446 87.0776C38.3446 87.2972 37.5845 87.5167 37.1453 87.4154C36.3683 87.2465 36.571 86.9931 37.5 86.9931C37.973 86.9931 38.3446 87.0269 38.3446 87.0776ZM134.392 87.4323C134.51 87.8884 134.02 89.7972 133.75 89.9661C133.48 90.135 133.463 89.9492 133.682 89.2735C133.834 88.8681 133.868 88.4965 133.784 88.3276C133.699 88.1755 133.649 87.8377 133.682 87.5674C133.767 86.9593 133.733 86.9931 134.037 86.9931C134.172 86.9931 134.341 87.1958 134.392 87.4323ZM90.2365 87.5336C90.1183 87.6519 90.0338 87.6688 90.0338 87.5674C90.0338 87.3309 90.2365 87.1282 90.3548 87.2465C90.3885 87.2972 90.3379 87.4323 90.2365 87.5336ZM80.8953 87.6012C81.098 87.787 80.5575 88.0235 80.0507 87.9728C79.6453 87.939 79.4595 87.8208 79.4257 87.6012C79.3581 87.314 79.4257 87.2972 80.0845 87.3985C80.4899 87.4661 80.8446 87.5505 80.8953 87.6012ZM77.1622 88.4289C77.1453 88.4627 76.8075 88.5303 76.4358 88.5978C75.6757 88.733 75.7433 88.5472 76.6048 88.108C77.0608 87.8715 77.1115 87.8715 77.1622 88.108C77.196 88.2431 77.196 88.3951 77.1622 88.4289ZM85.3885 88.3613C85.5237 88.5809 85.0338 89.1384 84.4595 89.4424C84.0879 89.6451 83.8683 89.6282 82.973 89.3242C82.348 89.1215 81.9257 88.9019 81.9257 88.7499C81.9257 88.6147 82.0271 88.5134 82.1453 88.5134C82.973 88.4796 84.1723 88.3445 84.2568 88.26C84.4257 88.108 85.2872 88.1755 85.3885 88.3613ZM87.4494 88.2769C87.3987 88.3276 87.2467 88.3445 87.1284 88.2938C86.9933 88.2431 87.044 88.1924 87.2298 88.1924C87.4156 88.1755 87.5169 88.2262 87.4494 88.2769ZM35.1352 88.5134C35.1352 88.5978 35.0676 88.6823 34.9831 88.6823C34.8818 88.6823 34.7635 88.5978 34.7129 88.5134C34.6622 88.412 34.7298 88.3445 34.8649 88.3445C35.0169 88.3445 35.1352 88.412 35.1352 88.5134ZM35.9291 88.7836C35.7771 88.9357 35.4561 88.6823 35.5744 88.4796C35.6419 88.3782 35.7433 88.3782 35.8615 88.4965C35.9629 88.5978 35.9967 88.7161 35.9291 88.7836ZM52.7534 90.2701C52.3987 90.8782 52.0608 91.385 51.9933 91.385C51.9257 91.385 51.6723 91.3005 51.4358 91.2161L50.9967 91.0472L51.6385 90.2532C52.3142 89.4255 53.2602 88.7499 53.3446 89.0201C53.3784 89.1046 53.1081 89.662 52.7534 90.2701ZM78.0237 88.9526C78.5642 89.0708 78.6825 89.3749 78.3784 89.8647C78.2602 90.0674 78.1588 90.0505 77.8041 89.7127C77.3142 89.2397 77.0102 89.358 77.348 89.8985C77.5 90.135 77.5 90.3039 77.3818 90.4222C77.2635 90.5404 77.1284 90.4053 76.9257 89.983C76.6892 89.4762 76.6723 89.3242 76.8581 89.1046C77.0946 88.8174 77.2467 88.8005 78.0237 88.9526ZM132.416 89.6113C132.568 89.6958 132.551 89.814 132.331 90.0505C131.976 90.439 130.237 90.4897 130.237 90.1012C130.237 89.9661 130.237 89.814 130.22 89.7296C130.203 89.4086 131.926 89.3073 132.416 89.6113ZM53.8852 90.0336C53.8852 90.2363 54.071 90.5573 54.3075 90.7769C54.7467 91.1823 54.848 91.6215 54.5608 91.8073C54.4257 91.8917 53.0068 91.4863 52.7196 91.2836C52.6352 91.2161 53.6149 89.7127 53.7669 89.6958C53.8345 89.6958 53.8852 89.8478 53.8852 90.0336ZM26.4021 91.9424C27.3987 92.2972 24.4764 92.01 23.2939 91.6384C23.1081 91.5708 22.973 91.4694 22.973 91.4019C22.973 91.2161 23.75 90.8782 24.1554 90.8782C24.3412 90.8782 24.5608 90.7262 24.6622 90.5235C24.848 90.2026 24.8987 90.2363 25.5237 91.0303C25.8953 91.4863 26.2838 91.8917 26.4021 91.9424ZM38.7669 90.3715C38.7162 90.4728 38.8345 90.5404 39.0541 90.5573C39.4257 90.5573 39.4257 90.5742 39.1048 90.7093C38.6656 90.8951 37.8379 90.912 37.8379 90.7431C37.8379 90.6586 38.0068 90.5066 38.2264 90.4053C38.7162 90.1688 38.9021 90.1519 38.7669 90.3715ZM63.3615 91.0303C63.6318 91.2499 63.7162 91.4188 63.598 91.537C63.4122 91.7228 63.2433 91.6384 62.7703 91.0809C62.5 90.7769 62.4831 90.7093 62.7027 90.7093C62.8548 90.7093 63.1419 90.8613 63.3615 91.0303ZM74.4933 91.0472C74.4933 91.1316 74.375 91.1654 74.2399 91.1147C74.1048 91.0472 73.9865 90.9796 73.9865 90.9458C73.9865 90.912 74.1048 90.8782 74.2399 90.8782C74.375 90.8782 74.4933 90.9458 74.4933 91.0472ZM130.997 91.2161C131.047 91.3005 130.98 91.385 130.845 91.385C130.693 91.385 130.574 91.3005 130.574 91.2161C130.574 91.1147 130.642 91.0472 130.726 91.0472C130.828 91.0472 130.946 91.1147 130.997 91.2161Z" fill="#272727"/>
<path d="M80.7095 73.564C79.9325 74.0032 80.2027 74.3241 81.3514 74.3241C81.6723 74.3241 82.2466 74.4762 82.6183 74.6789C83.3953 75.0674 83.5304 75.0336 83.3784 74.4424C83.1757 73.5978 81.5879 73.0741 80.7095 73.564Z" fill="#272727"/>
<path d="M78.8176 74.5436C78.3615 74.8815 78.5811 75.4051 79.1217 75.27C79.3413 75.2193 79.7636 75.2531 80.0676 75.3545C80.794 75.6078 81.1318 75.3207 80.6588 74.8477C80.2027 74.3916 79.223 74.2396 78.8176 74.5436Z" fill="#272727"/>
<path d="M76.2838 77.4831C76.098 77.6689 76.1824 77.8716 76.4358 77.8716C76.571 77.8716 76.6892 77.804 76.6892 77.7196C76.6892 77.5 76.4189 77.3479 76.2838 77.4831Z" fill="#272727"/>
<path d="M113.885 37.9052C113.024 38.8174 111.774 40.8613 111.03 42.5505C110.405 43.9863 110.338 44.4762 110.743 44.3917C111.064 44.341 111.064 44.3241 111.875 42.6349C112.686 40.9795 112.77 40.8275 114.071 39.0539C114.696 38.1924 115.169 37.4154 115.118 37.3309C114.916 37.01 114.578 37.1789 113.885 37.9052Z" fill="#272727"/>
<path d="M130.287 42.4997C130.169 42.8375 131.791 44.5267 132.078 44.3578C132.314 44.2058 132.095 43.7666 131.301 42.8882C130.642 42.1618 130.456 42.0943 130.287 42.4997Z" fill="#272727"/>
</svg>
