<?xml version="1.0" standalone="no"?>
<!DOCTYPE svg PUBLIC "-//W3C//DTD SVG 20010904//EN"
 "http://www.w3.org/TR/2001/REC-SVG-20010904/DTD/svg10.dtd">
<svg version="1.0" xmlns="http://www.w3.org/2000/svg"
 width="640.000000pt" height="640.000000pt" viewBox="0 0 640.000000 640.000000"
 preserveAspectRatio="xMidYMid meet">

<g transform="translate(0.000000,640.000000) scale(0.100000,-0.100000)"
fill="#000000" stroke="none">
<path d="M475 5887 c-64 -22 -100 -43 -134 -82 -90 -103 30 -196 203 -155 52
11 102 -8 118 -47 8 -19 12 -130 13 -348 1 -193 7 -354 14 -405 30 -206 83
-368 196 -605 144 -301 161 -350 201 -610 33 -218 30 -342 -11 -455 -33 -89
-36 -182 -11 -278 25 -93 161 -427 207 -507 22 -38 67 -101 99 -140 104 -122
159 -254 193 -465 9 -52 25 -156 37 -230 12 -74 35 -177 52 -228 34 -109 48
-121 159 -142 57 -11 77 -11 105 -1 19 7 43 10 53 6 42 -13 135 51 148 102 11
47 -15 101 -81 166 -35 34 -69 72 -75 85 -20 38 -61 233 -61 290 0 92 48 156
125 169 48 8 52 -11 25 -105 -19 -65 -20 -83 -11 -118 17 -62 69 -133 132
-178 226 -162 334 -225 496 -292 l108 -44 160 0 c136 0 166 3 202 19 91 42 97
156 11 209 -47 29 -103 41 -202 46 -85 4 -88 5 -129 43 -23 21 -81 62 -129 91
-132 80 -156 123 -118 209 27 60 62 98 121 128 94 48 84 56 250 -180 82 -115
180 -242 219 -282 57 -58 79 -90 115 -168 52 -111 93 -165 185 -243 36 -30 76
-71 88 -89 38 -56 72 -64 287 -70 213 -7 226 -4 250 54 20 48 19 89 -5 137
-26 53 -75 86 -164 108 -39 10 -82 26 -96 36 -43 31 -88 136 -119 282 -17 74
-43 171 -59 215 -30 80 -68 232 -60 240 2 2 66 8 142 14 210 15 221 10 417
-190 179 -183 224 -248 255 -372 22 -85 73 -135 318 -308 86 -61 182 -41 215
45 28 73 -28 163 -164 264 -60 44 -84 73 -85 103 0 9 -29 74 -64 145 -48 99
-68 153 -86 234 -12 57 -35 143 -52 190 -53 151 -49 188 25 220 65 29 149 34
265 16 135 -20 259 -63 401 -137 111 -58 119 -60 171 -55 148 14 212 34 266
79 18 15 43 27 56 27 54 0 60 15 63 161 2 130 33 327 56 355 32 39 26 172 -11
243 -9 20 -23 60 -29 89 -16 76 -56 156 -107 213 -36 41 -44 57 -44 90 0 56
19 95 82 168 64 72 98 135 98 178 0 26 -5 31 -29 36 -39 8 -97 -9 -148 -44
-24 -15 -43 -25 -43 -20 0 4 -17 27 -37 50 l-37 44 -63 -6 c-81 -8 -144 -36
-187 -83 l-35 -38 -38 17 c-76 32 -233 55 -568 82 -234 19 -362 38 -484 70
-178 48 -298 105 -431 205 -272 205 -518 339 -728 397 -90 25 -112 27 -292 27
-182 1 -201 -1 -292 -26 -269 -75 -493 -207 -708 -415 -58 -57 -106 -103 -106
-103 -1 0 -4 13 -7 30 -12 60 -80 182 -202 366 -144 215 -187 298 -223 433
-24 90 -26 116 -32 421 -4 235 -10 335 -20 360 -38 98 -111 174 -218 227 -73
36 -78 37 -201 40 -84 2 -139 -2 -166 -10z"/>
</g>
</svg>
