<?xml version="1.0" standalone="no"?>
<!DOCTYPE svg PUBLIC "-//W3C//DTD SVG 20010904//EN"
 "http://www.w3.org/TR/2001/REC-SVG-20010904/DTD/svg10.dtd">
<svg version="1.0" xmlns="http://www.w3.org/2000/svg"
 width="500.000000pt" height="500.000000pt" viewBox="0 0 500.000000 500.000000"
 preserveAspectRatio="xMidYMid meet">

<g transform="translate(0.000000,500.000000) scale(0.100000,-0.100000)"
fill="#000000" stroke="none">
<path d="M2069 4498 c-30 -112 -38 -298 -15 -388 49 -194 182 -337 390 -423
l79 -32 -149 -12 c-298 -23 -416 7 -505 130 -29 40 -30 40 -23 12 22 -94 95
-188 177 -228 113 -55 248 -58 521 -11 232 39 321 31 388 -36 44 -43 50 -66
16 -53 -13 4 -57 8 -98 8 -63 0 -83 -5 -127 -29 -28 -16 -64 -41 -79 -57 -26
-27 -27 -30 -10 -47 43 -48 162 -95 296 -116 63 -10 74 -15 72 -30 -8 -47 22
-168 69 -275 107 -246 105 -350 -11 -454 -61 -55 -144 -97 -255 -128 -97 -28
-247 -31 -493 -10 -132 11 -198 11 -350 1 -392 -25 -360 -25 -435 4 -59 22
-100 46 -196 114 l-24 17 7 -45 c16 -103 102 -202 232 -266 l71 -36 -18 -58
c-40 -128 -34 -292 17 -487 14 -54 28 -107 31 -118 4 -19 -8 -22 -242 -52
-136 -17 -248 -33 -250 -35 -1 -2 -31 -160 -67 -353 l-64 -350 -120 -20 -119
-20 -23 -59 c-29 -72 -22 -81 56 -79 l57 2 17 -39 c15 -37 18 -39 45 -30 15 5
80 25 144 44 l115 36 118 309 c110 287 120 310 145 315 14 3 139 10 276 16
416 17 409 16 476 46 76 34 149 112 178 189 12 31 21 60 21 65 0 5 48 9 108 9
199 0 478 78 772 214 91 42 182 62 255 54 99 -10 100 -3 -46 -210 l-132 -187
-61 0 -61 1 -49 70 -48 71 -34 -33 c-19 -19 -52 -61 -73 -95 l-39 -62 18 -29
c37 -61 154 -79 307 -47 63 13 84 13 120 3 42 -11 198 -7 264 7 18 4 101 93
285 306 142 165 259 303 259 306 0 3 -97 65 -215 138 -118 73 -214 136 -213
140 0 5 11 56 22 113 47 225 47 391 0 515 -29 78 -123 217 -209 309 l-70 75
100 -5 c78 -5 115 -2 167 12 l66 18 -28 24 c-30 27 -26 36 23 49 20 6 22 12
22 70 0 55 -2 64 -18 64 -37 0 -178 41 -231 67 -30 14 -92 61 -140 105 -109
100 -243 196 -286 204 -43 8 -90 -17 -111 -59 -9 -17 -18 -34 -20 -36 -7 -7
-74 41 -108 79 -66 73 -114 202 -117 315 l-1 40 -21 -45 c-18 -39 -21 -63 -22
-178 l0 -133 -30 5 c-61 12 -176 76 -231 128 -101 95 -142 193 -152 363 l-7
110 -29 -48 c-42 -71 -68 -161 -69 -248 l-2 -77 -26 19 c-81 57 -142 154 -174
274 -20 79 -38 268 -30 322 10 67 -1 51 -26 -39z m1874 -2820 l28 -36 -132
-178 c-72 -99 -133 -180 -134 -181 -2 -3 -205 54 -210 59 -8 7 397 379 408
375 6 -2 24 -19 40 -39z m-2734 -841 l-33 -215 -43 21 c-24 12 -42 26 -40 32
3 5 35 94 73 197 38 102 70 185 72 183 2 -2 -11 -100 -29 -218z"/>
</g>
</svg>
