<?xml version="1.0" standalone="no"?>
<!DOCTYPE svg PUBLIC "-//W3C//DTD SVG 20010904//EN"
 "http://www.w3.org/TR/2001/REC-SVG-20010904/DTD/svg10.dtd">
<svg version="1.0" xmlns="http://www.w3.org/2000/svg"
 width="735.000000pt" height="625.000000pt" viewBox="0 0 735.000000 625.000000"
 preserveAspectRatio="xMidYMid meet">

<g transform="translate(0.000000,625.000000) scale(0.100000,-0.100000)"
fill="#000000" stroke="none">
<path d="M1890 6193 c0 -23 9 -50 25 -73 15 -22 31 -67 40 -119 12 -62 30
-110 70 -186 l55 -103 -50 -31 c-27 -17 -79 -40 -114 -52 -83 -26 -126 -55
-151 -101 -10 -20 -33 -43 -50 -51 -17 -8 -69 -46 -115 -84 -132 -107 -174
-133 -229 -140 -44 -5 -51 -9 -60 -36 -16 -45 -13 -73 13 -125 22 -43 30 -50
97 -77 l74 -29 310 -7 c171 -3 311 -7 311 -7 10 -12 12 -129 4 -205 l-11 -98
65 -193 c36 -107 80 -225 97 -262 17 -38 46 -129 65 -203 19 -73 43 -150 54
-171 22 -43 65 -154 85 -217 7 -24 25 -63 39 -87 23 -39 36 -48 123 -86 82
-36 125 -58 152 -77 2 -1 -3 -13 -12 -26 -15 -23 -74 -47 -118 -47 -13 0 -38
-8 -54 -18 -17 -10 -41 -21 -55 -24 -14 -3 -59 -15 -100 -27 -41 -11 -95 -21
-120 -21 -50 0 -158 -28 -211 -55 -41 -21 -58 -41 -106 -125 -122 -217 -310
-452 -417 -523 -121 -81 -164 -106 -187 -111 -13 -3 -50 -12 -82 -20 -34 -10
-99 -16 -157 -16 -76 0 -113 -5 -152 -20 -67 -25 -94 -25 -108 1 -13 23 5 89
50 179 22 45 29 75 34 161 4 58 14 137 22 175 8 38 14 70 14 71 0 2 -6 3 -14
3 -8 0 -29 -24 -47 -52 -18 -29 -47 -71 -65 -93 -17 -22 -49 -76 -69 -120 -31
-65 -39 -96 -44 -163 l-6 -84 -27 21 c-15 12 -37 38 -49 59 -32 53 -90 112
-111 112 -33 0 -94 67 -127 140 -34 72 -41 79 -60 57 -17 -21 3 -82 107 -331
9 -22 43 -66 75 -98 55 -53 58 -60 54 -94 -3 -21 -23 -62 -46 -95 -55 -77 -84
-154 -76 -197 3 -18 28 -78 56 -134 l49 -101 0 -157 c0 -193 13 -248 66 -280
l35 -22 33 23 c18 12 47 43 65 68 30 45 99 197 107 236 7 37 54 148 76 181 31
45 64 49 156 18 75 -26 82 -26 247 -20 273 10 323 16 428 48 53 17 100 34 103
39 8 14 69 11 119 -7 27 -9 67 -35 95 -62 l49 -47 -59 -235 c-33 -129 -60
-245 -60 -258 0 -12 -9 -48 -20 -79 -11 -32 -20 -81 -20 -109 0 -28 -6 -69
-14 -90 -16 -45 -98 -211 -145 -296 -30 -54 -35 -58 -69 -58 -55 0 -124 52
-191 142 l-57 77 1 -57 c1 -31 7 -67 13 -79 15 -28 15 -33 -1 -33 -7 0 -19 -6
-25 -12 -10 -10 -6 -18 19 -39 49 -40 29 -56 -29 -23 -36 20 -59 26 -99 25
-44 -2 -60 3 -95 27 -51 34 -103 62 -118 62 -20 0 -10 -48 20 -88 17 -23 30
-44 30 -47 0 -18 -81 7 -108 32 -14 14 -31 16 -132 17 -64 1 -65 1 -82 36 -9
19 -19 53 -22 75 -13 90 -19 111 -38 143 -23 37 -21 40 46 120 26 32 36 53 36
78 0 19 -4 34 -8 34 -4 0 -28 -20 -52 -45 -46 -47 -96 -63 -87 -27 12 42 17
92 10 92 -19 -1 -48 -33 -58 -62 -13 -41 -45 -51 -45 -15 0 14 9 46 20 72 11
26 20 58 20 72 0 22 -3 24 -22 18 -52 -16 -69 -17 -83 -5 -8 7 -12 16 -9 21 3
5 -7 9 -21 9 -34 0 -73 21 -140 75 -72 59 -115 85 -142 85 -15 0 -24 9 -32 32
-15 43 -50 78 -77 78 -60 0 -64 -31 -8 -68 18 -12 34 -26 34 -31 0 -5 -22 -17
-50 -26 -62 -21 -67 -40 -7 -30 23 4 50 11 59 16 9 5 23 6 31 3 12 -4 7 -13
-20 -38 l-35 -32 15 -37 c9 -20 21 -37 26 -37 15 0 48 38 61 71 7 15 21 31 32
35 23 7 98 -39 98 -61 0 -8 12 -44 26 -81 25 -62 28 -65 53 -58 50 13 66 10
67 -14 2 -27 -5 -32 -70 -48 -28 -6 -58 -15 -67 -18 -13 -6 -15 -2 -12 18 7
33 -19 36 -41 5 -17 -25 -13 -26 -136 59 -70 47 -80 50 -80 23 0 -25 14 -35
79 -56 35 -11 67 -31 89 -54 34 -36 74 -109 67 -122 -3 -3 -27 -4 -55 -1 -43
4 -50 2 -50 -13 0 -10 11 -33 26 -52 18 -24 33 -33 54 -33 37 0 98 -29 104
-49 11 -41 17 -101 9 -101 -4 0 -17 7 -27 15 -11 8 -28 15 -39 15 -14 0 -17
-5 -12 -22 6 -22 20 -37 75 -81 16 -14 20 -25 16 -43 -5 -19 -3 -24 14 -24 11
0 20 -2 20 -5 0 -11 -24 -55 -30 -55 -4 0 -10 -9 -13 -19 -4 -16 4 -24 37 -38
l41 -17 -40 -4 c-22 -2 -63 2 -92 9 -42 10 -55 10 -68 -1 -8 -7 -15 -16 -15
-21 0 -13 70 -45 115 -53 l39 -8 -49 -17 c-28 -10 -95 -48 -149 -84 -55 -37
-103 -67 -108 -67 -4 0 -8 -13 -8 -29 l0 -29 93 1 c70 0 106 -5 151 -21 l60
-22 1525 -2 c839 -1 1531 0 1536 3 6 3 71 3 145 -2 74 -4 268 -10 430 -13 162
-4 369 -11 458 -17 90 -7 189 -8 220 -4 32 4 71 9 87 11 91 11 505 1 1080 -27
667 -32 691 -32 825 1 19 5 83 14 142 21 95 10 117 10 189 -6 44 -9 81 -15 83
-13 29 43 33 116 11 197 -14 55 -28 74 -80 106 -114 72 -376 309 -375 339 0 6
7 20 15 30 8 11 15 29 15 39 0 19 -1 19 -20 2 -16 -14 -29 -16 -72 -11 -125
16 -205 18 -212 7 -4 -6 -11 -11 -16 -11 -14 0 5 50 45 120 88 151 114 203
109 212 -4 5 -18 -10 -32 -34 -37 -63 -164 -227 -207 -268 l-37 -35 20 45 c44
98 70 167 76 199 l6 34 -25 -36 c-13 -20 -31 -49 -40 -64 -9 -16 -13 -19 -10
-8 14 43 35 262 30 304 -6 39 -8 41 -20 25 -7 -11 -18 -53 -24 -94 -6 -41 -16
-88 -21 -105 -5 -16 -11 -52 -15 -79 -13 -105 -77 -166 -170 -160 -58 3 -198
-38 -235 -70 -36 -29 -62 -33 -80 -11 -7 9 -29 15 -51 15 -35 0 -39 3 -39 24
0 25 41 66 66 66 27 0 62 23 68 44 3 11 -3 37 -14 58 -15 30 -21 81 -34 295
-9 142 -21 299 -28 348 -16 121 -15 362 1 455 7 41 26 122 43 179 29 99 30
105 15 137 -9 18 -28 41 -42 50 -50 33 -120 185 -165 364 -31 122 -29 133 38
199 59 57 127 153 240 341 35 58 75 118 90 133 31 33 91 195 107 290 5 33 9
37 35 37 36 0 50 14 82 81 50 104 88 248 88 330 0 40 -4 47 -27 60 -16 7 -46
25 -68 39 -22 14 -51 31 -65 37 -14 6 -95 69 -180 140 -211 175 -272 220 -327
245 -66 30 -163 47 -225 40 -29 -4 -73 -6 -98 -6 -595 7 -913 -1 -1015 -25
-105 -26 -491 -44 -786 -38 l-296 6 -69 -45 c-38 -25 -78 -53 -89 -63 -28 -25
-99 -51 -138 -51 -18 1 -44 10 -59 23 -50 41 -155 213 -184 300 -14 45 -53
132 -85 194 -33 61 -59 119 -59 129 0 26 -40 191 -58 243 -9 24 -27 58 -41 74
-16 20 -25 43 -26 68 -1 32 -9 44 -53 84 -70 63 -69 108 5 138 86 34 128 115
143 276 5 53 12 117 16 144 9 61 -7 62 -36 0 -23 -49 -46 -74 -147 -158 -72
-59 -141 -154 -149 -206 -9 -56 -19 -67 -42 -46 -21 20 -44 69 -62 137 -9 33
-25 57 -62 90 -163 148 -197 184 -203 211 -5 22 -12 29 -31 29 -21 0 -24 -5
-24 -37z m3125 -3165 c6 -61 16 -90 62 -178 89 -171 262 -418 377 -540 113
-120 113 -120 140 -221 13 -53 36 -125 51 -160 21 -53 24 -68 14 -91 -8 -19
-8 -36 0 -60 9 -26 7 -54 -8 -133 -11 -55 -25 -154 -31 -220 -12 -126 -30
-230 -55 -312 -8 -26 -15 -56 -15 -67 0 -28 -59 -138 -86 -161 -16 -14 -27
-37 -34 -73 -5 -30 -19 -67 -31 -84 -21 -29 -23 -29 -93 -25 -39 2 -104 13
-143 25 -93 28 -171 29 -224 1 l-40 -20 -87 21 c-48 11 -116 30 -152 40 -65
20 -114 30 -167 35 -50 4 -233 46 -268 61 -19 8 -44 14 -56 14 -19 0 -20 3
-14 52 18 136 61 280 171 575 39 106 39 103 19 103 -14 0 -14 3 0 29 8 17 24
36 36 44 15 11 22 30 26 69 7 66 -13 110 -86 190 -54 60 -70 90 -75 150 -2 21
-18 72 -36 114 -42 102 -45 166 -8 215 15 20 31 51 34 70 4 19 35 91 70 162
69 142 91 218 93 333 1 19 10 23 82 34 56 9 109 10 168 4 47 -4 120 -8 162 -8
l76 -1 43 43 c63 62 76 58 85 -30z m-1346 -830 c16 -29 56 -75 88 -103 32 -27
76 -69 97 -93 l39 -42 5 -118 c10 -257 -54 -535 -184 -793 -44 -88 -62 -99
-170 -99 -85 0 -86 0 -80 23 4 12 11 96 17 187 9 158 28 346 48 495 6 39 22
101 36 139 20 52 23 71 14 82 -6 8 -8 22 -4 31 4 10 11 77 15 150 6 86 14 142
25 162 8 17 17 31 19 31 2 0 18 -24 35 -52z m-344 -504 c-26 -391 -39 -513
-75 -679 -35 -161 -27 -150 -98 -153 -34 -2 -62 -7 -62 -12 0 -6 -7 -10 -15
-10 -8 0 -15 -4 -15 -9 0 -5 -24 -19 -52 -29 -29 -11 -78 -31 -108 -45 -62
-28 -341 -95 -431 -104 l-59 -5 0 55 c0 63 47 319 84 458 27 101 77 368 96
514 7 55 22 112 38 148 l27 57 65 0 c56 1 185 27 350 71 76 20 132 46 204 93
38 25 71 44 73 42 2 -1 -8 -178 -22 -392z m824 45 c6 -18 11 -42 11 -55 0 -13
5 -35 12 -49 8 -19 8 -31 0 -51 -7 -14 -9 -32 -4 -40 9 -15 -9 -133 -34 -224
-9 -30 -22 -82 -30 -115 -14 -59 -30 -101 -82 -218 -24 -55 -26 -58 -55 -51
-36 8 -42 9 -92 19 -22 4 -43 10 -48 12 -4 3 15 46 41 96 27 51 59 121 70 157
12 36 40 126 63 200 55 177 119 350 129 350 5 0 13 -14 19 -31z m1661 -442 l0
-283 -29 -28 -29 -28 -7 74 c-4 50 0 121 14 228 11 85 23 192 26 238 14 167
25 76 25 -201z m-3458 1 c-3 -252 -28 -447 -70 -563 l-28 -78 -49 -13 c-92
-24 -191 -10 -181 25 3 9 10 36 16 61 18 73 47 144 148 355 89 187 141 317
157 393 3 17 7 32 8 32 1 0 1 -96 -1 -212z m-1672 -257 c0 -5 2 -16 6 -24 4
-11 -7 -16 -41 -20 -25 -4 -59 -14 -76 -23 -27 -13 -34 -14 -45 -2 -17 17 -26
56 -14 63 4 3 10 -2 14 -10 8 -21 55 -19 91 5 31 21 65 26 65 11z m173 -183
l29 -41 -33 7 c-47 9 -64 28 -50 55 16 29 22 27 54 -21z m4840 -14 c7 -7 -51
-115 -67 -126 -25 -17 -23 -4 7 62 30 64 44 80 60 64z m-4805 -94 c31 -12 32
-13 32 -73 0 -34 3 -72 6 -84 6 -22 3 -23 -45 -23 -53 0 -113 -19 -142 -46
-21 -19 -59 -15 -70 6 -14 28 -31 150 -25 175 4 14 21 35 39 46 27 17 43 20
102 15 39 -2 85 -10 103 -16z"/>
<path d="M6637 1653 c-50 -152 -59 -282 -22 -297 21 -8 35 53 35 149 0 44 5
111 10 150 5 38 7 71 6 73 -2 1 -15 -32 -29 -75z"/>
<path d="M6790 1473 c0 -11 -9 -47 -21 -81 -15 -45 -19 -73 -14 -100 7 -36 8
-34 31 53 26 100 29 131 14 140 -5 3 -10 -2 -10 -12z"/>
<path d="M30 1365 c0 -28 4 -35 20 -35 11 0 26 12 35 30 19 38 21 36 -20 38
-34 3 -35 1 -35 -33z"/>
<path d="M6673 1288 c-32 -36 -43 -63 -43 -109 0 -36 2 -40 16 -28 24 20 45
67 50 115 3 24 4 44 1 44 -2 0 -13 -10 -24 -22z"/>
<path d="M1022 938 c-53 -25 -79 -68 -60 -98 19 -29 73 -27 93 4 18 26 31 116
18 116 -4 -1 -27 -10 -51 -22z"/>
</g>
</svg>
