<svg width="170" height="105" viewBox="0 0 170 105" fill="none" xmlns="http://www.w3.org/2000/svg">
<path id="Vector" d="M79.0508 3.12899C79.0508 4.33599 78.9998 5.33899 78.9318 5.33899C78.8468 5.33899 78.5918 4.89699 78.3368 4.35299L77.8948 3.38399L77.8778 4.08099C77.8608 4.53999 78.0478 5.18599 78.3878 5.89999C78.7278 6.66499 78.9318 7.37899 78.9998 8.21199C79.1358 9.91198 78.8298 9.75898 78.4558 7.92299C78.0648 6.00199 77.9288 5.76399 77.6908 6.47799C77.4698 7.10699 77.4018 7.12399 76.9428 6.78399C76.7558 6.64799 76.5008 6.52899 76.3648 6.52899C76.0758 6.52899 76.2118 7.31099 76.7048 8.34799C77.0278 9.02799 77.0278 9.40198 76.7388 10.15C76.6878 10.32 76.8238 10.456 77.1638 10.575C77.6058 10.728 77.6908 10.847 77.6908 11.289V11.816L77.1978 11.476C76.9258 11.272 76.6538 11.119 76.6028 11.119C76.3988 11.119 76.5178 11.714 76.8578 12.445L77.2318 13.193L76.8748 13.533L76.5348 13.89L75.8718 13.363C75.5148 13.091 75.0388 12.649 74.8178 12.411C74.5798 12.173 74.3418 11.969 74.2568 11.969C73.9678 11.969 74.1378 13.125 74.4948 13.584C74.8178 14.009 74.8348 14.06 74.5798 14.213C74.2058 14.417 74.1888 15.199 74.5458 15.199C74.7498 15.199 75.4808 16.474 75.4808 16.814C75.4808 16.848 75.2428 16.95 74.9708 17.052C73.6788 17.494 74.3758 18.429 76.0078 18.429C76.7728 18.429 77.0108 18.48 77.0108 18.667C77.0108 18.803 76.9428 18.973 76.8408 19.024C76.7558 19.075 76.6708 19.245 76.6708 19.398C76.6708 19.602 76.7898 19.636 77.1808 19.568C77.6228 19.466 77.7078 19.517 77.7928 19.874L77.8948 20.299L78.4558 19.959C79.0678 19.585 79.2208 19.653 79.2208 20.316C79.2208 20.809 79.1188 20.877 78.0138 21.064C77.2998 21.2 76.5008 20.911 75.7188 20.248C74.8348 19.5 74.3418 19.687 74.9028 20.554C75.3448 21.234 74.9028 21.047 73.9168 20.146C73.4238 19.704 72.8458 19.279 72.6418 19.211C72.3018 19.109 72.2508 19.143 72.2508 19.534C72.2508 19.874 72.1148 20.027 71.6558 20.231C71.3328 20.35 70.9078 20.469 70.7208 20.469C69.8538 20.469 70.8568 21.642 71.8598 21.778C72.2678 21.829 72.5398 21.948 72.5058 22.067C72.4718 22.169 72.4038 22.458 72.3528 22.713C72.2508 23.172 72.2678 23.172 72.7098 23.002C72.9818 22.9 73.4068 22.628 73.6788 22.373C74.1548 21.931 74.1378 22.135 73.6618 22.713C73.4578 22.934 73.4578 23.104 73.6278 23.682C73.7468 24.073 73.8828 24.379 73.9508 24.379C74.0188 24.379 74.4268 24.107 74.8518 23.784C75.8548 23.019 75.9738 23.036 75.3278 23.852C74.6648 24.668 74.6648 24.889 75.2938 24.889C75.5998 24.889 75.8208 24.991 75.8888 25.178C75.9908 25.416 76.0588 25.382 76.3308 24.94C76.5688 24.532 76.8748 24.345 77.5888 24.141C78.1668 23.971 78.6428 23.699 78.8638 23.427C79.4078 22.747 79.2888 23.206 78.7448 23.971C78.0818 24.872 76.5348 26.249 76.1608 26.249C76.0078 26.249 75.5488 26.011 75.1748 25.739C74.2738 25.093 74.0698 25.093 74.2058 25.739C74.3418 26.334 74.3078 26.334 73.5088 25.994C72.8458 25.722 72.5908 25.773 72.5908 26.198C72.5908 26.402 72.4718 26.436 71.9958 26.368C71.4858 26.283 71.3498 26.334 71.1118 26.708C70.8398 27.116 70.8398 27.15 71.1288 27.354C71.3328 27.507 71.4008 27.694 71.3158 27.932C71.2478 28.187 71.2818 28.289 71.4518 28.289C71.5878 28.289 71.9618 28.578 72.2678 28.918C72.5738 29.275 73.0328 29.7 73.3048 29.853C73.6278 30.057 73.7808 30.295 73.7808 30.584C73.7808 31.06 73.5768 31.128 73.2708 30.754C73.0328 30.465 72.6248 30.431 71.9958 30.669C71.5708 30.822 71.5708 30.856 71.8088 31.213C71.9618 31.417 72.0808 31.893 72.0808 32.267V32.947L71.5368 32.437C70.4828 31.468 70.4488 31.468 70.5168 32.216C70.6018 32.964 70.7038 32.93 69.3268 32.624C68.6468 32.488 68.7148 32.93 69.4458 33.491C69.7688 33.729 70.0408 34.069 70.0408 34.222C70.0408 34.613 72.0978 36.126 72.3528 35.922C72.4888 35.803 72.8628 36.279 73.5938 37.452C74.1548 38.387 74.6308 39.186 74.6308 39.254C74.6308 39.441 73.0668 40.019 72.5228 40.019C72.1998 40.019 71.6898 39.832 71.3328 39.594L70.7208 39.186V39.679C70.7208 39.951 70.6358 40.223 70.5508 40.274C70.3298 40.41 69.1908 40.036 69.1908 39.832C69.1908 39.492 68.5278 39.713 67.4398 40.444C66.6748 40.971 66.3008 41.141 66.3008 40.971C66.3008 40.835 66.3858 40.665 66.4708 40.614C66.7258 40.461 66.6748 40.189 66.3858 40.189C66.2328 40.189 65.7228 40.393 65.2298 40.648C63.7338 41.447 61.4218 41.226 61.8978 40.342C62.0508 40.036 62.1018 40.036 62.5948 40.291C63.0198 40.512 63.1388 40.529 63.2578 40.325C63.3428 40.206 63.4108 40.053 63.4108 40.002C63.4108 39.951 63.6488 39.934 63.9208 39.985C64.4818 40.07 64.5158 40.002 64.2608 39.492C64.0908 39.186 64.1418 39.169 65.0598 39.152C65.6038 39.135 66.2328 39.084 66.4708 39.016C67.0998 38.846 67.0828 38.404 66.4368 38.149C66.1308 38.013 65.8418 37.894 65.8078 37.877C65.6718 37.775 66.5048 36.806 66.8108 36.704C67.2528 36.568 67.2528 36.16 66.7938 36.024C66.4368 35.905 66.4368 35.905 66.7768 35.548C67.1848 35.089 67.3208 34.698 67.1678 34.443C67.0998 34.324 66.6408 34.528 65.8928 35.004C64.7708 35.735 64.7198 35.752 64.3628 35.48L63.9718 35.191L64.3798 34.613C64.6008 34.29 64.7708 33.95 64.7708 33.865C64.7708 33.695 64.2948 33.763 63.6828 34.001C63.4788 34.069 63.4108 34.001 63.4108 33.746C63.4108 33.474 63.5468 33.355 63.9208 33.27C64.4648 33.168 64.5328 33.032 64.2608 32.522C64.1078 32.267 64.1758 32.063 64.5158 31.57C64.7538 31.213 64.9408 30.754 64.9408 30.533C64.9408 30.193 64.8728 30.159 64.5668 30.244C64.3458 30.312 64.1078 30.431 64.0058 30.516C63.7508 30.771 63.6318 30.686 63.5128 30.244C63.3258 29.513 63.0878 29.768 62.7138 31.094C62.3228 32.454 62.0508 32.726 62.0508 31.791C62.0508 31.06 62.3568 30.21 62.8328 29.564C63.2918 28.952 63.5128 28.204 63.2748 28.051C63.1728 28 62.9178 28.255 62.7138 28.629C62.4928 29.003 62.2548 29.292 62.1698 29.258C62.0678 29.224 62.0168 28.51 62.0338 27.643C62.0678 26.402 62.0168 26.079 61.8298 26.079C61.5068 26.079 61.2008 26.81 61.2008 27.575C61.2008 28.544 60.9968 28.714 60.5548 28.119C60.3338 27.847 60.0278 27.609 59.8408 27.609C59.6538 27.609 59.5008 27.643 59.5008 27.694C59.5008 27.83 60.2148 29.037 60.5378 29.462C60.9288 29.955 61.2688 31.111 61.1158 31.485C61.0478 31.689 60.8438 31.451 60.3848 30.669C59.8748 29.785 59.7558 29.632 59.7048 29.938C59.6368 30.414 59.6878 30.414 58.7358 29.955C57.8178 29.513 57.5798 29.649 58.1918 30.295C58.4468 30.567 58.6508 30.822 58.6508 30.873C58.6508 30.924 58.3958 31.128 58.1068 31.315C57.4608 31.723 57.5968 31.825 58.8888 31.893L59.7218 31.944L58.9058 32.573C58.4468 32.93 58.1238 33.219 58.1578 33.219C58.1918 33.219 58.6508 33.372 59.1608 33.559C59.6708 33.746 60.1128 33.899 60.1298 33.899C60.1638 33.899 60.1808 33.746 60.1808 33.559C60.1808 33.202 60.4528 33.117 60.8438 33.372C61.0308 33.491 61.0648 33.865 60.9798 35.191C60.9118 36.092 60.8268 36.874 60.7758 36.925C60.6738 37.027 59.8408 36.483 59.5348 36.126C59.4158 35.973 59.0418 35.293 58.7018 34.63C58.1748 33.559 58.0728 33.423 57.8008 33.559C57.6138 33.661 57.4268 33.797 57.3758 33.899C57.3248 33.984 57.0528 33.814 56.7808 33.508C56.2198 32.879 55.9478 32.998 56.2368 33.763C56.4748 34.392 56.3898 34.579 55.8288 34.579C55.2848 34.579 55.3188 34.732 55.9988 35.531L56.5768 36.194L56.0498 36.381C55.7438 36.483 55.4888 36.687 55.4548 36.823C55.3868 37.163 56.6278 37.996 57.1208 37.945C57.3928 37.911 57.5458 37.996 57.5968 38.166C57.6308 38.37 57.4438 38.489 56.8658 38.642C55.9648 38.863 55.9138 39.033 56.5938 39.441C56.8828 39.611 57.0528 39.815 57.0018 39.9C56.9508 39.985 57.0868 40.206 57.3078 40.393L57.7158 40.716L57.0528 40.444C56.0838 40.07 55.7608 40.104 55.7608 40.614C55.7608 40.971 55.5568 41.141 54.5368 41.651C53.8568 41.991 53.2618 42.297 53.2108 42.348C53.1598 42.399 53.3468 42.62 53.6188 42.858C54.0098 43.181 54.2648 43.266 54.8768 43.232C55.5568 43.181 55.6588 43.232 55.7948 43.589C56.0328 44.218 56.0498 44.218 56.8488 43.436L57.5798 42.705L57.7668 43.232C57.9878 43.861 58.3448 43.912 58.7868 43.334L59.1268 42.909L59.3648 43.283C59.5858 43.623 59.6708 43.64 59.9088 43.436C60.0618 43.317 60.2658 42.909 60.3678 42.535C60.5718 41.736 60.7418 41.753 60.5888 42.552C60.4528 43.249 59.7048 43.844 58.8378 43.997C58.1918 44.099 58.1578 44.116 58.3108 44.524C58.4638 44.898 58.4128 44.983 58.0388 45.119C57.3928 45.374 57.2228 45.34 56.3048 44.711C55.5398 44.201 55.4378 44.167 55.3698 44.456C55.3188 44.66 55.1828 44.728 54.9448 44.66C54.6728 44.592 54.5368 44.711 54.3328 45.102C54.1798 45.391 54.0268 45.629 53.9928 45.629C53.9588 45.629 53.5678 45.476 53.1258 45.272C52.4118 44.966 52.3098 44.949 52.0548 45.17C51.9018 45.323 51.4768 45.476 51.1368 45.544C50.1508 45.731 50.3888 46.462 51.4258 46.496C51.7998 46.496 51.8508 46.53 51.6298 46.632C51.3748 46.734 51.4258 46.802 51.9358 47.04C52.4288 47.278 52.5308 47.397 52.4458 47.669C52.3098 48.094 52.3778 48.094 53.2108 47.669C54.1118 47.21 54.2138 47.244 53.6358 47.839C52.9898 48.519 53.2108 48.672 54.1458 48.213C54.5708 48.009 54.9448 47.839 54.9788 47.839C55.0128 47.839 55.0978 48.111 55.1488 48.451L55.2678 49.046L55.8798 48.689C56.3558 48.417 56.5258 48.383 56.7128 48.536C56.9168 48.689 57.0358 48.655 57.3418 48.366C57.7328 48.009 58.1408 47.89 58.1408 48.128C58.1238 48.74 55.8798 50.049 54.8428 50.049C54.4348 50.049 54.0268 49.879 53.4828 49.454C52.5648 48.757 52.4968 48.74 52.6158 49.233C52.7858 49.998 52.4798 50.117 51.6808 49.624C50.9838 49.182 50.9498 49.182 51.0518 49.522C51.1368 49.845 51.0688 49.879 50.4228 49.879C49.4198 49.879 49.3518 50.032 50.1508 50.508C50.6438 50.814 50.8308 51.035 50.8308 51.341C50.8308 51.749 50.8308 51.749 51.4428 51.494C51.7828 51.358 52.0888 51.239 52.1228 51.239C52.1568 51.239 52.1908 51.562 52.1908 51.9359C52.1908 52.5479 52.2248 52.6329 52.5308 52.5479C52.7688 52.4799 52.9558 52.6159 53.2278 53.0409C53.5848 53.6189 54.2478 53.8399 54.4858 53.4319C54.5538 53.3469 54.8088 53.2959 55.0638 53.3639C55.3358 53.4149 55.6418 53.3639 55.8458 53.2109C56.1348 53.0069 56.2028 53.0069 56.3558 53.2279C56.5258 53.4489 56.6618 53.4489 57.5458 53.2109C58.1068 53.0749 58.5828 52.9729 58.6168 53.0069C58.7018 53.0919 57.3758 53.9929 56.4408 54.4859C55.4718 54.9789 53.7548 55.0299 52.9048 54.5879L52.3608 54.2819L52.4628 54.9789C52.5308 55.3529 52.5308 55.6589 52.4968 55.6589C52.4458 55.6589 51.9698 55.5059 51.4088 55.3189L50.4058 54.9619L50.1678 55.3189C50.0488 55.5059 49.7938 55.6589 49.6238 55.6589C49.0628 55.6589 49.2838 55.3019 50.0658 54.9619C50.6608 54.6899 50.8308 54.5369 50.8308 54.2139C50.8308 53.9929 51.0008 53.5339 51.2048 53.1769L51.5618 52.5649L51.1538 52.6839C50.9328 52.7519 49.8278 53.1429 48.7058 53.5509C47.6008 53.9589 46.6488 54.2479 46.6148 54.2139C46.5128 54.1119 47.0908 52.2249 47.4648 51.511C47.6688 51.12 48.0258 50.559 48.2978 50.219C48.5528 49.896 48.8248 49.386 48.8758 49.114C48.9438 48.825 49.0288 48.468 49.0798 48.298C49.1308 48.077 48.7568 48.196 47.4138 48.859C44.3708 50.338 43.7928 50.355 43.8948 48.961C43.9458 48.4 44.0138 48.264 44.3708 48.179C44.7278 48.094 44.7958 47.975 44.7958 47.397C44.7958 47.023 44.9318 46.53 45.1188 46.258C45.5268 45.646 45.7478 44.422 45.6118 43.385L45.5268 42.586L46.5128 42.297C47.0738 42.144 47.5328 41.991 47.5668 41.974C47.6008 41.94 47.4988 41.668 47.3458 41.362C47.0738 40.852 47.0738 40.818 47.3458 40.937C47.6008 41.022 47.6178 40.971 47.4988 40.58C47.2608 39.781 47.3288 38.557 47.6178 38.2C47.7708 38.03 47.8558 37.792 47.8218 37.69C47.7028 37.35 47.1588 37.707 45.9008 38.914C44.7958 39.968 43.8268 40.614 43.6228 40.41C43.5718 40.342 43.5208 39.747 43.5208 39.067V37.826L44.9658 36.687L46.4108 35.548V34.63C46.4108 34.137 46.3768 33.729 46.3258 33.729C46.2578 33.729 46.0028 33.848 45.7138 33.984C45.1018 34.307 44.9658 34.239 44.5408 33.389L44.2178 32.743L44.6258 32.471C45.1018 32.148 45.1698 31.587 44.8128 31.077C44.5748 30.771 44.5238 30.788 43.7078 31.587C43.2318 32.063 42.8238 32.403 42.7728 32.352C42.7388 32.318 42.5518 31.961 42.3648 31.587L42.0078 30.873L43.6058 28.731C44.4898 27.558 45.2208 26.572 45.2208 26.521C45.2208 26.487 44.9658 26.402 44.6428 26.351C44.1498 26.249 43.8948 26.351 42.9938 26.929C41.9738 27.575 41.9228 27.592 41.6168 27.32C41.1918 26.946 41.3108 26.266 41.9398 25.314C42.3988 24.651 42.5858 23.393 42.2798 23.087C42.2118 23.019 41.8208 23.291 41.3958 23.699C40.9708 24.107 40.5968 24.396 40.5458 24.345C40.4948 24.294 40.3588 23.801 40.2568 23.257C40.0698 22.254 40.0868 22.237 40.6478 21.421C41.1578 20.707 41.2258 20.486 41.2258 19.483C41.2258 18.854 41.3278 18.174 41.4468 17.97C41.5488 17.766 41.6508 17.307 41.6508 16.967V16.321L40.5288 17.936C39.5428 19.33 39.4238 19.466 39.5088 18.939C39.5598 18.616 39.6618 18.055 39.7128 17.715C39.7808 17.307 39.7468 16.984 39.6108 16.814C39.4238 16.593 39.4578 16.559 39.8318 16.559H40.2738L40.3248 14.689C40.3588 13.652 40.3588 12.819 40.3418 12.819C40.3078 12.819 40.0188 13.244 39.6618 13.754C38.8288 15.029 38.6418 14.791 38.9988 12.87C39.3558 10.932 39.3388 10.83 38.8628 10.711C38.3868 10.592 38.2848 10.388 38.0808 8.94299C37.8428 7.27699 37.6388 7.32799 37.5198 9.09599C37.4008 10.728 37.2308 11.119 36.7038 11.119C36.3468 11.119 36.3298 11.017 36.9078 13.363C37.0778 14.077 37.2308 14.706 37.2308 14.774C37.2308 14.825 36.8908 14.604 36.4828 14.264L35.7348 13.652L36.1428 14.978C36.5848 16.389 36.6188 17.188 36.2448 17.103C36.1088 17.086 35.6668 17.018 35.2418 16.95L34.4598 16.848L35.1908 18.208C35.8538 19.449 35.9898 20.129 35.5818 20.129C35.4968 20.129 35.0208 19.789 34.5108 19.364C33.6608 18.65 33.5758 18.616 33.5248 18.956C33.4228 19.585 33.6268 20.061 34.4428 21.047C35.2248 22.016 36.2958 24.09 36.0408 24.175C35.9728 24.209 35.2758 23.835 34.4938 23.376C33.7118 22.9 33.0488 22.543 33.0318 22.577C32.9978 22.611 33.2868 23.359 33.6608 24.226C34.0518 25.11 34.4088 25.943 34.4768 26.062C34.5448 26.232 34.3918 26.181 34.0518 25.943C33.7628 25.739 33.4908 25.569 33.4568 25.569C33.4058 25.569 33.4398 25.977 33.5078 26.453C33.7288 27.966 33.6948 28.102 33.2358 28.221C32.3858 28.425 32.3858 28.867 33.2358 30.023C33.6608 30.601 34.0008 31.145 34.0008 31.213C34.0008 31.502 33.6948 31.332 33.1678 30.737C32.8618 30.414 32.5898 30.159 32.5558 30.193C32.5218 30.227 32.5558 30.533 32.6238 30.89C32.7258 31.281 32.7088 31.519 32.6068 31.519C32.5218 31.519 31.7398 31.128 30.8728 30.669C30.0058 30.193 29.2068 29.819 29.1218 29.819C28.8668 29.819 29.2408 31.4 29.7168 32.386C30.1758 33.338 32.2838 35.259 32.8618 35.259C33.1678 35.259 33.3378 35.412 33.5928 35.956C33.8988 36.636 33.8988 36.67 33.5758 36.891C33.1678 37.197 32.5558 37.197 31.0938 36.857C30.4478 36.704 29.8528 36.619 29.7678 36.653C29.6828 36.687 30.1758 37.996 30.8728 39.577C31.5698 41.158 32.0968 42.501 32.0458 42.535C31.9948 42.586 31.0938 42.348 30.0398 42.008C28.9688 41.651 28.0168 41.379 27.9148 41.379C27.6938 41.379 27.6768 41.889 27.8638 42.569C27.9488 42.875 28.1018 42.994 28.3908 42.994C28.6968 42.994 28.8328 43.147 29.0538 43.759C29.2068 44.184 29.6828 44.898 30.1248 45.357C30.8388 46.105 30.9748 46.173 31.4848 46.071C31.7908 46.02 32.1478 46.037 32.2668 46.105C32.5048 46.275 32.8618 47.346 32.7088 47.482C32.6578 47.533 32.0628 47.584 31.3998 47.567C30.4988 47.567 29.8868 47.431 29.0538 47.108C27.6258 46.513 27.5238 46.53 27.7108 47.159C27.9658 48.06 28.4248 48.638 29.3768 49.267C30.0908 49.743 30.2438 49.896 30.0228 49.981C29.4278 50.202 27.4558 49.93 26.4528 49.471C25.8918 49.233 25.4328 49.046 25.3988 49.08C25.3648 49.097 25.6538 49.828 26.0448 50.695L26.7418 52.2759L26.2318 52.9049C25.0248 54.4009 23.1038 55.0469 22.2708 54.2139L21.9308 53.8739L23.2908 52.8539C24.5828 51.868 24.8378 51.545 24.4808 51.324C24.2598 51.188 24.2598 50.117 24.4978 49.675C24.8378 49.046 24.9398 48.434 24.8038 48.043C24.6508 47.652 24.6168 47.686 23.7668 48.638C22.2028 50.389 21.2168 51.239 20.7408 51.239C20.3498 51.239 20.3668 51.188 21.1318 50.542C22.3728 49.471 23.9708 46.887 24.3618 45.323C24.4808 44.813 24.3788 44.847 23.4778 45.595C23.0528 45.952 22.3898 46.445 22.0158 46.7C21.2848 47.176 19.8908 47.499 19.8908 47.193C19.8908 47.091 20.5368 46.258 21.3188 45.34C22.1008 44.422 22.7468 43.589 22.7468 43.504C22.7298 43.266 22.4238 43.334 20.5708 44.014C19.6868 44.337 18.9388 44.575 18.9048 44.541C18.8878 44.507 18.9048 44.269 18.9728 44.014C19.0748 43.572 19.1088 43.555 19.9588 43.657L20.8258 43.776L20.7748 42.994C20.6898 42.11 21.0638 41.379 21.5738 41.379C21.7778 41.379 21.9648 41.192 22.0838 40.852C22.3388 40.121 22.1858 39.985 21.4548 40.291C21.1148 40.444 20.7238 40.597 20.6048 40.648C20.2138 40.818 20.4008 40.41 21.3528 39.101C21.8628 38.37 22.2708 37.707 22.2368 37.622C22.2028 37.537 21.4038 37.928 20.4348 38.489C18.6328 39.526 18.3608 39.645 18.3608 39.339C18.3608 39.237 18.9728 38.013 19.7038 36.619C20.4348 35.208 21.0128 34.069 20.9618 34.069C20.9108 34.069 20.2648 34.494 19.5168 35.021C18.7858 35.548 18.1228 35.939 18.0718 35.888C17.8848 35.684 18.2588 34.698 18.8878 33.78C19.4998 32.862 19.7038 32.369 19.4488 32.369C19.3808 32.369 18.8878 32.777 18.3098 33.253C17.6298 33.865 17.1708 34.137 16.9158 34.103C16.2528 34.018 16.2528 34.545 16.9158 34.868C17.2388 35.021 17.5108 35.208 17.5108 35.259C17.5108 35.327 17.1368 35.701 16.6608 36.092C15.8958 36.738 15.8108 36.874 15.8108 37.486C15.8108 37.86 15.9298 38.387 16.0658 38.642C16.3038 39.101 16.2868 39.152 15.8618 39.577C15.1988 40.24 15.0118 40.172 13.9578 38.829L13.6178 38.404L13.7878 39.169C14.0428 40.342 14.6548 41.515 15.6918 42.892C16.2358 43.589 16.6608 44.218 16.6608 44.286C16.6608 44.643 16.2528 44.524 15.1138 43.827C14.4168 43.385 13.7708 43.011 13.6688 42.96C13.5668 42.926 13.7538 43.419 14.0768 44.082C14.5698 45.068 14.6378 45.357 14.5358 45.935C14.3318 47.125 14.1788 47.227 13.1078 46.734C12.5978 46.496 12.1728 46.326 12.1558 46.343C12.1388 46.377 12.0028 46.751 11.8328 47.176C11.6288 47.737 11.3908 48.043 10.9658 48.281C10.6428 48.451 10.4218 48.638 10.4728 48.689C10.5238 48.74 11.1868 48.808 11.9518 48.859C12.7338 48.91 13.3288 49.012 13.3288 49.114C13.3118 49.199 12.6488 49.675 11.8328 50.151C10.1498 51.137 9.89482 51.341 10.1158 51.562C10.2178 51.664 10.8638 51.528 11.7308 51.222C13.6858 50.542 13.6178 50.542 13.8558 51.358C13.9748 51.749 14.2468 52.3439 14.4508 52.6839C14.6718 53.0409 14.7738 53.3639 14.6888 53.4489C14.6038 53.5339 13.8558 53.3809 12.9548 53.0919C11.3568 52.5649 10.9488 52.5479 10.7788 53.0239C10.5068 53.7039 10.8468 54.0269 12.6828 54.8769C14.4848 55.7269 14.4848 55.7269 14.1108 56.0329C13.2098 56.7639 12.4448 56.4069 9.94582 54.0779C9.19782 53.3639 8.56882 52.8199 8.53482 52.8369C8.51782 52.8709 8.58582 53.4659 8.70482 54.1969C8.90882 55.5739 8.87482 55.5399 9.80982 55.1999C9.94582 55.1489 10.0308 55.2509 10.0308 55.4549C10.0308 55.6419 10.0818 56.0329 10.1328 56.3219L10.2518 56.8489H9.19782C8.63682 56.8489 8.16082 56.8829 8.16082 56.9169C8.16082 57.0359 9.33382 59.0589 9.72482 59.6029C10.0308 60.0619 10.0648 60.0619 10.4728 59.8069C10.8808 59.5179 10.8808 59.5179 10.7108 59.9769C10.4728 60.6059 10.4898 60.6739 10.8128 60.4019C11.0508 60.2149 11.1188 60.2319 11.3228 60.5039C11.6968 60.9969 11.6118 61.1669 10.9318 61.4219C9.84382 61.7959 9.09582 61.8299 8.61982 61.5239C8.38182 61.3709 7.99082 61.2179 7.73582 61.2009C7.08982 61.1159 7.20882 61.6089 7.99082 62.1529C8.56882 62.5609 8.65382 62.6969 8.75582 63.5129C8.82382 64.0229 8.84082 64.6179 8.80682 64.8729L8.75582 65.3149L7.76982 64.7369C7.22582 64.4139 6.74982 64.1589 6.71582 64.1589C6.66482 64.1589 6.63082 64.3969 6.63082 64.6689C6.63082 65.3489 7.05582 66.3519 7.58282 66.8959L8.00782 67.3379L7.53182 67.4569C4.94782 68.0519 4.25082 68.3069 4.25082 68.6129C4.25082 68.7829 4.09782 69.2249 3.91082 69.5989L3.57082 70.2619L4.04682 70.5509C4.65882 70.9079 5.57682 72.2339 5.71282 72.9989L5.83182 73.5769L4.91382 72.9139C4.40382 72.5569 3.74082 72.0639 3.41782 71.8259L2.83982 71.4009L2.94182 71.8939C3.00982 72.1829 3.09482 72.6929 3.16282 73.0499C3.23082 73.5089 3.34982 73.6789 3.50282 73.6109C3.65582 73.5599 3.74082 73.6449 3.74082 73.8489C3.74082 74.0189 3.80882 74.2059 3.87682 74.2569C3.96182 74.3079 4.23382 74.6479 4.50582 75.0389L4.98182 75.7359L4.42082 76.3139C3.75782 76.9939 3.33282 77.0619 2.77182 76.5349L2.38082 76.1779V76.5859C2.38082 77.3339 2.58482 77.7589 2.97582 77.8609C3.19682 77.9119 3.58782 78.3199 3.89382 78.7959C4.30182 79.4419 4.77782 79.8669 6.18882 80.7679C7.17482 81.4139 7.97382 81.9749 7.97382 82.0259C8.00782 82.2299 7.10682 82.5189 6.47782 82.5189C6.12082 82.5189 5.28782 82.3319 4.62482 82.0939C3.38382 81.6689 2.38082 81.5499 2.38082 81.8219C2.38082 81.9069 2.68682 82.1959 3.06082 82.4679C3.43482 82.7229 3.74082 82.9949 3.74082 83.0629C3.74082 83.1309 3.46882 83.2669 3.14582 83.3859C2.82282 83.5049 2.55082 83.6579 2.55082 83.7089C2.55082 83.7599 2.82282 84.0659 3.14582 84.3889L3.74082 84.9669L3.14582 85.2729C2.05782 85.8339 2.51682 86.0379 3.96182 85.6469C4.35282 85.5279 4.33582 85.8679 3.92782 86.0039C3.36682 86.1739 2.72082 86.7859 2.72082 87.1259C2.72082 87.9419 3.65582 89.1659 4.93082 90.0329C5.35582 90.3049 5.35582 90.3049 5.01582 90.5769C4.09782 91.2909 3.40082 91.1379 2.07482 89.9139C0.561825 88.5199 0.408825 88.6559 1.03783 90.9339C1.27582 91.8349 1.32682 92.2939 1.20782 92.4299C1.08883 92.5999 1.41182 92.9739 2.48282 93.8919C3.28182 94.5719 4.04682 95.1499 4.21682 95.1669C4.38682 95.1839 4.55682 94.9799 4.67582 94.6229C4.89682 93.9769 5.10082 94.0789 5.10082 94.8439C5.10082 95.4729 4.65882 95.9489 4.06382 95.9659C3.50282 95.9829 2.95882 96.2039 3.16282 96.3399C3.26482 96.3909 4.59082 96.5269 6.13782 96.6289C7.66782 96.7309 9.23182 96.8669 9.58882 96.9349L10.2518 97.0539L8.61982 98.0739C6.88582 99.1449 6.85182 99.2469 8.12682 99.4509C8.73882 99.5529 8.82382 99.5189 8.87482 99.1789C8.92582 98.8559 9.07882 98.9239 10.5238 100.012L12.1218 101.202L12.7338 100.93C15.9298 99.5359 16.8988 99.3829 17.3238 100.267C17.4598 100.556 17.5788 101.61 17.6468 102.851L17.7318 104.959H18.4968H19.2618L19.1598 104.33C19.0918 103.973 19.0068 102.766 18.9388 101.661C18.8368 99.8419 18.8538 99.6209 19.1088 99.4169C19.3298 99.2639 19.5508 99.2469 19.8228 99.3489C20.4348 99.5869 20.7238 99.3999 20.9278 98.6179L21.1148 97.9209L21.4718 98.4139C21.6758 98.7029 22.0838 99.1789 22.3728 99.4849C22.8148 99.9269 22.9848 100.012 23.3078 99.8929C23.9198 99.6549 23.8858 99.3829 23.2228 99.0599C22.5428 98.7369 22.5088 98.6859 22.8318 98.2609C23.0528 97.9719 23.1038 97.9889 23.9198 98.5669C24.3958 98.9069 24.8208 99.1789 24.8888 99.1789C25.1268 99.1789 24.9738 98.7029 24.7018 98.5839C24.4638 98.4819 24.5318 98.4139 25.0418 98.2609L25.6878 98.0569L25.3478 97.6319L25.0078 97.1899L26.2318 97.0879C27.2348 97.0029 27.4898 96.9179 27.7448 96.5949L28.0338 96.2039L29.8188 97.0879L31.6038 97.9719L33.8648 97.1389C35.1058 96.6799 36.1938 96.2889 36.2788 96.2889C36.3638 96.2889 36.3978 97.4449 36.3468 98.8389C36.2788 101.321 36.2618 101.406 35.8368 101.831C35.5818 102.086 34.9358 102.409 34.3238 102.579L33.2358 102.902L37.9108 102.885C42.0078 102.885 42.5008 102.851 41.9058 102.664C41.5318 102.528 41.0218 102.426 40.7838 102.426C40.5288 102.409 40.1548 102.256 39.9338 102.086C39.5598 101.78 39.5258 101.627 39.4408 99.1619C39.3898 97.7169 39.3558 96.5099 39.3898 96.4759C39.4068 96.4419 39.9168 96.3569 40.4948 96.3059L41.5658 96.2039L41.7528 96.7989C41.8548 97.1219 42.0248 97.3769 42.1268 97.3429C42.2458 97.3259 42.4328 97.2919 42.5518 97.2579C42.6538 97.2409 42.7728 97.4279 42.8068 97.6829C42.8578 98.0909 42.7898 98.1419 41.9228 98.3459C40.8348 98.5839 40.7158 98.7709 41.5658 98.9409C42.1608 99.0429 42.3478 99.2639 41.9568 99.3829C41.8548 99.4169 41.8208 99.5359 41.8718 99.6379C41.9568 99.7739 42.2628 99.6889 42.8408 99.4169C43.8608 98.9239 44.0818 98.9069 43.5548 99.3489L43.1468 99.6889L43.5888 99.8589C43.9798 100.012 44.0138 100.08 43.8608 100.386C43.5548 100.93 43.8098 100.998 44.5408 100.573C45.2038 100.199 45.2038 100.199 45.3908 100.539C45.6458 101.015 45.8838 100.964 46.6318 100.25L47.2778 99.6039L47.2268 100.369C47.1758 101.134 47.1758 101.134 47.7368 101.134C48.0428 101.134 48.3488 101.236 48.4168 101.338C48.5188 101.491 48.6378 101.457 48.8418 101.202C49.0458 100.981 49.2498 100.896 49.4708 100.964C49.6918 101.032 49.8788 100.947 50.0658 100.641C50.3038 100.284 50.4058 100.25 50.6608 100.403C50.8988 100.556 51.0858 100.556 51.3918 100.42C51.8508 100.199 52.0208 100.369 52.0208 101.066C52.0208 101.389 52.1228 101.406 53.1768 101.372C53.8228 101.355 54.4348 101.389 54.5368 101.457C54.8938 101.678 56.5088 101.185 57.0018 100.692C57.2738 100.42 57.5458 100.233 57.6138 100.267C57.6818 100.318 57.8858 100.114 58.0558 99.8419C58.2428 99.5699 58.4638 99.3489 58.5488 99.3489C58.6338 99.3489 58.6508 99.8929 58.5828 100.573C58.5148 101.253 58.4468 102.035 58.4298 102.324L58.3958 102.834L60.5718 102.885C62.6968 102.936 62.7478 102.919 62.5778 102.596C62.3738 102.222 61.9828 100.386 61.8128 99.0599C61.7108 98.1929 61.7108 98.1589 62.2208 97.9039C62.7138 97.6489 62.7308 97.6489 62.7308 98.0059C62.7308 98.2099 63.0538 98.6859 63.4278 99.0769C64.0738 99.7059 64.1588 99.7399 64.2608 99.4509C64.3458 99.1619 64.4308 99.2299 64.7878 99.8759C65.0088 100.284 65.3488 100.641 65.5358 100.675C65.7058 100.726 66.1478 100.93 66.5048 101.151C66.8618 101.372 67.3378 101.559 67.5588 101.559C67.7968 101.559 68.0348 101.627 68.0858 101.729C68.2558 102.001 68.4768 101.933 68.5788 101.593C68.7148 101.185 69.3948 101.202 69.8538 101.627C70.2108 101.95 70.2108 101.95 70.2108 101.593C70.2108 101.406 70.3128 101.219 70.4318 101.168C70.7888 101.049 71.2308 101.372 71.2308 101.78C71.2308 102.137 71.2478 102.137 71.6388 101.695C72.1148 101.134 72.3018 101.1 72.7778 101.576C73.1008 101.899 73.1518 101.899 73.4238 101.661C73.5938 101.508 73.8828 101.389 74.0698 101.389C74.2568 101.389 74.5798 101.202 74.8008 100.964C75.0218 100.726 75.3278 100.539 75.4978 100.539C75.8548 100.539 75.9738 100.386 76.4498 99.1789C76.6878 98.5839 76.8238 98.3799 76.8238 98.6179C76.8408 99.0939 77.0278 99.1109 77.4358 98.6689C77.6058 98.4819 77.7928 98.3799 77.8608 98.4139C77.9288 98.4649 77.9798 98.3629 77.9628 98.2099C77.9628 98.0399 78.1158 97.8869 78.3708 97.8189C78.6598 97.7509 78.7278 97.6829 78.5748 97.5809C78.4728 97.5129 78.3708 97.3089 78.3708 97.1389C78.3708 96.8839 78.4558 96.8499 78.8468 96.9519C79.1018 97.0199 79.3058 97.1559 79.3058 97.2409C79.2548 98.9919 78.7788 102.324 78.4558 103.123C78.3368 103.412 78.4898 103.429 80.1898 103.429C82.6208 103.429 82.7398 103.361 82.4678 101.865C82.3658 101.27 82.2808 100.233 82.2808 99.5869L82.2978 98.4139L82.7228 99.0939C82.9438 99.4679 83.2158 99.7569 83.3008 99.7399C83.3858 99.7059 83.4878 99.8419 83.5558 100.012C83.7088 100.505 84.3548 100.998 85.2388 101.287C85.8678 101.508 86.1058 101.525 86.2078 101.372C86.2928 101.236 86.6838 101.202 87.4488 101.253L88.5708 101.355V100.59C88.5708 99.9269 88.6048 99.8419 88.8768 99.9439C89.4888 100.199 89.7608 100.233 89.7608 100.046C89.7608 99.6549 90.2368 99.8759 90.4408 100.369C90.6108 100.777 90.7298 100.862 91.0358 100.777C91.3418 100.709 91.4608 100.76 91.5458 101.032C91.6818 101.491 91.9028 101.491 92.0218 101.015C92.1238 100.658 92.1408 100.658 92.4468 100.93C92.9398 101.389 93.2288 100.93 93.0928 99.9439C92.9568 99.0769 93.1268 98.9579 93.5348 99.6549C93.6878 99.9099 93.9598 100.267 94.1468 100.437C94.4868 100.726 94.5038 100.726 94.7078 100.335C94.8098 100.114 94.9288 99.9099 94.9628 99.8759C94.9968 99.8419 95.3368 100.029 95.7108 100.284C96.3908 100.76 96.4078 100.777 96.3058 101.542C96.1528 102.698 96.1528 102.698 95.1158 102.936C94.5888 103.055 94.1298 103.208 94.0788 103.293C94.0278 103.361 95.6088 103.429 97.5978 103.429C99.5868 103.429 101.151 103.361 101.049 103.293C100.964 103.208 100.573 103.055 100.165 102.936C99.0768 102.63 98.9068 102.239 98.8048 99.8759C98.7368 98.2269 98.7708 97.8529 98.9748 97.7849C99.1108 97.7169 99.9438 97.9889 100.828 98.3459C101.712 98.7199 102.511 98.9919 102.596 98.9749C102.698 98.9409 103.327 98.6179 104.007 98.2439C105.146 97.6319 105.231 97.5299 105.231 97.0199C105.231 96.4759 105.435 96.2889 105.656 96.6289C105.707 96.7309 106.166 96.7989 106.659 96.7989C107.526 96.7989 107.577 96.8159 107.662 97.3089C107.747 97.6999 107.866 97.8189 108.155 97.8189C108.376 97.8189 108.835 97.9039 109.192 98.0059C109.838 98.1759 109.838 98.1929 109.549 98.5159C109.022 99.1109 109.447 99.0599 110.297 98.4479C110.926 97.9719 111.164 97.8699 111.317 98.0229C111.64 98.3459 111.555 98.5669 111.011 98.8899C110.433 99.2299 110.382 99.3829 110.756 99.6889C111.147 100.012 111.555 99.7569 112.269 98.7199L112.949 97.7509L113.102 98.3459C113.306 99.1789 113.578 99.3999 114.122 99.1959C114.513 99.0429 114.615 99.0769 114.853 99.4339C115.091 99.7909 115.091 100.097 114.938 101.882C114.649 105.061 114.632 104.959 115.414 104.959H116.06L116.145 102.664C116.264 99.8589 116.451 99.4339 117.488 99.5699C117.862 99.6209 118.848 99.9779 119.664 100.369L121.177 101.083L122.214 100.216C123.183 99.4169 123.999 99.0089 124.203 99.2299C124.254 99.2639 123.999 99.4509 123.642 99.6379C122.758 100.097 122.69 100.539 123.489 100.539C124.169 100.539 124.203 100.607 123.846 101.219C123.404 102.001 123.54 102.103 124.424 101.661L125.257 101.236L125.07 101.831C124.917 102.341 124.934 102.46 125.257 102.783C125.546 103.072 125.665 103.106 125.852 102.936C126.056 102.783 126.124 102.8 126.209 103.021C126.294 103.259 126.379 103.242 126.889 102.936C127.62 102.477 127.637 102.477 127.705 103.123L127.756 103.684L128.3 102.936L128.844 102.188L128.946 102.681C129.167 103.65 129.184 103.667 129.541 103.344C129.711 103.191 129.949 103.106 130.051 103.174C130.17 103.242 130.493 103.072 130.782 102.8C131.088 102.511 131.445 102.239 131.598 102.188C131.768 102.137 132.023 101.695 132.193 101.185C132.414 100.522 132.516 100.369 132.601 100.607C132.686 100.879 132.771 100.845 133.247 100.301C133.57 99.9269 133.825 99.3999 133.893 99.0089C133.995 98.3459 133.995 98.3459 134.42 98.6179C134.828 98.8899 134.845 98.9409 134.743 100.182C134.59 102.018 134.318 103.939 134.131 104.5L133.978 104.976L135.797 104.925L137.616 104.874L137.599 104.194C137.599 103.82 137.531 102.851 137.446 102.018C137.31 100.471 137.463 100.08 137.871 101.049C137.99 101.321 138.177 101.559 138.279 101.559C138.381 101.559 138.585 101.78 138.755 102.052C139.044 102.562 139.639 102.953 140.472 103.157C140.761 103.225 140.931 103.191 140.931 103.072C140.931 102.936 141.22 102.902 141.934 102.987C142.869 103.089 142.937 103.072 143.039 102.715C143.09 102.494 143.141 102.137 143.141 101.916C143.141 101.508 143.141 101.508 143.498 101.831C143.838 102.137 143.872 102.137 144.076 101.848C144.365 101.457 144.433 101.474 144.671 102.069C144.824 102.46 144.96 102.562 145.198 102.494C145.402 102.426 145.572 102.511 145.708 102.766C145.878 103.106 145.912 103.106 146.065 102.868C146.184 102.647 146.286 102.613 146.541 102.749C146.983 102.987 147.204 102.545 147.102 101.695C147.051 101.338 147.051 101.049 147.085 101.049C147.136 101.049 147.374 101.355 147.629 101.729C148.156 102.528 148.36 102.579 148.581 101.967L148.751 101.525L149.278 101.967C149.754 102.375 150.111 102.528 150.111 102.324C150.111 102.29 150.026 102.069 149.924 101.831C149.754 101.457 149.771 101.355 150.094 101.1L150.485 100.794L150.128 100.471C149.924 100.284 149.771 100.063 149.771 99.9609C149.771 99.8759 150.111 100.114 150.502 100.505L151.25 101.236L152.474 100.522C153.137 100.148 153.987 99.7909 154.344 99.7399C155.279 99.6039 155.432 99.9609 155.517 102.698L155.602 104.959H156.163C156.843 104.959 156.826 105.044 156.571 102.103C156.469 101.049 156.452 99.9949 156.503 99.7569C156.605 99.3829 156.69 99.3319 157.234 99.3829C157.829 99.4339 157.846 99.4169 158.033 98.6689L158.22 97.9209L158.662 98.6859C158.917 99.1109 159.257 99.5869 159.427 99.7399C159.699 99.9949 159.767 99.9949 160.073 99.7739C160.379 99.5189 160.379 99.5019 159.903 99.1109C159.546 98.8049 159.461 98.6179 159.546 98.3459C159.699 97.8699 159.801 97.8869 160.481 98.5839C161.059 99.1789 161.603 99.2469 161.059 98.6519C160.787 98.3459 160.787 98.3289 161.297 98.2269L161.841 98.1249L161.501 97.6489L161.161 97.1729L162.113 97.1049C162.929 97.0369 163.116 96.9519 163.49 96.4929C163.745 96.1529 164.068 95.9489 164.289 95.9489C164.51 95.9489 164.935 95.8979 165.224 95.8469C165.666 95.7449 165.751 95.6599 165.751 95.2349C165.751 94.8779 165.904 94.6059 166.278 94.2829C166.584 94.0449 167.026 93.3649 167.298 92.7869C167.638 92.0219 167.91 91.6479 168.284 91.4439C168.76 91.2059 169.321 90.4239 169.321 89.9989C169.321 89.8969 168.641 89.8289 167.451 89.8289H165.564L165.955 89.3189C166.227 88.9449 166.465 88.8089 166.856 88.8089C167.315 88.8089 167.451 88.6899 167.995 87.7379C168.862 86.2419 169.1 85.7489 169.236 85.0859L169.355 84.5079L168.709 85.0349C167.74 85.7999 167.23 85.8849 166.703 85.3409C166.04 84.6949 166.142 84.5249 167.094 84.6609C167.876 84.7629 167.927 84.7459 167.859 84.4399C167.808 84.2529 167.995 83.0119 168.284 81.7029C168.573 80.3939 168.811 79.2719 168.811 79.2379C168.811 79.1869 168.216 79.7649 167.502 80.4959C166.788 81.2439 166.057 81.8389 165.887 81.8389C165.513 81.8389 165.479 81.5669 165.836 81.4309C165.972 81.3799 166.091 81.1589 166.091 80.9209C166.091 80.6489 166.176 80.5299 166.38 80.5469C166.55 80.5639 166.703 80.3769 166.805 80.0369C166.873 79.7479 167.06 79.4079 167.196 79.2889C167.332 79.1699 167.451 78.9489 167.451 78.7789C167.451 78.5919 167.621 78.4389 167.893 78.3709C168.182 78.2859 168.42 78.0309 168.624 77.5719C168.913 76.9429 168.913 76.8069 168.709 76.1099C168.403 75.1069 168.403 74.3249 168.709 73.5939C168.913 73.1179 168.913 72.9989 168.743 72.9989C168.386 72.9989 167.74 73.6959 166.822 75.0389C166.346 75.7359 165.785 76.4669 165.581 76.6539L165.19 76.9939L165.309 76.4839C165.479 75.8379 165.479 75.3789 165.343 74.9539C165.241 74.6819 165.326 74.5459 165.666 74.3589C165.904 74.2399 166.142 73.9339 166.193 73.6959C166.414 72.7269 166.465 72.6419 166.72 72.7439C166.958 72.8289 166.975 72.7099 166.89 71.9619C166.805 71.3499 166.856 70.9419 167.043 70.5849C167.179 70.3129 167.281 69.9389 167.247 69.7519C167.213 69.4799 166.907 69.7009 165.615 70.8739C164.748 71.6729 163.966 72.3189 163.881 72.3189C163.796 72.3189 163.592 72.1319 163.439 71.8939C163.184 71.4859 163.201 71.4519 164.544 69.8539C165.921 68.2219 166.176 67.6949 166.38 66.1649C166.431 65.7059 166.584 65.2639 166.703 65.1619C166.839 65.0599 166.941 64.8559 166.941 64.7199C166.941 64.3289 166.329 64.7539 164.544 66.3859C162.062 68.6639 161.705 68.3579 163.456 65.4339C164.238 64.1419 164.578 63.2409 164.646 62.3739C164.646 62.2719 164.816 61.8809 165.037 61.4899C165.717 60.1979 165.496 60.1469 164.221 61.2859C161.705 63.5639 160.923 63.6659 160.702 61.8129C160.617 61.0819 160.651 60.9459 160.991 60.7079C161.365 60.4529 161.399 60.1299 161.144 59.2459C161.093 59.0759 161.416 58.9059 162.147 58.6679C163.371 58.2599 163.558 57.8689 162.504 57.8689H161.807L162.147 57.3079C162.521 56.7129 163.201 53.9249 163.201 53.0409C163.201 52.5309 162.946 52.0889 162.657 52.0889C162.589 52.0889 162.521 52.1909 162.521 52.2929C162.504 52.7179 161.348 54.0779 160.77 54.3499C160.005 54.7239 159.75 54.7069 159.274 54.3159L158.866 53.9759L159.954 52.8879C161.025 51.8 161.025 51.783 160.821 51.205C160.651 50.729 160.651 50.474 160.889 49.675C161.178 48.689 161.229 47.975 161.059 47.788C160.991 47.737 160.532 48.264 160.022 48.995C158.815 50.695 158.288 51.239 157.88 51.239C157.608 51.239 157.659 51.12 158.22 50.508C158.577 50.117 159.121 49.369 159.41 48.859C159.92 47.975 160.821 45.561 160.821 45.102C160.821 44.983 160.311 45.391 159.665 46.003C158.611 47.023 157.591 47.567 157.302 47.261C157.251 47.21 157.761 46.326 158.441 45.289C159.121 44.252 159.648 43.368 159.597 43.317C159.546 43.266 158.832 43.538 158.016 43.929C157.2 44.303 156.503 44.609 156.469 44.609C156.452 44.609 156.486 44.405 156.554 44.133C156.673 43.725 156.758 43.674 157.302 43.708L157.931 43.742V42.824C157.931 41.991 157.982 41.855 158.424 41.532C158.934 41.158 159.223 40.495 159.036 40.172C158.968 40.07 158.696 40.138 158.373 40.359C158.067 40.546 157.778 40.648 157.727 40.597C157.659 40.546 157.965 39.9 158.39 39.152C158.798 38.404 159.121 37.724 159.087 37.639C159.053 37.554 158.424 37.945 157.693 38.506C156.367 39.492 156.061 39.645 156.061 39.356C156.061 39.271 156.469 38.217 156.979 37.01C158.322 33.763 158.322 33.848 157.013 34.987C155.908 35.973 155.891 35.973 155.891 35.497C155.891 35.242 156.163 34.46 156.503 33.78C156.843 33.083 157.081 32.488 157.03 32.42C156.979 32.369 156.571 32.726 156.129 33.202C155.704 33.678 155.211 34.069 155.041 34.069C154.548 34.069 154.497 34.545 154.956 34.851C155.517 35.208 155.5 35.327 154.786 36.075C154.072 36.84 153.919 37.486 154.259 38.438C154.514 39.135 154.497 39.186 154.106 39.628C153.732 40.087 153.698 40.087 153.375 39.798C153.188 39.628 152.916 39.237 152.763 38.948C152.559 38.523 152.491 38.489 152.491 38.744C152.491 39.577 153.069 41.226 153.868 42.62C155.007 44.575 154.922 44.813 153.511 43.759C152.899 43.3 152.389 42.96 152.355 42.994C152.321 43.028 152.457 43.351 152.644 43.725C153.12 44.643 153.239 45.578 153.018 46.445L152.814 47.159L152.066 46.717C151.488 46.394 151.284 46.326 151.233 46.513C151.182 46.632 151.063 47.023 150.961 47.38C150.842 47.737 150.57 48.145 150.349 48.281C149.754 48.672 149.992 48.859 151.131 48.859C151.675 48.859 152.168 48.927 152.219 49.012C152.27 49.08 151.692 49.624 150.944 50.219C150.026 50.916 149.635 51.341 149.737 51.443C149.941 51.647 150.944 51.358 151.76 50.865L152.321 50.525L152.491 50.984C152.576 51.222 152.661 51.494 152.661 51.579C152.661 51.664 152.814 52.0719 153.001 52.5139C153.188 52.9559 153.307 53.3809 153.256 53.4489C153.205 53.5339 152.593 53.3469 151.879 53.0579C150.621 52.5309 150.587 52.5309 150.349 52.8539C149.822 53.5679 149.992 53.8399 151.692 54.8769C152.406 55.3189 153.001 55.7609 153.001 55.8459C153.001 56.0669 152.406 56.3389 151.93 56.3389C151.607 56.3389 151.199 55.9649 150.196 54.7579C148.275 52.4969 148.377 52.5819 148.479 53.2789C148.53 53.6019 148.615 54.2309 148.666 54.6729C148.768 55.4209 148.785 55.4719 149.159 55.3189C149.516 55.1829 149.567 55.2339 149.669 55.6929C149.89 56.7639 149.839 56.8489 149.006 56.8489C148.581 56.8489 148.241 56.9169 148.241 57.0019C148.241 57.0869 148.547 57.8179 148.921 58.6339C149.499 59.8919 149.635 60.0789 149.856 59.9089C150.06 59.7389 150.111 59.7559 150.111 60.0449C150.111 60.2829 150.196 60.3849 150.349 60.3169C150.502 60.2659 150.621 60.3849 150.689 60.6909C150.757 60.9289 150.791 61.1499 150.757 61.1669C150.723 61.1669 150.451 61.3199 150.145 61.4729C149.465 61.8469 148.87 61.8639 148.598 61.5409C148.496 61.4049 148.207 61.2689 147.986 61.2179C147.476 61.1329 147.408 61.5069 147.833 61.9659C148.088 62.2549 148.071 62.2889 147.459 62.5439C145.98 63.1729 145.385 63.0709 145.096 62.1359C144.977 61.7449 144.994 61.7279 145.674 61.8469C146.439 61.9659 146.473 61.8979 146.116 61.2689C145.793 60.6909 145.793 60.6399 146.286 60.5209C146.643 60.4359 146.694 60.3509 146.558 60.1129C146.439 59.9089 146.473 59.7389 146.643 59.5519C146.847 59.3139 146.728 59.2969 145.385 59.3649C144.008 59.4329 142.852 59.2629 142.325 58.9229C142.155 58.8039 142.138 58.6849 142.308 58.3279C142.512 57.9029 142.529 57.8859 142.818 58.1409C143.09 58.3789 143.209 58.3959 143.634 58.2259C143.906 58.1069 144.297 57.8519 144.501 57.6649L144.875 57.3249L144.399 56.8319C144.144 56.5599 143.957 56.3049 144.008 56.2709C144.042 56.2369 144.399 56.2539 144.807 56.3389C145.504 56.4579 145.521 56.4579 145.521 55.9819C145.521 55.5399 145.895 54.9789 146.201 54.9789C146.269 54.9789 146.524 54.6559 146.762 54.2479L147.187 53.5339L146.83 53.1259C146.269 52.5139 145.487 52.2419 144.858 52.4289C144.246 52.5989 144.246 52.5819 144.603 51.902C144.858 51.392 144.858 51.375 144.518 51.494C144.229 51.579 144.161 51.528 144.161 51.239C144.161 50.899 144.127 50.899 143.532 51.392C142.801 52.0039 141.883 52.0889 140.88 51.664C140.251 51.409 139.979 51.052 139.741 50.202L139.605 49.726L140.132 50.066C140.812 50.474 141.016 50.474 141.424 50.066C141.764 49.726 141.764 49.726 142.189 50.066L142.614 50.389L142.665 50.015C142.716 49.675 142.818 49.624 143.702 49.573C144.229 49.539 144.671 49.488 144.671 49.454C144.671 49.42 144.603 49.199 144.501 48.961C144.365 48.604 144.399 48.502 144.688 48.349C144.909 48.213 144.994 48.06 144.926 47.839C144.858 47.635 144.994 47.329 145.3 46.955C146.32 45.765 146.32 45.867 145.368 45.374C144.756 45.068 144.501 44.847 144.501 44.609C144.501 44.269 144.467 44.286 143.651 44.694C143.192 44.932 142.75 45.119 142.665 45.119C142.58 45.119 142.563 44.745 142.631 44.286L142.733 43.453L142.138 43.861C141.016 44.609 139.962 44.354 138.432 42.926C137.395 41.957 137.276 41.634 138.092 41.957C139.265 42.45 139.401 42.45 139.401 42.042V41.668L139.843 42.076C140.166 42.348 140.319 42.416 140.37 42.263C140.421 42.11 140.574 42.144 140.88 42.399C141.39 42.807 141.509 42.739 141.968 41.855C142.189 41.413 142.393 41.209 142.563 41.277C142.75 41.345 142.801 41.192 142.801 40.529C142.801 39.611 142.971 39.492 143.617 39.951C143.974 40.206 143.991 40.189 143.991 39.713C143.991 39.407 144.161 39.067 144.501 38.744C145.198 38.081 145.164 37.809 144.399 37.809C143.821 37.809 143.787 37.775 143.872 37.367L143.957 36.925L143.396 37.469C142.699 38.149 142.393 38.013 142.512 37.095L142.597 36.415L141.798 37.282C141.356 37.758 140.846 38.149 140.659 38.149C139.996 38.149 138.534 37.061 138.109 36.228C137.735 35.531 138.007 35.293 138.483 35.871C138.823 36.279 138.908 36.33 139.044 36.109C139.197 35.905 139.299 35.939 139.707 36.33C139.962 36.585 140.234 36.789 140.302 36.789C140.37 36.789 140.421 36.449 140.421 36.024C140.421 35.599 140.472 35.259 140.523 35.259C140.574 35.259 140.88 35.463 141.203 35.701C141.968 36.279 142.138 36.092 141.628 35.225C141.237 34.528 141.305 34.528 142.155 35.157C142.699 35.548 142.92 35.446 142.631 34.936C142.529 34.732 142.512 34.579 142.58 34.579C142.648 34.579 142.903 34.426 143.141 34.239C143.498 33.95 143.532 33.882 143.311 33.729C143.107 33.593 143.158 33.559 143.532 33.559C143.872 33.559 144.059 33.44 144.195 33.117C144.416 32.641 144.212 32.369 143.6 32.369C143.413 32.369 143.141 32.199 142.988 32.012L142.699 31.638L141.985 32.097L141.288 32.539L141.084 31.859C140.914 31.332 140.812 31.196 140.574 31.264C140.37 31.332 140.251 31.247 140.166 31.009C140.064 30.686 140.013 30.703 139.384 31.349C138.687 32.063 138.415 32.148 137.888 31.825C137.633 31.672 137.582 31.502 137.65 31.06C137.735 30.533 137.701 30.499 137.208 30.397C136.494 30.244 135.831 29.445 135.848 28.748L135.865 28.204L135.984 28.714C136.052 28.986 136.205 29.411 136.341 29.632L136.562 30.057L136.8 29.581L137.055 29.105L137.378 29.632C137.803 30.346 138.007 30.295 138.143 29.462C138.279 28.68 138.381 28.731 139.078 29.921L139.537 30.72L139.741 30.023C139.945 29.377 139.996 29.343 140.489 29.428C141.05 29.513 141.951 28.986 141.951 28.544C141.951 28.425 141.458 27.932 140.863 27.439C139.979 26.725 139.809 26.504 139.877 26.164C139.979 25.62 139.537 25.45 138.976 25.807C138.483 26.13 138.228 26.164 138.517 25.875C138.636 25.756 138.721 25.501 138.721 25.28C138.721 25.059 138.891 24.787 139.146 24.617C139.741 24.226 139.673 23.937 138.976 23.699C138.279 23.461 138.143 23.308 138.296 22.832C138.398 22.543 138.449 22.526 138.67 22.713C138.891 22.9 139.027 22.815 139.588 22.186C140.132 21.591 140.217 21.387 140.064 21.132C139.979 20.962 139.792 20.809 139.656 20.809C139.197 20.809 139.214 20.452 139.741 19.534L140.285 18.599L139.741 18.48C139.282 18.395 139.214 18.327 139.316 18.021C139.384 17.817 139.469 17.409 139.52 17.103C139.588 16.661 139.554 16.576 139.333 16.661C139.197 16.712 138.976 17.018 138.857 17.341L138.653 17.919L138.296 17.46C137.871 16.933 137.871 16.933 137.361 18.599C137.157 19.296 136.885 20.061 136.766 20.299C136.494 20.809 135.882 21.489 135.678 21.489C135.474 21.489 135.338 17.596 135.508 17.103C135.695 16.61 135.967 16.627 136.103 17.137L136.205 17.562L136.953 17.188C137.361 17.001 137.701 16.746 137.701 16.644C137.701 16.542 137.497 16.27 137.259 16.032C137.021 15.811 136.749 15.471 136.647 15.301C136.477 14.995 136.528 14.995 137.157 15.08C137.65 15.165 137.888 15.131 138.041 14.944C138.211 14.723 138.177 14.621 137.803 14.264C137.276 13.771 137.276 13.703 137.701 13.159C138.024 12.751 138.143 12.309 137.939 12.309C137.888 12.309 137.616 12.462 137.344 12.666C136.817 13.04 136.511 12.972 136.494 12.513C136.494 12.36 136.256 12.802 135.984 13.499C135.695 14.196 135.423 14.808 135.372 14.859C135.083 15.114 135.542 12.717 135.967 11.714C136.732 9.92898 136.766 9.75898 136.392 9.75898C136.188 9.75898 135.95 9.99698 135.746 10.388L135.423 11.034L135.304 9.60598C135.219 8.68799 135.083 8.07599 134.913 7.90599C134.658 7.66799 134.641 7.83799 134.641 9.60598C134.641 10.694 134.59 11.629 134.522 11.697C134.437 11.765 134.182 11.374 133.927 10.83L133.485 9.84398L133.468 10.575C133.451 11.051 133.604 11.612 133.91 12.19C134.25 12.87 134.369 13.38 134.42 14.434C134.488 16.015 134.301 15.777 133.961 13.873C133.706 12.496 133.502 12.19 133.349 12.972C133.23 13.55 133.094 13.618 132.771 13.244C132.448 12.853 132.091 12.938 132.091 13.397C132.091 13.618 132.244 14.145 132.431 14.587C132.72 15.233 132.754 15.471 132.618 15.998C132.516 16.338 132.465 16.627 132.482 16.644C132.499 16.644 132.72 16.746 132.992 16.865C133.315 17.001 133.451 17.188 133.451 17.494C133.451 18.004 133.383 18.021 132.805 17.562C132.397 17.256 132.346 17.239 132.295 17.477C132.261 17.647 132.397 18.089 132.584 18.48C132.907 19.109 132.907 19.211 132.686 19.568C132.533 19.789 132.363 19.959 132.312 19.959C132.244 19.959 131.751 19.517 131.207 18.99L130.221 18.021V18.582C130.221 18.888 130.357 19.364 130.527 19.653C130.799 20.129 130.799 20.163 130.527 20.316C130.119 20.537 130.136 20.911 130.561 21.2C130.833 21.387 131.411 22.441 131.411 22.747C131.411 22.781 131.224 22.866 131.003 22.917C130.51 23.036 130.272 23.614 130.561 23.954C130.68 24.09 131.156 24.209 131.717 24.243C132.703 24.294 132.754 24.345 132.584 25.059C132.533 25.246 132.652 25.297 132.992 25.28C133.366 25.263 133.451 25.314 133.451 25.671C133.451 26.164 133.536 26.181 134.097 25.722L134.556 25.382L134.709 25.841C134.913 26.453 134.505 26.759 133.468 26.759C132.72 26.759 132.482 26.657 131.36 25.858C130.782 25.433 130.476 25.62 130.833 26.181C131.343 26.946 130.901 26.844 130 25.96C128.861 24.872 128.521 24.736 128.521 25.382C128.521 25.807 128.436 25.892 127.722 26.079C127.263 26.198 126.872 26.334 126.838 26.368C126.787 26.402 126.974 26.657 127.246 26.929C127.569 27.269 127.909 27.439 128.232 27.439C128.725 27.439 128.725 27.456 128.623 28.102L128.521 28.782L129.031 28.595C129.32 28.51 129.626 28.272 129.728 28.102C129.813 27.932 129.983 27.779 130.085 27.779C130.187 27.779 130.119 27.949 129.915 28.17C129.473 28.646 129.473 28.646 129.796 29.428L130.051 30.023L130.799 29.411C131.768 28.612 131.904 28.629 131.241 29.479C130.663 30.21 130.697 30.55 131.343 30.397C131.666 30.312 131.751 30.363 131.751 30.601C131.751 30.873 131.853 30.822 132.227 30.397C132.482 30.108 133.009 29.768 133.417 29.649C133.825 29.513 134.267 29.258 134.403 29.071C134.573 28.833 134.641 28.799 134.641 28.969C134.641 29.105 134.131 29.785 133.519 30.448C132.244 31.859 131.955 31.944 131.071 31.179C130.289 30.533 130.153 30.55 130.289 31.264L130.408 31.876L129.728 31.519C128.895 31.094 128.861 31.094 128.861 31.519C128.861 31.808 128.742 31.859 128.198 31.859C127.654 31.859 127.501 31.927 127.416 32.216C127.331 32.471 127.382 32.641 127.552 32.743C127.705 32.828 127.79 32.998 127.739 33.134C127.671 33.287 128.062 33.78 128.759 34.46C129.371 35.055 129.881 35.667 129.881 35.82C129.881 36.16 129.728 36.177 129.32 35.854C129.082 35.684 128.878 35.667 128.504 35.803C127.926 36.007 127.926 36.041 128.283 36.755C128.436 37.078 128.504 37.452 128.436 37.656C128.317 37.996 128.283 37.979 127.654 37.367L126.991 36.721V37.35V37.979L126.226 37.86C125.291 37.741 125.24 37.962 126.056 38.608C126.379 38.863 126.651 39.203 126.651 39.356C126.651 39.747 128.555 41.192 128.657 40.886C128.691 40.767 129.031 41.175 129.405 41.821C129.779 42.467 130.238 43.232 130.408 43.538L130.748 44.082L130.068 44.439C129.133 44.915 128.334 44.881 127.688 44.354L127.178 43.912L127.127 44.473C127.076 45 127.042 45.034 126.447 44.983C126.107 44.966 125.784 45.017 125.716 45.119C125.614 45.289 126.413 46.938 126.77 47.244C126.872 47.329 126.991 47.567 127.025 47.754C127.059 47.958 127.229 48.111 127.45 48.145C127.654 48.179 127.875 48.349 127.926 48.536C127.994 48.74 128.181 48.859 128.453 48.859C129.031 48.859 128.963 49.114 128.283 49.437C127.671 49.726 127.28 49.675 126.77 49.216C126.481 48.978 126.43 48.978 126.226 49.25C126.124 49.403 125.818 49.539 125.563 49.539C125.036 49.539 125.019 49.658 125.444 50.117C125.614 50.321 125.835 50.695 125.92 50.984C126.022 51.29 126.209 51.511 126.43 51.545C126.617 51.579 127.025 51.9359 127.314 52.3609C127.62 52.7689 127.977 53.1089 128.096 53.1089C128.232 53.1089 128.538 52.8029 128.776 52.4289C129.218 51.715 129.541 51.596 129.864 51.9869C130.017 52.1739 129.966 52.2419 129.558 52.3099C129.082 52.4119 129.082 52.4289 129.252 53.0919C129.405 53.6699 129.388 53.8229 129.15 54.0949C128.674 54.6219 127.314 55.2679 126.43 55.4039C125.75 55.4889 125.58 55.5909 125.444 55.9649C125.24 56.4749 125.002 56.6789 124.56 56.6789C124.288 56.6789 124.288 56.6449 124.526 56.1689L124.798 55.6589H123.829H122.877L122.996 54.7579C123.064 54.2819 123.132 53.8569 123.166 53.8229C123.183 53.8059 123.404 53.8569 123.642 53.9419C124.135 54.1289 124.186 54.0269 124.373 52.3439L124.475 51.324L122.673 53.1599C121.092 54.7579 120.786 54.9789 120.293 54.9789C119.97 54.9789 119.545 54.8429 119.358 54.6729C118.984 54.3839 119.001 54.3669 120.701 53.4659L122.418 52.5649L122.367 51.9359C122.299 51.137 121.942 51.086 120.344 51.664C118.763 52.2249 118.559 52.1569 119.069 51.205C119.29 50.797 119.528 50.185 119.579 49.828C119.647 49.488 119.783 49.199 119.885 49.199C119.987 49.199 120.548 49.386 121.109 49.607C123.438 50.542 123.642 50.134 121.551 48.706C120.718 48.128 120.021 47.584 120.021 47.482C120.021 47.397 120.463 47.312 121.007 47.312C121.891 47.295 123.285 47.057 122.792 47.006C122.316 46.955 121.534 46.071 121.364 45.357L121.177 44.609L120.344 45.068C119.324 45.612 119.154 45.51 119.035 44.201C118.984 43.453 119.052 43.096 119.409 42.297C119.647 41.77 119.834 41.294 119.8 41.277C119.766 41.243 119.188 41.6 118.508 42.076C116.859 43.249 116.638 43.028 117.777 41.362C118.236 40.665 118.78 39.781 118.984 39.39C119.341 38.676 119.953 36.432 119.698 36.721C119.63 36.806 119.375 37.163 119.103 37.503C118.593 38.217 118.185 38.319 117.726 37.809C117.505 37.571 117.471 37.35 117.556 37.01C117.624 36.755 117.709 36.194 117.76 35.786C117.845 35.089 117.811 35.004 117.029 34.205C116.128 33.304 116.145 33.287 117.097 32.726C117.42 32.539 117.148 31.995 116.791 32.114C116.57 32.182 116.162 31.927 115.448 31.247C114.224 30.125 114.071 30.363 115.006 31.876C115.618 32.879 115.941 33.899 115.652 33.899C115.55 33.899 114.972 33.508 114.343 33.032C113.714 32.556 113.17 32.199 113.136 32.233C113.102 32.267 113.459 33.083 113.935 34.069C115.125 36.602 115.482 37.418 115.414 37.622C115.38 37.724 114.581 37.316 113.646 36.704C112.711 36.109 111.929 35.684 111.895 35.752C111.861 35.837 112.235 36.5 112.711 37.231C113.17 37.979 113.561 38.676 113.561 38.778C113.561 38.931 113.323 38.88 112.796 38.625C112.388 38.421 111.997 38.285 111.963 38.336C111.759 38.523 112.167 39.441 112.541 39.628C113.102 39.9 113.221 40.172 113.221 41.158V42.059L114.02 42.008C114.751 41.974 114.819 42.008 114.938 42.45C115.091 43.011 115.091 43.011 112.915 42.127C112.15 41.804 111.487 41.549 111.436 41.549C111.181 41.549 111.504 42.076 112.796 43.759L114.241 45.629H113.595C112.847 45.629 111.81 45.017 110.756 43.946C110.399 43.555 110.042 43.249 109.974 43.249C109.736 43.249 110.348 45.017 111.062 46.394C111.47 47.176 112.167 48.162 112.711 48.723C113.391 49.42 113.578 49.726 113.408 49.794C113.017 49.947 112.439 49.454 111.079 47.754C110.365 46.87 109.719 46.19 109.634 46.241C109.379 46.394 109.464 47.193 109.804 48.179C110.093 49.012 110.11 49.165 109.889 49.675L109.651 50.253L110.535 51.052C111.011 51.477 111.538 51.9359 111.725 52.0549C112.541 52.6329 111.419 53.4149 110.246 53.0919C109.566 52.9049 108.07 51.511 107.866 50.882C107.73 50.457 107.424 50.542 107.118 51.103C106.897 51.477 106.931 51.732 107.424 53.5169C107.713 54.6219 108.121 55.7269 108.308 55.9819L108.665 56.4239L108.002 56.4749C107.645 56.5089 106.88 56.7129 106.302 56.9509C105.265 57.3589 103.973 57.4949 103.803 57.2229C103.752 57.1379 104.041 56.8489 104.449 56.5599C104.976 56.1859 105.282 55.8119 105.486 55.2509C105.656 54.8089 105.741 54.4179 105.69 54.3669C105.639 54.3159 105.384 54.3839 105.112 54.5199C104.245 54.9789 102.698 55.3529 102.171 55.2339C101.61 55.1149 101.559 54.8939 101.865 54.2139C102.035 53.8399 102.137 53.7889 102.545 53.8909C102.97 53.9759 103.14 53.8909 103.684 53.3129C104.058 52.9219 104.415 52.3269 104.551 51.851C104.721 51.205 104.823 51.086 105.078 51.154C105.316 51.239 105.418 51.154 105.503 50.78C105.554 50.525 105.639 50.168 105.69 49.998C105.724 49.845 105.724 49.709 105.673 49.709C105.622 49.709 104.806 49.981 103.854 50.304C102.409 50.797 102.154 50.848 102.239 50.593C102.307 50.44 102.749 49.284 103.225 48.043C103.701 46.802 104.058 45.748 104.007 45.714C103.956 45.663 103.395 45.748 102.749 45.884C101.576 46.173 100.811 46.054 100.811 45.629C100.811 45.238 101.338 44.456 101.542 44.524C101.797 44.609 102.018 44.439 103.14 43.232C104.024 42.263 104.653 40.818 104.517 40.019C104.466 39.713 104.347 39.747 103.191 40.444C102.494 40.869 101.848 41.209 101.78 41.209C101.712 41.209 101.695 40.92 101.746 40.563L101.848 39.934L101.338 40.512C100.573 41.379 100.522 41.039 101.236 39.951C101.916 38.948 101.916 38.523 101.304 38.37C100.964 38.268 100.947 38.2 101.049 37.197C101.168 36.109 101.049 35.871 100.641 36.364C100.233 36.857 100.301 36.517 100.896 35.004C101.219 34.171 101.457 33.474 101.44 33.44C101.406 33.423 101.117 33.576 100.794 33.78C100.471 34.001 99.9268 34.341 99.5868 34.562L98.9578 34.936L99.0938 34.46C99.2978 33.729 99.9438 32.539 100.505 31.842C100.981 31.247 101.355 29.989 101.032 29.989C100.947 29.989 100.624 30.261 100.301 30.584C99.7228 31.179 99.3828 31.315 99.1958 31.009C99.1448 30.924 99.3828 30.312 99.7058 29.632L100.335 28.425L99.5528 28.527L98.7708 28.646V28.068C98.7708 27.745 98.8898 27.116 99.0258 26.657C99.1618 26.198 99.2808 25.79 99.2808 25.756C99.2808 25.705 99.0088 25.943 98.6688 26.266C98.0908 26.81 98.0738 26.827 98.1588 26.419C98.2098 26.181 98.3798 25.501 98.5158 24.889C98.7878 23.682 98.8388 23.24 98.6518 23.41C98.6008 23.478 98.3968 23.41 98.2268 23.24C97.9888 23.019 97.9208 22.713 97.9208 21.71C97.9208 21.03 97.8528 20.469 97.7678 20.469C97.5638 20.469 97.4108 21.081 97.4108 21.948C97.4108 22.509 97.3258 22.73 96.9518 23.002L96.5098 23.359L96.7308 24.821C96.8498 25.62 96.8838 26.317 96.8328 26.368C96.7138 26.487 96.7308 26.521 96.1698 25.654L95.7108 24.974V26.64C95.7108 28.255 95.7278 28.306 96.0678 28.204C96.3908 28.102 96.4078 28.119 96.2208 28.459C96.0678 28.748 96.0678 29.02 96.2208 29.666C96.3398 30.142 96.4078 30.55 96.3568 30.584C96.3228 30.618 95.9488 30.074 95.5068 29.36C94.8608 28.289 94.7078 28.136 94.6058 28.425C94.5548 28.629 94.6228 29.003 94.7758 29.309C94.9628 29.666 95.0138 30.023 94.9288 30.431C94.8098 31.077 95.2008 32.352 95.6428 32.709C95.9318 32.964 95.9488 33.406 95.6938 34.307L95.5068 34.953L94.9458 34.409C94.6398 34.103 94.2998 33.916 94.1978 33.967C93.8748 34.171 94.0108 35.14 94.4358 35.854C94.9118 36.619 94.9798 37.333 94.6228 37.622C94.4358 37.775 94.2148 37.69 93.5858 37.197C92.8888 36.67 92.7018 36.602 92.2938 36.721L91.8008 36.874L93.0758 38.761L94.3678 40.631L94.0958 41.26C93.8068 41.974 93.7048 41.957 92.9228 41.073C92.4808 40.58 92.3958 40.529 92.2258 40.75C92.0558 40.988 91.9368 40.971 91.1548 40.614C90.5088 40.308 90.2708 40.104 90.2708 39.849C90.2708 39.424 90.3388 39.424 89.1828 39.934C88.6558 40.172 88.1798 40.359 88.1118 40.359C88.0608 40.359 88.0608 39.968 88.0948 39.509C88.1458 39.033 88.1458 38.659 88.1118 38.659C88.0778 38.659 87.8398 38.812 87.5678 39.016C86.8368 39.56 85.8508 39.628 84.9668 39.186C84.2188 38.812 82.2808 37.214 82.2808 36.959C82.2808 36.874 82.7058 36.959 83.2328 37.129C84.2358 37.486 84.4908 37.452 84.4908 37.01C84.4908 36.772 84.5588 36.789 84.8818 37.095C85.3068 37.486 85.6808 37.588 85.6808 37.299C85.6808 37.197 85.9018 37.282 86.1738 37.486C86.4458 37.69 86.7518 37.792 86.8538 37.724C87.1428 37.554 87.7208 36.347 87.5848 36.211C87.5338 36.143 87.6868 36.16 87.9418 36.262L88.4008 36.449V35.514C88.4008 34.511 88.4348 34.46 89.0808 34.834C89.6928 35.174 89.7608 35.157 89.6588 34.613C89.5738 34.222 89.6758 34.069 90.2538 33.593C90.6448 33.287 90.9168 32.964 90.8658 32.862C90.7978 32.777 90.4578 32.709 90.0668 32.709C89.4208 32.709 89.3868 32.692 89.4888 32.284C89.6248 31.723 89.4718 31.74 88.7918 32.403C88.3158 32.879 88.1968 32.913 88.0438 32.709C87.9588 32.573 87.9078 32.199 87.9588 31.876L88.0438 31.315L87.1258 32.182C86.6158 32.658 86.0548 33.049 85.8508 33.049C85.0008 33.049 82.7908 31.196 82.7908 30.482C82.7908 30.006 83.0118 30.091 83.4708 30.703C83.8448 31.196 83.8788 31.213 84.0828 30.924C84.3038 30.618 84.3548 30.635 84.9158 31.179L85.5108 31.757V31.077C85.5108 30.04 85.6808 29.921 86.3948 30.414C87.0068 30.839 87.3808 30.941 87.3808 30.72C87.3808 30.669 87.1768 30.278 86.9388 29.853L86.4968 29.088L87.2618 29.632C88.1968 30.261 88.2988 30.278 88.1628 29.751C88.0778 29.411 88.1628 29.258 88.5708 28.969C88.9958 28.663 89.0468 28.544 88.8938 28.357C88.7408 28.17 88.7748 28.119 89.1318 28.119C89.5228 28.119 90.1008 27.592 90.1008 27.235C90.1008 27.167 89.7948 27.048 89.4208 26.997C88.9958 26.929 88.6558 26.759 88.5538 26.572C88.3328 26.147 88.0948 26.164 87.3468 26.674C87.0068 26.912 86.6838 27.099 86.6498 27.099C86.6158 27.099 86.4968 26.793 86.3778 26.402C86.1908 25.79 86.1228 25.722 85.7488 25.807C85.4258 25.892 85.3408 25.858 85.3408 25.569C85.3408 25.093 85.2218 25.127 84.3888 25.909C83.9808 26.283 83.5048 26.589 83.3518 26.589C82.7908 26.572 82.4338 26.164 82.4848 25.569C82.5358 25.059 82.4848 24.991 81.8728 24.821C81.0228 24.583 80.5638 23.954 80.4788 22.917L80.4278 22.084L80.5808 22.849C80.7508 23.665 81.0738 24.379 81.2608 24.379C81.3288 24.379 81.4648 24.175 81.5838 23.92L81.7878 23.478L82.1108 24.005C82.5698 24.77 82.9098 24.702 83.0798 23.818L83.2328 23.104L83.8958 24.09C84.2528 24.617 84.5928 25.025 84.6438 24.957C84.6948 24.906 84.8308 24.617 84.9328 24.328C85.1028 23.835 85.1708 23.784 85.7488 23.835C86.2758 23.886 86.4968 23.801 86.8878 23.427C87.1598 23.172 87.3808 22.9 87.3808 22.815C87.3808 22.747 86.8538 22.288 86.1908 21.795C85.2048 21.064 85.0008 20.826 85.0008 20.418C85.0008 19.772 84.6608 19.704 83.7768 20.146L83.0458 20.503L83.4368 20.095C83.6408 19.874 83.8108 19.568 83.8108 19.432C83.8108 19.279 83.9978 18.99 84.2358 18.769C84.8478 18.208 84.7628 17.987 83.8788 17.749C83.2498 17.562 83.1308 17.46 83.1648 17.171C83.1988 16.899 83.3178 16.814 83.6748 16.848C84.0148 16.865 84.2868 16.695 84.7288 16.202C85.0688 15.845 85.3408 15.471 85.3408 15.386C85.3408 15.131 84.8308 14.689 84.5588 14.689C84.2018 14.689 84.2698 14.451 84.8478 13.499C85.3918 12.632 85.3748 12.309 84.8308 12.309C84.3718 12.309 84.3208 12.156 84.5758 11.204C84.6948 10.728 84.7628 10.337 84.7458 10.303C84.5928 10.116 83.9808 10.677 83.8108 11.153L83.6238 11.714L83.2158 11.204C82.9098 10.83 82.7908 10.762 82.7228 10.949C82.6718 11.085 82.4338 11.765 82.1958 12.462C81.7028 13.924 81.0398 15.114 80.5808 15.369C80.1898 15.573 80.1388 15.352 79.9858 12.802C79.8668 11.034 79.8838 10.983 80.2748 10.711C80.6658 10.439 80.6658 10.439 80.7168 10.949L80.7678 11.459L81.6518 11.017C82.1448 10.762 82.5698 10.541 82.6038 10.507C82.6548 10.456 82.4168 10.15 82.0938 9.79298C80.9548 8.56899 80.9548 8.58599 81.9918 8.68799C83.1648 8.80699 83.3518 8.56899 82.6548 7.83799L82.1448 7.29399L82.5528 6.69899C83.1988 5.78099 83.0628 5.61099 82.1618 6.18899L81.3458 6.68199L81.2948 6.13799C81.2438 5.64499 81.1758 5.74699 80.6318 7.03899C80.3088 7.83799 80.0028 8.51799 79.9518 8.56899C79.9008 8.61999 79.9008 8.19499 79.9348 7.63399C79.9858 6.93699 80.2408 6.08699 80.7168 4.96499C81.1078 4.06399 81.4308 3.26499 81.4308 3.21399C81.4308 3.14599 81.2608 3.12899 81.0568 3.16299C80.8528 3.19699 80.5808 3.43499 80.4278 3.75799C80.2748 4.06399 80.1048 4.31899 80.0538 4.31899C79.9858 4.31899 79.9008 3.75799 79.8668 3.07799C79.7818 1.88799 79.4758 0.918992 79.1868 0.918992C79.1188 0.918992 79.0508 1.90499 79.0508 3.12899ZM78.8808 11.629C79.0848 12.36 79.1018 12.938 78.9148 12.717C78.7788 12.581 78.5238 11.782 78.2688 10.694C78.1838 10.354 78.1838 10.354 78.4558 10.694C78.5918 10.864 78.7958 11.289 78.8808 11.629ZM78.1498 14.264C78.4898 14.502 78.9998 15.641 78.8468 15.794C78.7788 15.879 77.5208 14.264 77.5208 14.094C77.5208 13.941 77.7758 14.009 78.1498 14.264ZM81.4988 17.426C80.6998 18.242 80.4788 18.378 80.3598 18.157C80.1388 17.766 80.3428 17.409 80.8188 17.409C81.1078 17.409 81.4138 17.188 81.7878 16.712C82.1108 16.304 82.3828 16.083 82.4168 16.219C82.4508 16.321 82.0428 16.882 81.4988 17.426ZM134.216 17.256C134.369 17.528 134.471 18.055 134.437 18.395C134.386 18.973 134.369 18.939 134.114 17.868C133.961 17.239 133.859 16.729 133.893 16.729C133.927 16.729 134.08 16.967 134.216 17.256ZM133.859 20.452C134.148 20.758 134.556 21.897 134.335 21.761C134.267 21.727 133.961 21.336 133.655 20.911C133.281 20.384 133.162 20.129 133.332 20.129C133.468 20.129 133.689 20.265 133.859 20.452ZM137.531 22.237C137.531 22.509 136.052 24.209 135.814 24.209C135.729 24.209 135.661 24.022 135.661 23.784C135.661 23.444 135.746 23.359 136.086 23.359C136.392 23.359 136.647 23.172 136.987 22.679C137.497 21.931 137.531 21.914 137.531 22.237ZM36.2788 26.861C36.8398 27.133 37.2308 27.694 37.2308 28.204C37.2308 28.595 37.0438 28.51 36.1768 27.694C35.0378 26.657 35.0888 26.3 36.2788 26.861ZM75.4638 31.349C75.5318 31.349 75.7358 31.196 75.9058 31.009C76.1778 30.703 76.2458 30.686 76.3648 30.924C76.4838 31.128 76.6028 31.145 76.8578 31.009C77.2148 30.805 77.2998 31.043 76.9768 31.315C76.7048 31.536 74.6648 31.944 74.5118 31.808C74.4608 31.74 74.3588 31.4 74.2908 31.026L74.1718 30.329L74.7498 30.839C75.0558 31.128 75.3788 31.349 75.4638 31.349ZM62.5608 34.086C62.1018 35.225 61.9828 35.361 62.1018 34.545C62.1868 33.95 62.6968 32.964 62.8498 33.1C62.8838 33.151 62.7478 33.593 62.5608 34.086ZM131.462 36.449C131.632 36.449 131.802 36.33 131.853 36.194C131.989 35.854 132.261 35.871 132.261 36.211C132.261 36.449 132.312 36.449 132.516 36.279C132.669 36.16 132.822 36.109 132.89 36.177C133.094 36.381 132.652 36.636 131.7 36.857C130.612 37.112 130.51 37.061 130.306 36.109L130.187 35.514L130.68 35.973C130.952 36.245 131.309 36.449 131.462 36.449ZM63.0708 36.534C62.4758 37.146 62.2208 37.265 62.2208 36.959C62.2208 36.67 63.0368 35.939 63.3598 35.939C63.5808 35.939 63.5128 36.075 63.0708 36.534ZM99.6208 37.078C99.6208 37.231 98.3968 38.489 98.2438 38.489C97.9888 38.489 98.3458 37.605 98.7368 37.299C99.1618 36.959 99.6208 36.84 99.6208 37.078ZM60.2318 38.455C60.5208 38.421 60.6228 38.506 60.6568 38.812L60.7248 39.237L60.2318 38.914C58.9908 38.115 58.4808 37.707 58.4808 37.486C58.4808 37.367 58.7868 37.537 59.1778 37.877C59.6198 38.285 59.9938 38.489 60.2318 38.455ZM42.8578 38.54C41.7698 40.121 41.3618 40.546 41.1578 40.291C40.8178 39.883 41.2768 39.033 42.2118 38.319C42.6878 37.962 43.1468 37.707 43.2148 37.741C43.2998 37.792 43.1298 38.149 42.8578 38.54ZM92.1918 41.923L92.6168 42.297L92.2938 42.943C91.9708 43.589 91.9538 43.589 91.4608 43.334L90.9508 43.062V43.912C90.9508 44.728 90.9678 44.779 92.0558 45.714L93.1608 46.683V47.873V49.063L92.6338 48.655C92.3448 48.434 91.6308 47.822 91.0188 47.278L89.9138 46.292L89.3698 46.751C88.2648 47.686 87.4658 47.788 86.0548 47.21C85.4768 46.972 84.8308 46.105 84.8308 45.578C84.8308 45.289 84.8648 45.289 85.2048 45.527C85.7318 45.901 86.4628 45.867 86.8368 45.459L87.1598 45.119L87.4658 45.459C87.8738 45.901 88.0268 45.884 88.1628 45.374C88.2648 44.983 88.3328 44.949 89.3528 44.949H90.4408L90.2538 44.507C90.1178 44.133 90.1518 43.997 90.4238 43.725C90.6108 43.555 90.7298 43.3 90.6788 43.164C90.5938 42.977 91.4438 41.719 91.7498 41.566C91.7668 41.549 91.9708 41.719 92.1918 41.923ZM69.9048 42.144C70.0068 42.382 70.1938 42.569 70.3128 42.569C70.4318 42.569 70.5508 42.773 70.5848 43.028C70.6188 43.402 70.7378 43.521 71.0778 43.555C71.3668 43.589 71.5708 43.742 71.6218 43.946C71.6728 44.167 71.8598 44.269 72.1488 44.269C72.7438 44.269 72.7098 44.541 72.0808 44.864C71.4008 45.221 70.9588 45.187 70.3638 44.745C69.8538 44.354 69.8368 44.354 69.5988 44.694C69.3438 45.017 68.8508 45.068 68.6808 44.762C68.6298 44.694 68.2218 44.728 67.7798 44.864L66.9808 45.102L67.0828 44.694C67.2188 44.184 67.0828 44.167 66.1308 44.626C65.7228 44.83 65.2128 44.983 64.9918 44.983C64.5838 44.983 62.6968 43.708 62.1358 43.062L61.7958 42.671L62.2548 42.96C62.5098 43.113 63.1218 43.334 63.5978 43.436C64.0908 43.538 64.6518 43.81 64.8728 44.014C65.1958 44.337 65.2808 44.354 65.3658 44.15C65.4338 43.963 65.6038 43.912 65.9608 43.997C66.6578 44.133 66.6408 43.742 65.9268 43.181C65.2128 42.62 65.3998 42.62 66.4708 43.164C66.9298 43.402 67.3548 43.589 67.3888 43.589C67.4398 43.589 67.5928 43.368 67.7288 43.113C67.9668 42.654 67.9498 42.603 67.6098 42.229C67.2528 41.855 67.4908 41.906 68.0008 42.314C68.2218 42.501 69.1908 42.773 69.1908 42.637C69.1908 42.62 69.1228 42.399 69.0208 42.161C68.8678 41.753 68.9018 41.719 69.2758 41.719C69.5648 41.719 69.7688 41.855 69.9048 42.144ZM95.0818 48.264C95.2518 49.182 94.8778 49.046 94.1298 47.924C93.6878 47.278 93.3818 46.7 93.4328 46.615C93.5688 46.394 94.9798 47.822 95.0818 48.264ZM69.9558 47.159C70.1598 47.159 70.5168 47.465 70.8738 47.924C71.1798 48.349 71.5708 48.689 71.7408 48.689C71.9108 48.689 72.3018 48.383 72.5908 48.009C73.1688 47.278 73.4408 47.176 73.7808 47.584C73.9508 47.788 73.9338 47.839 73.6788 47.839C73.0158 47.839 72.8798 48.077 73.1008 48.757C73.3728 49.573 73.1688 49.811 72.1488 49.862C71.7068 49.879 71.2648 49.913 71.1628 49.93C71.0608 49.947 70.9928 49.76 71.0268 49.471C71.0778 48.978 71.0778 48.978 70.6528 49.25C69.2078 50.185 69.3608 50.151 69.3608 49.573C69.3608 49.301 69.4798 48.978 69.6158 48.859C69.7518 48.74 69.8708 48.587 69.8708 48.502C69.8708 48.281 68.3408 48.111 68.1198 48.332C67.8478 48.604 67.6608 48.553 67.6608 48.196C67.6608 48.009 67.8648 47.805 68.1538 47.669C68.4258 47.567 68.7828 47.312 68.9528 47.142C69.1568 46.921 69.3098 46.87 69.4288 46.989C69.5138 47.074 69.7518 47.159 69.9558 47.159ZM90.1348 48.213C90.0158 48.332 89.9308 48.349 89.9308 48.247C89.9308 48.009 90.1348 47.805 90.2538 47.924C90.2878 47.975 90.2368 48.111 90.1348 48.213ZM67.1508 48.366C67.1508 48.893 66.7768 49.199 66.1648 49.182C65.2638 49.165 64.0398 48.808 63.9548 48.553C63.9038 48.366 63.9378 48.366 64.2438 48.553C64.5498 48.74 64.6348 48.74 64.7538 48.536C64.8728 48.349 64.9748 48.366 65.3148 48.587C65.7568 48.876 66.4708 48.757 66.7258 48.366C66.8618 48.128 67.1508 48.128 67.1508 48.366ZM91.6478 53.2789C91.7498 53.7039 91.9198 54.1629 92.0558 54.2989C92.4638 54.7579 92.0898 55.2509 91.2398 55.3699C90.1858 55.5229 87.5508 55.0639 87.5508 54.7409C87.5508 54.6899 87.6358 54.4689 87.7378 54.2309C87.9248 53.8229 87.9588 53.8229 88.3498 54.0949C88.7578 54.3499 88.8258 54.3329 89.5738 53.9589C89.9988 53.7209 90.4068 53.4659 90.4748 53.3639C90.5428 53.2789 90.3558 52.9389 90.0498 52.6159L89.5058 52.0379L90.4068 52.1399C91.2738 52.2419 91.2908 52.2419 91.3248 51.783C91.3418 51.443 91.3588 51.46 91.4098 51.9189C91.4438 52.2419 91.5458 52.8539 91.6478 53.2789ZM28.8328 53.6359C29.7848 53.9589 30.3798 53.9759 31.2128 53.7039C31.5018 53.6189 31.6548 53.7039 31.9268 54.0949C32.2668 54.5539 32.2668 54.6219 32.0118 54.9619C31.6718 55.4549 30.4138 55.9989 29.5978 55.9989C29.1218 55.9989 28.7988 55.8459 28.2548 55.3869L27.5408 54.7919L27.6598 55.5739C27.7618 56.3559 27.7618 56.3729 27.3538 56.2539C27.1328 56.1859 26.9118 56.1009 26.8778 56.0669C26.7758 55.9649 27.5748 53.2789 27.7108 53.2789C27.7788 53.2789 28.2718 53.4319 28.8328 53.6359ZM68.0858 53.8909C68.4088 54.0949 68.4768 54.2309 68.3578 54.4519C68.2388 54.6389 68.2898 54.8259 68.4768 55.0469C68.7488 55.3529 68.7488 55.3699 68.1708 55.2679C67.8478 55.2169 67.3548 55.0979 67.0998 54.9959L66.6238 54.8089L67.0998 54.2139C67.3548 53.8909 67.5928 53.6189 67.6268 53.6189C67.6438 53.6189 67.8648 53.7379 68.0858 53.8909ZM75.4808 55.3019C75.4808 55.4379 74.6818 56.0669 73.9168 56.5429C73.6618 56.6959 73.0838 56.9339 72.6418 57.0699C71.6048 57.3759 71.5028 57.7499 72.3188 58.2259C72.6588 58.4129 72.9308 58.6169 72.9308 58.6509C72.9308 58.8549 72.1488 58.9909 71.9108 58.8379C71.7068 58.7189 71.4688 58.7529 71.0948 58.9569C70.4658 59.2799 70.1598 59.2969 69.4118 59.0249C68.7148 58.7699 68.6808 58.5489 69.3608 58.5489C69.7008 58.5489 69.8708 58.4639 69.8708 58.2939C69.8708 58.1239 70.0408 58.0389 70.3808 58.0389C70.6698 58.0389 70.8908 57.9709 70.8908 57.8859C70.8908 57.7839 71.2648 57.3419 71.7238 56.8999C72.1658 56.4579 72.6078 55.8969 72.6758 55.6589L72.8118 55.2339L73.0328 55.7439L73.2368 56.2539L73.4918 55.6589C73.6958 55.2169 73.7638 55.1489 73.7638 55.4209C73.7978 55.9989 74.0018 56.0329 74.2228 55.5229C74.3928 55.0979 74.4948 55.0469 74.9538 55.1149C75.2428 55.1489 75.4808 55.2339 75.4808 55.3019ZM92.9058 56.1519C93.0248 56.7129 92.7528 57.3589 92.3958 57.3589C92.2768 57.3589 92.0388 57.2229 91.8688 57.0699C91.5968 56.7979 91.6138 56.7639 92.0728 56.6279C92.7188 56.4069 92.7018 56.4239 92.4808 56.0159C92.3448 55.7269 92.3448 55.6589 92.5488 55.6589C92.6848 55.6589 92.8378 55.8799 92.9058 56.1519ZM49.3858 57.1889C50.1678 58.0559 49.6578 58.4809 47.5838 58.6679C46.5298 58.7529 45.2208 58.5149 45.2208 58.2429C45.2208 57.9709 47.3628 57.2229 47.8728 57.3079C48.2298 57.3589 48.4848 57.3079 48.6378 57.1209C48.9438 56.7809 49.0288 56.7809 49.3858 57.1889ZM109.549 58.0219C109.226 58.7869 109.277 59.1949 109.736 59.5009C110.144 59.7729 110.178 59.8749 110.076 60.4869C110.025 60.8779 109.855 61.3709 109.719 61.5919C109.498 61.9149 109.345 61.9659 108.852 61.8979C108.291 61.7959 107.135 61.1329 106.285 60.4189C105.928 60.1129 105.911 60.0619 106.149 59.7049C106.285 59.4839 106.591 58.8039 106.846 58.1919L107.288 57.0699L108.478 57.4099C109.43 57.6819 109.634 57.8179 109.549 58.0219ZM125.036 58.4979C125.036 58.6679 125.189 59.0079 125.393 59.2629C125.648 59.6029 125.852 59.6879 126.192 59.6199C126.583 59.5519 126.651 59.6029 126.787 60.0959L126.94 60.6739L127.161 60.2149C127.382 59.7389 127.382 59.7389 127.637 60.0959C127.994 60.6059 128.555 60.4529 128.895 59.7389C129.133 59.2629 129.184 59.2119 129.201 59.5179C129.201 60.0789 129.507 60.1639 129.643 59.6369L129.762 59.1779L129.983 59.6709C130.153 60.0619 130.204 60.0959 130.204 59.8239C130.238 59.2289 130.476 59.0249 130.986 59.1609L131.479 59.2799L130.748 59.9259C130.34 60.2999 129.558 60.7419 129.014 60.9459C128.453 61.1499 128.011 61.3709 128.011 61.4559C128.011 61.5239 128.283 61.8129 128.623 62.0849L129.235 62.5949L128.606 62.7989C128.266 62.9179 127.518 63.0369 126.94 63.0879C126.362 63.1389 125.529 63.2069 125.087 63.2579L124.271 63.3429V62.4419C124.271 61.5749 124.305 61.4899 124.985 60.8949C125.58 60.3849 125.682 60.2319 125.495 60.0449C125.325 59.8749 125.155 59.8919 124.56 60.2149C123.744 60.6399 123.132 60.6909 122.673 60.3339C122.486 60.1979 122.163 60.0789 121.959 60.0789C121.602 60.0789 121.602 60.0449 121.772 59.5689C121.925 59.1779 122.044 59.0759 122.299 59.1609C122.571 59.2459 122.605 59.2119 122.503 58.7869C122.384 58.3109 122.384 58.3109 122.707 58.5999C123.081 58.9399 123.183 58.8549 123.659 57.9029L123.948 57.3249L124.492 57.7499C124.798 57.9879 125.036 58.3109 125.036 58.4979ZM27.7958 59.5179C28.0848 59.7049 27.9148 59.7389 26.5718 59.7389C25.1778 59.7389 24.9908 59.7049 24.8208 59.3989C24.6168 59.0249 24.6168 59.0249 25.6708 58.7529C26.2658 58.5999 26.5888 58.7189 27.7958 59.5179ZM52.3608 59.2969C52.3608 59.6879 52.6668 59.7729 53.0748 59.5009C53.4148 59.2799 53.5168 59.2799 53.7888 59.5009C54.2308 59.8239 55.0808 59.8069 55.5568 59.4669C55.8968 59.2289 55.9308 59.2289 55.9308 59.4839C55.9308 60.0109 55.0298 60.7079 54.0948 60.9119C52.8198 61.1839 52.5138 61.1499 51.6128 60.6739C50.6778 60.1809 50.6608 60.1639 50.6608 60.5039C50.6608 60.7079 50.5418 60.7419 50.2018 60.6569C49.7428 60.5379 49.7258 60.5549 50.0318 60.8779C50.4568 61.3709 50.3888 61.4559 49.6918 61.3369C49.3348 61.2859 48.8418 61.3199 48.5868 61.4219C48.3148 61.5239 48.1108 61.5409 48.1108 61.4729C48.1108 61.4049 48.5358 60.8269 49.0628 60.1979L50.0148 59.0589H51.1878C52.0888 59.0589 52.3608 59.1099 52.3608 59.2969ZM25.8748 61.0309C26.4018 61.5069 26.6738 61.6259 27.0478 61.5749C27.3198 61.5239 27.5408 61.5239 27.5408 61.5409C27.5408 61.5579 27.5748 61.6939 27.6428 61.8299C27.6938 61.9659 27.5408 62.1869 27.2858 62.3569C26.9458 62.5779 26.7248 62.6119 26.2658 62.4759C25.7048 62.3229 25.2968 62.4759 25.6708 62.7139C26.0278 62.9349 25.8238 63.1559 25.2968 63.1049C24.6848 63.0539 24.4298 62.6799 24.2258 61.6089C24.1408 61.0819 24.1748 60.9799 24.5998 60.7249C24.8548 60.5719 25.1098 60.4359 25.1438 60.4359C25.1778 60.4189 25.5008 60.6909 25.8748 61.0309ZM104.33 60.5549C104.874 60.4019 104.993 60.4359 105.18 60.7079C105.571 61.2179 105.384 61.9829 104.789 62.3229C104.279 62.6119 104.211 62.6119 103.378 62.3399C102.239 61.9829 101.831 61.3539 102.375 60.8099C102.647 60.5209 102.817 60.4869 103.208 60.5889C103.497 60.6739 103.956 60.6569 104.33 60.5549ZM48.8588 63.8529C48.9948 64.0569 49.0628 64.2949 49.0118 64.3799C48.9438 64.4819 49.2668 64.5159 49.8788 64.4649C50.9158 64.3799 51.0688 64.4819 50.4058 64.8389C50.1678 64.9579 49.9808 65.1619 49.9808 65.2979C49.9808 65.7399 45.8838 65.4849 45.3398 65.0089C45.2548 64.9409 45.6288 64.8219 46.1558 64.7539C46.9378 64.6689 47.2608 64.5159 47.7538 64.0569C48.4848 63.3769 48.5188 63.3769 48.8588 63.8529ZM6.80082 69.3439C7.25982 69.8369 8.84082 70.3639 9.35082 70.1939C9.75882 70.0579 9.79282 70.2279 9.40182 70.6529C9.14682 70.9419 9.16382 70.9589 9.82682 70.9589C10.6088 70.9589 10.8298 71.3499 10.1668 71.5369C9.40182 71.7409 8.80682 71.6389 7.76982 71.1119C5.89982 70.1939 5.61082 69.9559 5.61082 69.4119C5.61082 69.0039 5.67882 68.9189 6.00182 68.9189C6.22282 68.9189 6.57982 69.1059 6.80082 69.3439ZM168.199 76.4499C168.42 77.0279 168.318 77.1129 167.434 77.0449L166.72 76.9939L167.196 76.4329C167.723 75.8039 167.978 75.8039 168.199 76.4499ZM6.01882 77.4869C6.83482 77.7249 7.56582 77.9629 7.61682 78.0139C7.68482 78.0819 7.54882 78.2859 7.31082 78.4729C7.02182 78.7109 6.74982 78.7789 6.37582 78.7109C5.72982 78.5749 4.52282 77.7419 4.45482 77.3679C4.38682 77.0109 4.21682 76.9939 6.01882 77.4869ZM6.88582 87.0919C6.97082 87.2449 5.98482 87.4999 4.38682 87.7209C3.63882 87.8229 3.57082 87.8059 3.57082 87.4829C3.57082 87.1769 3.68982 87.1259 4.55682 87.0579C6.54582 86.9389 6.78382 86.9389 6.88582 87.0919ZM9.65682 91.3759C10.8638 91.8859 10.5408 92.0389 8.24582 92.0389C6.25682 92.0389 6.12082 92.0219 6.12082 91.7159C6.12082 91.4949 6.30782 91.3249 6.68182 91.2059C7.90582 90.8319 8.41582 90.8659 9.65682 91.3759ZM13.4138 98.7029C13.4308 98.9749 13.2608 99.0089 11.9858 99.0089C11.1868 99.0089 10.5408 98.9579 10.5408 98.8899C10.5408 98.5159 11.1698 98.1589 11.8158 98.1589C12.1898 98.1589 12.6658 98.0569 12.8528 97.9209C13.1418 97.6999 13.1928 97.7169 13.2948 98.0399C13.3458 98.2439 13.3968 98.5499 13.4138 98.7029ZM96.3398 99.8929C96.2888 100.012 96.2548 99.9269 96.2548 99.6889C96.2548 99.4509 96.2888 99.3659 96.3398 99.4679C96.3738 99.5869 96.3738 99.7909 96.3398 99.8929Z" fill="#272727"/>
</svg>
