<?xml version='1.0' encoding='utf-8'?>
<svg xmlns="http://www.w3.org/2000/svg" width="360px" height="179px" enable-background="new -16.128 -7.011 360 179" overflow="visible" version="1.1" viewBox="-16.128 -7.011 360 179">
		<path d="m339.72 86.857l-0.533-1.081c-2.299 0.06-4.598 0.118-6.896 0.178-0.894-0.903-1.786-1.806-2.679-2.709 0.543-2.377 2.082-4.353 1.006-6.675-1.89 0.441-5.345 2.334-5.996 0.338-5.539-16.953-18.647-42.111-30.501-53.737-19.9-19.513-39.64-20.802-42.56-21.28-2.155-0.12-7.184 0.239-12.93 2.155-5.76 1.978-7.662 3.429-15.803 3.831-10.887 0.538-23.85-5.409-34.3-7.063-15.587-2.468-29.282 1.483-30.554 1.347-12.542-1.351-23.712 6.068-30.325 11.044-15.91 11.965-25.1 40.951-22.64 70.575 0.946 11.372 4.253 17.403 4.31 30.708l0.539 0.539h0.539c5.451-16.888 12.218-35.47 11.852-57.107h0.539c2.79 6.761 0.359 25.835-2.155 31.247v0.539c0.359 0.18 0.718 0.359 1.078 0.539 0.18-0.359 0.359-0.719 0.539-1.078 11.523-15.425 1.049-63.797 17.779-72.73h0.539c-1.683 5.662-5.213 14.373-3.233 23.705 1.437 6.77 5.064 16.172 6.95 21.29 1.885 5.118-0.355 20.205-11.26 26.12-2.408 13.284 1.29 29.32-3.771 40.944 1.999 2.954 3.795 4.971 5.926 7.542-1.001 2.084-1.633 3.51-1.078 5.927 1.546 3.46 6.056 4.804 10.775 3.231h1.078s-3.2-5.077-5.355-11.861c-1.897-5.974-2.742-13.512-3.265-16.692-1.313-7.992 1.61-15.349 6.234-21.591 6.063-8.186 15.05-14.456 21.242-17.736 1.867 6.827-1.356 12.197-2.694 17.239 3.771 6.464 7.542 12.93 11.313 19.395 1.437 4.31 2.874 8.621 4.31 12.931 1.975 1.256 3.951 2.515 5.926 3.771 2.493 4.594-0.435 4.601 3.771 10.235 2.514 0.18 5.028 0.359 7.542 0.539-0.314-7.231-7.342-11.808-7.451-18.116-0.142-8.226-4.872-2.307-13.021-20.135-4.625-10.117 3.8-19.675 8.833-29.657 2.529-5.019 4.58-10.284 4.636-16.136 0.359-0.179 0.718-0.359 1.077-0.539 7.262 3.076 18.806 11.038 25.86 12.81 6.39 1.605 21.965-0.648 31.786 0.12 3.641 6.441 0.879 22.125 2.72 30.441 3.368 15.226-4.825 28.554 6.438 33.669-0.535 3.135-2.117 5.278-1.076 8.082 1.826 3.126 6.179 3.021 11.312 2.693 0.18-0.18 0.359-0.36 0.538-0.538-3.591-8.8-7.183-17.601-10.774-26.399-1.109-5.347-0.607-10.398 0.476-15.309 1.759-7.981 5.053-15.589 5.45-23.48 0.36-0.18 0.72-3.592 1.078-3.771 0.719 5.746 3.054 14.727 3.771 20.472 2.335 4.849 3.054 9.698 5.389 14.546 0.359 5.028 0.718 8.441 1.077 13.469 2.13 4.678 6.316 3.453 6.465 13.469 3.907 1.767 7.303 2.873 13.469 2.693 0.18-0.358 0.359-0.718 0.538-1.076-2.328-4.056-5.842-6.298-8.081-9.698-5.328-8.092-8.36-18.664-10.021-30.393-1.479-10.452-0.573-22.165-1.83-33.18 4.849-2.082 5.656-5.998 7.004-7.003 2.713 2.233 17.24 17.659 22.627 32.385 1.976 3.231-1.795 12.57 4.189 21.588 1.929 2.905 3.917 5.026 5.461 7.009 2.936 3.768 4.473 6.901 2.295 13.076 0.979 2.738 3.866 5.834 7.4 6.29 4.063 0.98 7.523 0.046 10.908-4.573-1.284-10.57-2.678-22.494-1.11-33.301 0.252-0.035 0.503-0.069 0.755-0.104 2.194 2.277 2.247 3.431 3.094 5.728 0.251-0.034 0.502-0.068 0.755-0.103 0.421-4.528-2.809-11.674-4.115-15.97 2.161-1.066 4.322-2.132 6.482-3.197 0.08-0.16 0.19-0.303 0.3-0.446z" clip-rule="evenodd" fill="#010101" fill-rule="evenodd"/>
		<path d="m92.527 142.16c-1.656-4.188-1.906-8.706-4.082-12.247-2.337-3.805-9.175-7.776-8.708-13.062 0.454-5.153-3.446-20.951 0-23.132 1.046 2.129 3.535 2.575 4.899 4.354 1.087 1.724 2.176 3.446 3.265 5.171 1.27 0.181 2.541 0.362 3.811 0.543 1.419-1.727 2.356-3.727 2.288-5.854-0.183-5.711-5.054-7.569-0.111-17.004-0.369-3.288-1.48-3.812-2.994-5.716 1.27-1.994 2.541-3.991 3.811-5.986-2.628 0.118-3.214 1.177-5.444 1.634 0.273-0.636 0.545-1.271 0.816-1.905-0.091-0.183-0.182-0.363-0.271-0.545-0.272 0.271-0.545 0.545-0.816 0.816-1.089 0.816-2.178 1.634-3.267 2.449-5.506-0.088-8.772-0.819-13.063 0.815-1.722 1.271-3.446 2.541-5.169 3.811-1.27 0.362-2.541 0.727-3.811 1.089-1.753 1.335-2.973 4.657-4.625 6.259h-2.995c0.376 2.869 0.599 3.487 0.271 6.26-0.789 0.479-1.453 0.737-1.904 1.634 0.362 0.814 0.726 1.633 1.087 2.447-0.906 0.999-1.813 1.997-2.721 2.994-6.638 0.031-10.447-2.194-15.513-3.266-4.077-0.863-8.32-0.429-11.157 0.816-3.341-2.277-5.616-7.838-8.436-8.709-2.541 0.182-5.081 0.364-7.622 0.545-3.689 0.538-6.91-1.375-9.524-2.45-0.178 0.19-0.361 0.372-0.542 0.553 1.272 2.953 4.175 8.077 6.26 9.524 1.358 1.153 3.889 0.771 5.987 0.545-0.091 0.362-0.182 0.726-0.273 1.088-0.635 0.183-1.269 0.364-1.905 0.546 0.183 0.362 0.364 0.725 0.545 1.087 1.454-0.696 3.407-1.688 4.354-1.087 0.478 0.745 0.184 0.439 0 1.904 2.701-0.232 5.645-0.824 7.893 0-2.892 4.345-2.271 8.383-1.564 12.258 0.595 3.256 1.247 6.397-0.069 9.513-2.058 4.873-7.744 3.172-10.068 5.987-0.633 0.767-2.44 7.812-4.511 13.872-1.475 4.313-3.418 8.061-3.653 8.988-0.426 1.687 0.65 2.217 0.816 3.265 0.749 4.689-1.837 6.675-0.816 10.613 1.509 0.86 2.188 1.545 4.627 1.634 0.543-0.363 1.087-0.726 1.632-1.09-0.061-3.666-0.866-6.322-0.458-9.564 0.708-5.623 3.155-11.369 5.709-15.42 2.547-4.037 6.149-7.201 11.077-9.304 0.363 0.271 0.726 0.544 1.089 0.815 0.519 1.878 1.834 5.93 3.277 9.929 1.458 4.042 3.044 8.028 4.069 9.666 4.584 0.808 4.029 4.599 7.076 6.531 1.619 1.296 5.144 0.297 6.531-0.272-0.964-3.997-3.828-5.338-5.715-8.164-2.211-3.31-4.757-7.261-5.813-10.659-1.897-6.108-0.494-11.646 5.542-17.1 3.926 1.269 7.79 2.437 12.246 3.267 4.305 0.803 9.507-1.839 11.842 0.055 2.246 1.82 4.098 0.883 6.935 3.482 3.176 5.171 6.352 10.342 9.526 15.513 2.099 5.182 1.393 8.275 5.987 10.886-0.433 2.205-0.697 3.907 1.088 5.17 0.954 0.595 3.305 0.597 4.627 0.816 1.102 1.82 1.256 4.296 2.45 6.259 2.851 0.147 5.896 0.46 8.436-0.272v-0.271c-4.807-6.06-9.291-14.83-12.253-22.33z" fill="#010101"/>
</svg>