<?xml version="1.0" standalone="no"?>
<!DOCTYPE svg PUBLIC "-//W3C//DTD SVG 20010904//EN"
 "http://www.w3.org/TR/2001/REC-SVG-20010904/DTD/svg10.dtd">
<svg version="1.0" xmlns="http://www.w3.org/2000/svg"
 width="600.000000pt" height="640.000000pt" viewBox="0 0 600.000000 640.000000"
 preserveAspectRatio="xMidYMid meet">

<g transform="translate(0.000000,640.000000) scale(0.100000,-0.100000)"
fill="#000000" stroke="none">
<path d="M2967 6373 c-8 -15 -18 -48 -22 -73 -10 -65 -127 -423 -163 -502 -18
-39 -50 -87 -79 -116 -26 -27 -55 -59 -63 -71 -15 -22 -16 -23 -58 -6 -47 19
-40 3 -93 218 -29 118 -31 138 -27 255 5 141 23 211 63 254 45 49 26 61 -51
32 -39 -15 -45 -23 -80 -98 -20 -44 -39 -101 -41 -126 -3 -25 0 -151 6 -281
12 -275 7 -307 -63 -448 -38 -76 -59 -101 -82 -101 -14 0 -33 76 -39 155 -6
86 -5 95 29 194 26 76 33 108 25 115 -15 15 -102 -83 -136 -153 -24 -49 -28
-69 -34 -211 -7 -176 -18 -212 -87 -290 -54 -60 -68 -47 -42 39 24 77 27 224
6 276 -20 47 -42 56 -91 39 -22 -7 -41 -14 -42 -14 -2 0 -3 11 -3 24 0 26 36
59 98 90 25 13 32 23 32 46 0 23 -5 31 -25 36 -14 3 -37 3 -51 0 -25 -7 -26
-5 -20 21 14 68 27 174 21 183 -19 30 -47 -14 -106 -162 -12 -32 -26 -58 -30
-58 -4 0 -11 21 -15 48 -11 79 -43 95 -87 42 -29 -33 -57 -32 -57 4 0 58 -68
89 -80 36 -6 -27 -47 -47 -74 -37 -10 4 -16 18 -16 35 0 66 -55 68 -85 4 -25
-52 -81 -112 -105 -112 -39 0 -45 27 -45 183 0 109 -3 151 -12 154 -7 3 -15
-7 -19 -21 -3 -13 -14 -32 -25 -42 -26 -24 -49 -106 -49 -178 0 -68 -13 -103
-23 -64 -4 12 -7 37 -7 55 0 55 -48 84 -71 42 -13 -26 -4 -132 17 -192 20 -57
18 -66 -18 -81 -31 -13 -32 -13 -85 39 -49 48 -54 57 -64 116 -11 72 -39 149
-54 149 -16 0 -35 -51 -35 -94 0 -23 9 -79 20 -126 25 -109 25 -113 -6 -149
-27 -32 -67 -41 -103 -22 -16 9 -17 22 -13 120 5 117 -2 141 -39 141 -22 0
-34 -21 -44 -77 -4 -24 -10 -43 -15 -43 -4 0 -20 28 -34 63 -15 34 -34 70 -43
79 -8 9 -20 36 -27 59 -12 40 -38 70 -50 58 -3 -3 -9 -33 -12 -67 -6 -55 -2
-75 32 -178 28 -85 47 -127 74 -157 20 -23 40 -51 44 -61 10 -28 -4 -107 -21
-113 -13 -5 -59 15 -97 42 -23 17 -54 141 -64 252 -7 85 -8 88 -32 88 -41 0
-64 -75 -64 -210 -1 -99 2 -116 26 -167 15 -33 48 -78 79 -107 29 -28 50 -53
47 -57 -13 -13 -130 50 -162 87 -58 69 -67 119 -51 309 7 91 15 174 17 185 2
12 -3 21 -14 23 -21 4 -68 -93 -68 -141 0 -19 -10 -56 -22 -83 -18 -41 -21
-66 -20 -162 1 -142 16 -176 127 -288 93 -94 126 -114 204 -121 76 -6 235 -41
294 -63 27 -11 55 -16 62 -13 8 2 43 -2 77 -10 35 -9 91 -19 126 -22 34 -4 62
-10 62 -14 0 -11 -83 -61 -102 -61 -11 0 -31 -6 -46 -14 -25 -13 -293 -46
-372 -46 -19 0 -51 -9 -70 -19 -19 -11 -67 -36 -107 -56 -103 -51 -163 -109
-207 -199 -20 -40 -41 -100 -47 -132 -6 -33 -17 -79 -26 -104 -26 -77 -27
-103 -3 -133 23 -29 65 -36 101 -16 16 8 26 5 52 -17 28 -24 37 -26 90 -21 56
5 59 4 92 -29 19 -19 45 -34 57 -34 13 0 48 20 78 45 72 59 109 71 152 51 37
-18 84 -89 117 -177 40 -105 83 -149 186 -188 67 -25 66 -24 64 -140 -4 -169
34 -248 126 -265 34 -7 41 -4 77 31 51 50 68 109 68 240 0 62 4 103 10 103 6
0 10 -11 10 -24 0 -13 6 -29 14 -35 7 -6 16 -29 20 -51 4 -27 14 -45 32 -56
14 -9 32 -33 40 -52 20 -49 111 -136 143 -138 32 -1 50 -44 50 -122 1 -74 22
-116 99 -198 129 -138 148 -165 156 -219 5 -41 14 -57 51 -94 25 -24 45 -48
45 -52 0 -4 26 -28 59 -53 56 -43 59 -48 67 -103 5 -32 7 -92 6 -133 -4 -87 0
-105 63 -340 26 -96 51 -195 56 -220 12 -54 1 -210 -17 -262 -20 -57 -27 -148
-15 -198 5 -25 15 -99 21 -165 11 -116 10 -126 -19 -285 -17 -91 -31 -174 -31
-184 0 -11 -13 -56 -30 -100 -16 -45 -34 -101 -40 -125 -16 -63 -102 -150
-187 -190 -82 -40 -149 -86 -164 -112 -28 -53 24 -104 77 -76 25 13 33 13 54
1 31 -17 75 -18 103 -2 12 7 33 13 47 15 80 8 111 16 107 27 -8 20 20 74 48
92 25 16 27 16 53 -10 33 -30 53 -33 75 -8 13 14 16 55 21 232 8 310 14 430
25 475 6 22 13 87 16 145 7 118 24 176 60 210 40 38 76 165 85 305 6 85 15
136 31 175 16 41 23 89 30 190 4 74 12 153 18 175 6 22 11 103 11 180 0 77 4
146 9 153 4 8 26 16 49 19 l41 5 30 -67 c17 -38 49 -96 70 -129 89 -141 120
-220 162 -404 22 -97 48 -229 58 -292 23 -143 31 -162 120 -282 43 -58 80
-120 92 -155 54 -158 129 -529 132 -657 1 -65 -25 -114 -77 -141 -21 -11 -42
-29 -48 -40 -6 -11 -38 -48 -71 -82 -48 -49 -58 -66 -54 -85 10 -37 41 -51 83
-36 26 9 37 9 46 0 15 -15 64 -16 73 -2 3 5 16 10 27 10 12 0 52 10 90 22 64
21 68 24 74 57 9 48 38 113 56 128 11 10 21 10 47 0 27 -10 33 -9 41 3 15 24
11 70 -8 98 -23 34 -60 130 -79 207 -8 33 -26 105 -40 160 -14 55 -38 123 -54
151 -43 76 -59 128 -73 239 -8 55 -23 165 -35 245 -12 80 -26 175 -31 213 -6
37 -10 86 -10 108 0 22 -7 72 -16 112 -16 70 -16 177 2 393 l6 70 162 -4 c127
-4 174 -1 217 11 30 8 86 20 124 26 54 8 104 28 222 86 83 41 154 75 156 75 3
0 8 -37 12 -82 19 -241 37 -417 47 -453 8 -33 21 -235 30 -490 1 -22 -6 -67
-15 -100 -9 -33 -28 -135 -41 -226 -24 -164 -38 -215 -90 -334 -14 -33 -26
-70 -26 -83 0 -12 -25 -70 -56 -127 -46 -87 -69 -117 -138 -183 -56 -52 -99
-84 -132 -97 -27 -10 -60 -26 -73 -37 -13 -10 -34 -18 -46 -18 -25 0 -39 -14
-49 -47 -10 -33 32 -73 78 -73 25 0 38 -6 46 -20 6 -11 20 -25 31 -31 18 -9
29 -5 74 26 29 20 77 45 107 56 38 14 66 34 100 72 l48 52 15 -22 c19 -27 42
-29 73 -7 18 13 22 25 22 72 0 32 8 79 20 108 16 43 39 128 55 207 2 10 17 49
34 85 16 37 36 105 45 152 15 85 96 363 116 399 5 11 10 28 10 38 0 10 8 30
17 43 10 14 19 32 20 41 3 18 90 190 118 233 17 26 18 35 6 114 -9 68 -9 104
0 162 8 51 9 108 3 180 -5 58 -9 166 -9 240 0 147 0 146 74 262 20 32 41 58
47 58 6 0 19 -9 28 -19 10 -11 41 -31 70 -44 74 -35 137 -111 202 -242 45 -91
71 -129 154 -220 160 -177 244 -299 269 -391 6 -23 22 -56 35 -75 66 -93 122
-189 144 -248 30 -83 56 -293 48 -386 -4 -48 -1 -91 11 -138 13 -57 14 -85 5
-190 -7 -73 -21 -156 -36 -206 -15 -47 -26 -92 -26 -102 0 -10 -21 -30 -50
-48 -73 -45 -130 -100 -130 -126 0 -34 34 -59 69 -52 26 5 32 2 43 -20 24 -50
42 -51 115 -13 97 51 156 114 183 194 21 64 22 65 51 59 35 -7 69 19 69 51 -1
12 -14 37 -30 56 -25 29 -30 43 -30 87 0 30 -7 70 -16 91 -11 26 -18 90 -24
217 -5 109 -15 202 -24 235 -9 30 -16 67 -16 81 0 15 -7 46 -16 70 -12 31 -19
99 -24 229 -5 113 -13 197 -20 215 -14 32 -25 109 -38 261 -7 86 -9 93 -44
132 -20 22 -64 97 -98 165 -34 68 -79 145 -100 170 -77 94 -109 221 -110 432
0 114 7 148 55 283 14 40 31 118 37 175 13 117 3 166 -52 256 -29 46 -58 120
-74 185 -6 26 -5 28 17 22 32 -8 67 19 67 50 0 34 -33 95 -71 133 -81 81 -426
216 -655 256 -154 27 -388 34 -474 14 -25 -6 -146 -13 -269 -15 -218 -4 -229
-4 -389 26 -179 34 -274 69 -309 114 -27 33 -88 76 -111 77 -13 0 -12 3 6 11
39 19 19 32 -49 30 -49 -2 -60 0 -46 8 29 19 19 30 -28 30 -25 0 -45 5 -45 10
0 6 6 10 13 11 6 0 2 5 -10 11 -13 6 -23 15 -23 20 0 4 -13 8 -30 8 -23 0 -30
4 -30 20 0 15 -7 20 -29 20 -60 0 -89 11 -96 37 -5 22 -10 24 -35 19 -16 -3
-32 -1 -35 5 -4 5 -16 7 -27 3 -12 -3 -24 0 -31 10 -8 10 -35 18 -77 22 -36 4
-70 11 -76 15 -6 5 -20 1 -34 -8 -25 -18 -140 -28 -140 -12 0 14 -37 11 -69
-5 -23 -12 -32 -12 -57 -1 -16 7 -37 16 -47 19 -14 5 -16 10 -7 25 12 24 -1
66 -25 75 -9 3 -30 6 -47 6 -29 0 -88 27 -88 41 0 4 12 10 28 14 34 8 150 95
222 166 43 42 69 59 115 73 33 10 76 27 95 36 19 9 54 20 78 23 24 3 52 13 62
22 11 10 75 43 144 75 233 108 433 237 566 362 25 24 46 34 80 38 42 5 45 7
45 34 0 24 -6 31 -43 45 l-44 17 62 33 c66 35 79 53 60 76 -16 19 -47 19 -96
0 -37 -15 -32 -6 11 20 12 8 16 17 11 32 -9 30 -30 35 -72 17 -25 -10 -34 -11
-28 -3 29 48 18 261 -18 329 -10 19 -18 40 -18 47 0 7 -6 13 -14 13 -9 0 -16
-32 -25 -122 -7 -68 -17 -136 -22 -151 -14 -45 -139 -225 -187 -269 -34 -31
-49 -39 -75 -36 l-32 3 2 79 c3 74 20 162 79 394 13 52 21 99 17 105 -4 7 -10
30 -13 51 -6 49 -24 56 -43 19z m-1347 -1018 c0 -8 -20 -53 -45 -99 -25 -48
-45 -99 -45 -117 0 -57 -24 -25 -46 62 -22 89 -18 119 15 119 10 0 38 11 62
24 53 29 59 30 59 11z m-520 -291 c9 -27 28 -66 43 -86 32 -41 24 -53 -28 -44
-24 5 -35 13 -39 31 -4 14 -17 32 -31 41 -14 9 -25 23 -25 30 0 20 43 84 54
81 5 -2 17 -26 26 -53z"/>
</g>
</svg>
