<?xml version="1.0" encoding="UTF-8"?>
<svg enable-background="new 0 0 2920.035 459" version="1.1" viewBox="0 0 2920.035 459" xmlns="http://www.w3.org/2000/svg">
 <path d="m995.84 52.71c7.22-2 14.58-4.74 22.2-3.75 7.67 0.17 14.78 5.02 18.65 11.5 1.92 3.04 1.27 6.72 0.62 10.04 4.24 2.3 10.13 2.52 11.97 7.81-3.75 0.66-7.62 0.47-11.28 1.54-4.2 0.97-4.11 6.24-6.2 9.27 6.89 4.68 14.37 8.88 19.43 15.7 5.22 4.6 13.02 7.22 15.53 14.33 1.16 5.92 3.6 11.49 4.65 17.44 1.59 6.71 2.83 13.52 5 20.08 0.59 1.75 0.45 3.62 0.49 5.44-0.56 7.96 4.07 15.02 4.09 22.94-0.88 0.96-1.76 1.91-2.62 2.87 0.91 10.19 1.73 20.38 1.89 30.62 9.25 0.75 18.52-0.3 27.79 0.1 6.33-0.05 12.64 1.52 18.97 0.5 11.29-1.52 22.62 1.73 33.89 0.04 11.71-1.36 23.45 1.5 35.16 0 12.02-1.35 24 1.39 36.02 0.44 10.47-0.66 20.95 0.71 31.4-0.36 7.85-0.09 15.7 0.56 23.56 0.52 5.35 0.02 10.63-1.25 16-0.83 6.64 0.45 13.33 0.94 19.97 0.09 7.95-1.04 15.97-0.25 23.96-0.2 8.04 0.06 16.08-1.15 24.13-0.54 11.6 0.91 23.16-1.1 34.78-0.57-2.1-4.07-4.32-8.16-4.78-12.8-0.15-3.38-3.38-5.52-3.6-8.85-0.41-3.43-0.7-6.94-2.32-10.05 0.59-4.73 0.53-9.86-2.55-13.78 0.48-6.09 0.89-12.19 1.11-18.29 0.18-1.65-0.93-3-1.63-4.37-0.34-6.09 3.13-11.68 2.39-17.73 2.33-3.47 4.71-6.91 7.18-10.3 2.22-3.12 6.34-3.65 9.4-5.64 1.04-2.83-0.61-6.18 0.87-8.96 2.69-5.01 6.18-9.66 10.56-13.32 6.36-5.65 14.7-8.16 21.93-12.41 2.53-4.41 4.16-9.4 7.64-13.23 4.6-5.01 10.01-10.01 16.97-11.2 5.89-0.31 12.18 1.58 16.31 5.95 2.25 2.3 2.56 5.64 3.45 8.59 1.01 3.89 3.25 7.27 5.25 10.72 4.68 0.04 9.65 0.42 13.58 3.28 7.28 3.84 15.7 6.29 21.33 12.67 3.23 4.3 6.67 10.07 3.44 15.35 2.13 3.56 5.64 5.88 8.31 8.94 3.25 7.98 6.02 16.18 8.02 24.58 1 5.35 1.27 10.81 2 16.21 0.55 2.95-0.91 5.66-2.12 8.23 0.81 6.21 0.96 12.53 0.09 18.74-0.72 5.09-2.69 9.89-3.71 14.91-0.84 0.56-1.65 1.11-2.45 1.67-0.8 4.24-1.35 8.52-1.48 12.84 15.67-0.58 31.32 0.77 46.99-0.02 10-0.77 19.98 1.09 29.97 0.13 11.31-0.56 22.64 0.68 33.96 0 9.36-0.58 18.72 0.75 28.08-0.01 8.99-0.73 17.99 0.64 26.99 0.12 7.97-0.52 15.95-0.31 23.92-0.03 6.02 0.35 11.96-1.09 17.99-0.85 6.67-0.2 13.32 1.15 19.99 0.42 6.67-0.72 13.39-0.59 20.1-0.43-0.36-1.07-0.62-2.16-0.79-3.27-1.22 0.04-2.42 0.08-3.6 0.14-1.33-5.58-1.17-11.38-2.48-16.96-0.56-2.42-0.65-4.91-0.7-7.39-1-0.36-1.98-0.72-2.94-1.08 0.13-4.9 0.87-9.77 0.96-14.67-1.14 0.55-2.14 1.17-3.16 1.85-1.24-5.78-0.16-11.67-0.75-17.5-0.37-2.57 0.32-5.1 1.03-7.55 1.32-4.32 0.48-8.91 1.27-13.32 0.92-5.17 2.52-10.41 5.78-14.62 2.87-3.45 7.48-4.44 11.06-6.91 0.55-1.64-0.65-3.08-1.2-4.52-0.55-6.57 4.28-11.91 9.73-14.79 5.05-6.32 14.47-7.04 18.56-14.33 3.95-7.04 10.23-13.18 18.15-15.43 5.85-1.68 11.91-3.79 18.1-2.74 4.65 0.88 9.47 2.81 12.38 6.74 2.27 3.3 2.7 7.5 2.02 11.37-0.55 2.65 0.67 5.15 1.34 7.66 4.03 2.07 8.67 2.15 12.86 3.82 4.41 1.6 9.04 2.67 13.29 4.75 3.18 1.56 5.84 4.05 9.17 5.35 5.95 2.28 11.04 6.7 14.33 12.14 2.51 3.73 5.46 7.41 6.01 12.04 1.14 6.96 3 13.8 5.68 20.33-1.49-1.62-3.06-3.16-4.9-4.37 1.36 8.1 1.93 16.3 3.46 24.37 0.77 3.49-1.78 6.59-1.4 10.06 0.35 5.69 0.6 11.4 0.14 17.09 2.15 2.83 4.33 5.69 5.83 8.94 1.55 2.86 1.61 6.55-1.04 8.78-0.03 1.05 0 2.1 0.08 3.15 3.8 0.93 7.76 0.36 11.65 0.49 6.37-0.13 12.68 1.62 19.05 0.56 12.67-1.36 25.3 1.44 37.97 0.34 7.81-0.51 15.61 0.58 23.43 0.33 1.73-6.78 2.25-13.79 3.45-20.68-0.78 0.09-2.36 0.27-3.15 0.36 0.05-2.21 0-4.43-0.62-6.57 0.58-5.89 2.83-11.42 3.97-17.21-1.31 0.99-2.58 2.01-3.84 3.01-0.22-7.81 6.05-13.87 6.29-21.6 0.34-4.2-0.81-8.55 0.77-12.6 1.62-4.33 1.97-9 3.6-13.32 1.16-3.32 0.77-7.26 3.26-10.02 5.42-6.82 12.68-12.78 21.29-14.86 1.82-2.64 3.33-5.49 4.54-8.47 4.34-2.93 6.36-9.02 12.01-9.84 7.47-1.86 15.33-3.47 21.69-8.1 4.54-3.46 10.5-3.34 15.58-5.57 7.24-3.17 15.9-1.01 22.2 3.33 3.45 2.24 4.59 6.31 5.18 10.15 4.73 2.86 10.19 4.1 15.25 6.27 7.09 8.65 17.01 15.8 20.09 27.09 2.33 9.64 4.05 19.44 6.88 28.97 1.8 5.86 1.79 12.02 2.21 18.07 0.24 3.31-0.96 6.48-2 9.55-5.06 3.57-3.71 10.28-4.4 15.58-1.18 8.2 0.25 16.41 0.89 24.58 16.14-0.45 32.28 0.31 48.42-0.23 12.65 0.52 25.31-0.22 37.98 0.15 8.33 0.51 16.68-0.22 25.04 0 5.78-0.15 11.58 1.16 17.34 0.02-3.69-8.06-6.18-16.58-8.94-24.98-1.77-5.79-0.72-11.82-0.55-17.72-0.58-0.55-1.13-1.1-1.65-1.65 0.94-4.1 1.13-8.36 2.48-12.37 0.84-2.73 2.52-5.19 2.82-8.09 0.49-4.02 2.37-7.86 1.81-11.99 2.45-3.7 5.34-7.12 7.14-11.22 1.8-0.77 4.12-0.98 5.38-2.7 4.49-6.2 10.35-11.52 17.27-14.88 3.65-1.82 6.97-4.18 10.08-6.83 3.71-2.08 8.24-1.8 12.23-3.22 0.04 0.54 0.13 1.62 0.17 2.17 2.18-0.05 4.38-0.11 6.61-0.18 0.43 0.89 0.89 1.79 1.38 2.68 4.23-0.59 8.3-1.99 12.49-2.81 2.26-0.38 3.61 1.91 5.4 2.89 2.59-1.05 2.77-5.12 5.52-6.14 3.16 0.25 5.75 2.54 8.92 2.9 3.51 0.47 7.5-0.25 10.5 2.12 2.91 2.09 6.4 3.03 9.86 3.86 0.06 1.62 0.06 3.27 0.39 4.87 1.56 1.73 3.64 2.94 5.24 4.67-0.09 1.94-0.52 3.85-0.58 5.79 1.09 2.36 3.31 3.95 4.8 6.06 5.24 7.73 9.24 16.19 13.23 24.61 1.42 4.2 1.45 8.7 2.24 13.04 0.77 4.38 1.12 8.89 0.13 13.27-1.53-0.27-3.03-0.56-4.5-0.85 0.52 4.44 0.8 9.03-0.88 13.28-1.68 6.71-6.81 11.9-8.08 18.76 1.23 1.52 2.37 3.11 3.55 4.71 8.36 0.87 16.78 0.27 25.18 0.9 9.68 0.7 19.33-1.45 28.99-0.18 10.36 1.25 20.65-1.94 31.01-0.35 9.99 1.61 19.97-1.02 30-0.42 8.01-0.29 16.03 1.39 24.01 0.03 12.29-0.37 24.61 0.57 36.9-0.43 15.95 1.35 31.99-0.59 47.93 1.1 7.35-0.24 14.74-1.34 22.11-0.32 4.02 0.65 8.08 0.22 12.12-0.19 8.54-0.32 17.13-0.31 25.67 0.36 15.05-1.36 30.16 0.04 45.25-0.59 8.35-0.36 16.77 0.74 25.08-0.46 0.96 0.13 1.99 0.29 3.02 0.44 7.85-2.19 15.85 0.81 23.78-0.24 11.97-1.53 24.07-0.17 36.08-0.85 7.3-1.2 14.7-0.66 22.07-0.64v13.18c-6.65 0.55-13.3 1.34-19.97 1.09-4.71 0.07-9.38-1.06-14.05-0.32-8.27 1.1-16.64 0.58-24.94 0.39-6.72-0.36-13.34 1.26-20.04 0.94-6.68 0.37-13.33-1.27-19.97-0.25-7.66 0.57-15.37 0.47-23.02 0.07-5.34-0.63-10.65 0.46-15.97 0.41-8.37 0.19-16.74-0.57-25.09-0.15-6.63 0.31-13.26 0.32-19.87 0.01-8.72-0.49-17.43 0.52-26.14 0.15-5 0.07-9.96-1.06-14.93-0.39-8.98 0.85-17.99 0.23-26.96-0.23-8.99 0.57-18.04 1.15-27.02 0.13-4.35-0.59-8.67 0.38-12.99 0.49-11.01 0.5-22.02-1-33 0.15-9.35 1.01-18.71-1.12-28.04 0.08-8.33 0.99-16.72 0.62-25.04-0.14-7.99 0.26-15.96 1.3-23.96 0.79-10.08-0.86-20.18 0.05-30.23 0.66-1.14 4.17-5.74 4.74-8.81 6.93-5.1 3.31-10.69 5.83-15.59 9.46 0.25-1.21 0.5-2.43 0.83-3.63-1.1-0.77-1.91-2.07-3.21-2.36-7.71 1.07-14.46 5.44-22.1 6.72-2.37 0.46-4.75 0.77-7.1 1.13-2.32-1.53-4.9-3.49-7.8-2.36-7.58 2.34-16.13 4.33-23.68 0.84-4.54-2.27-9.34-4.05-14.36-4.84 0.09 1.32 0.27 2.64 0.41 3.97-5.53-1.05-9.24-5.57-13.76-8.49-3.46-2.3-6.19-5.54-9.65-7.8-7.59-1.03-15.29-1.29-22.92-0.53-9.34 0.97-18.64-1.34-27.98-0.47-11.02 0.93-22.03-1.06-33.04 0.07-10.33 0.86-20.67-1.2-30.97 0.1-6.02 0.75-12.06 0.21-18.07-0.2-5.87-0.41-11.73 0.2-17.53 0.94-0.66 4.41-1.14 9.02-3.79 12.78 0.33-4 1.37-7.97 0.95-11.99-0.94-0.98-2.55-1.17-3.63-0.41-1.87 3.77-2.56 8.29-5.63 11.37-4.58 2.63-9.75 4.15-14.19 7.04-2.35 2.12-4.57 4.44-7.53 5.7-1.5 2.54-2.78 5.2-4 7.88-0.95-0.3-1.87-0.59-2.77-0.88-0.88 2.2-1.81 4.36-2.68 6.55-1.02-0.15-2.02-0.29-2.99-0.43-0.92 3.16-1.49 6.75-4.34 8.82-1.77 2.7-3.4 5.54-4.16 8.71-1.7 6.85-4.86 13.28-5.75 20.33-1.47 5.87-1.79 13.09-7.39 16.72-0.95 3.65-1.22 7.58-3.09 10.92-1.6 1.56-3.9 2.07-5.84 3.04-1.43 7.43-3.25 14.8-3.82 22.37-1.24 7.59-2.88 16.37-9.77 20.94-5.12 3.28-10.71 5.77-16.06 8.62-4.86-1.87-9.45-4.81-14.91-4.19-1.01 0.62-2.02 1.2-3.01 1.76-5.97-5.13-12.43-10.54-14.95-18.29-2.21-8.29 1.18-16.56 3.58-24.4 1.84-6.41 4.01-12.75 5.11-19.34-1.15-1.29-2.35-2.51-3.24-3.96 1.95-8.81 6.28-17.05 7.04-26.14-0.06-3.01-0.95-5.94-0.97-8.95-0.13-4.68 1.59-9.11 2.2-13.7-1.45-2.79-1.51-5.98-1.84-9.02-5.42 8.39-10.22 17.33-13.27 26.88-1.94 5.92-4.96 11.53-5.78 17.77-0.66 10.25-4.98 19.74-8.81 29.12 1.62-9.49 5.09-18.56 6.13-28.15 0.99-8.11 4.03-15.77 5.37-23.81 0.91-5.29 2.83-10.44 2.89-15.86 0.01-3.7 0.64-7.53-1.03-11-1.76 2.02-3.33 4.19-4.93 6.32-1.16-5.57 0.43-11.13 1.04-16.66 0.65-5.33 2.35-10.44 3.52-15.66-5.37-0.1-10.72 0.39-16.07 0.44-9.36 0.26-18.7-1.08-28.06-0.33-10.32 0.69-20.59-1.32-30.9-0.56-8.93 0.31-17.86-0.28-26.77-0.6-0.86 9.23 1.93 18.87-1.3 27.79-1.54 4.91-6.82 6.42-11.1 8.03-0.66 7.34-1.14 14.7-2.08 22.01-0.41 3.62-1.35 7.24-0.89 10.91 0.96 8.01 1.7 16.05 3.17 23.98 0.95 3.32-1.14 6.46-0.76 9.74 1.96 9 3.1 18.19 5.9 27 2.16 6.5 2.2 13.47 1.16 20.18-1 4.75-5.04 7.92-8.07 11.42-3.77 4.31-9.1 6.67-13.28 10.5-0.97-0.45-1.92-0.9-2.84-1.34-3.43 0.49-6.77-0.08-9.85-1.57-5.57-2.86-9.63 4.76-15.22 3.21-3.08-0.78-6.3-1.28-9.3 0.04-7.48-4.74-15.77-8.46-22.2-14.65-4.42-6.55-3.55-15.05-3.13-22.54 0.19-13.31 0.41-26.63 0.47-39.95 0.14-4.63-2.62-8.55-4.04-12.77-3.17-8.27-6.36-16.55-8.75-25.09-0.91-3.36-2.09-6.68-4.16-9.51-0.08-0.75-0.23-2.26-0.31-3.01-2.72-0.19-5.09 1.47-7.72 1.58-5.05-0.66-7.46-5.83-8.49-10.24-1.69-7.57-2.6-15.29-3.66-22.97-0.63-4.4-3.03-8.23-4.57-12.33-8.01 1.05-16.14 1.03-24.19 0.54-9.67-1.06-19.33 1.12-29.01 0.36-12.01-1.1-24.01 0.95-36.01-0.05-7.7-0.76-15.38 0.5-23.08 0.16-6.37-0.01-12.71-1.05-19.07-0.42-8.96 0.73-17.94 0.09-26.87-0.58-10.01 0.59-20.05 0.95-30.05 0.16-9.33 0.41-18.67 1.37-28.01 0.64-8-0.71-15.97 0.91-23.96 0.43-6.3-0.03-12.59-0.71-18.88-0.37-1.76 4.55-4.62 8.68-5.51 13.53-0.94 4.35-1.96 8.71-3.66 12.83-1.4 3.74-5.62 5.88-5.97 10.11-2.77 13.82-5.13 27.81-10.01 41.09-0.75 2.2-1.89 4.43-1.53 6.82 1.54 11.68 3.18 23.35 4.29 35.08 0.39 4.38 2.02 8.56 2.2 12.97 0.2 8.15-1.66 17.21-8.47 22.45-5.12 5.13-11.63 8.39-17.25 12.87-5.29-1.41-10.79-2.26-16.26-2.07-3.94 0.94-7.52 3-11.47 3.89-3.44-2.87-7.81-4.4-10.96-7.61-2.69-2.71-6.12-4.49-8.86-7.12-5.03-5.71-6.15-13.88-5.55-21.22 1.64-11.98 2.04-24.1 2.21-36.17-4.61-17.34-7.82-35.05-11.81-52.55-2.22-0.31-5.33 0.02-6.2-2.59-3.68-8.51-6.03-17.64-6.64-26.9-0.33-5.99-3.57-11.2-5.59-16.7-7.02-0.03-14.04 0.55-21.05 0.13-11.36-0.94-22.72 1.16-34.08 0.22-9-0.8-17.95 1.03-26.94 0.66-7.04-0.23-14.07-0.65-21.09 0.12-10.1 0.96-20.21-0.86-30.3 0.12-6.25 0.32-12.54 0.49-18.78-0.07-6.63-0.65-13.27 0.24-19.9 0.28-7.36 0.28-14.68-1.17-22.04-0.63-7.94 0.53-15.9 0.72-23.84 0.16-8.04-0.69-16.05 0.81-24.09 0.56-6.03 0-12.04-0.92-18.07-0.59-7.62 0.36-15.25 0.82-22.86 0.12-9.02-0.85-18.04 0.48-27.07 0.02-5.59-0.05-11.16-0.99-16.75-0.53 0.17 3.52 0.38 7.04 0.81 10.53-0.41 0.3-1.22 0.9-1.63 1.19-0.09 3.46-2.27 5.85-4.89 7.79 0.33 15.59 1.98 31.14 2.98 46.71 0.64 4.85 2.81 9.33 4.68 13.8 3.73 7.8 6.75 15.9 10.03 23.9 1.84 5.26 4.3 10.69 3.67 16.4-1.38 6.94-5.87 12.59-9.93 18.16-4.39-0.18-8.76-0.47-13.12-0.92-3.86 3.26-8.3 5.66-12.67 8.14-4.28-1.58-9.09-2.05-12.79-4.92-7-5.17-11.07-13.4-13.7-21.48-1.61-7.52-4.64-14.61-6.63-22.02-0.96-3.64-3.1-6.76-5.41-9.66-4.14-5.22-7.3-11.19-11.95-16-4.96-5.24-8.42-11.61-12.63-17.41-3.92-5.87-7.47-11.97-11.15-17.99-1.61-2.66-4.65-3.86-6.74-6.04-3.67-3.57-5.25-8.73-9.11-12.12-5.74-5.07-9.27-12-14.11-17.83-1.43-1.83-4.02-1-5.98-1.01-10.29 1.13-20.64 0.89-30.95 0.39-11 1.02-22.05 0.82-33.06 0.22-10.16 0.83-20.35 0.76-30.54 0.92-4.03-1.56-8.37-0.44-12.54-0.79-4.84-0.18-10.28-1.05-14.47 1.96-14.81 0.19-29.62-0.08-44.42-0.32-9.63-0.2-19.37 0.72-28.89-1.1-5.68-0.89-11.43-0.11-17.14-0.19-8.02 0.33-15.99-1.33-24-0.48-6.2 0.62-12.48-0.19-18.62 0.3-2.44 3.68-4.54 7.67-8.03 10.51-3.51-2.16-7.57-1-11.08 0.48-6.25-0.91-12.76 0.37-18.32 3.32-0.61 0.89-1.24 1.76-1.89 2.62-4.66 1.01-9.39-0.08-14.06-0.26-8.39-0.05-16-4.01-23.86-6.43-3.86-0.42-7.25-2.51-11.1-2.99-6.69-1.1-12.03-5.53-18.12-8.12-2.82-1.33-6-0.82-8.99-0.69-8.95 0.71-17.9-0.57-26.84-0.49-11 0.88-22.03 0.44-33.01-0.12-10.65 0.91-21.33 0.73-31.97 0.1-10.68 1.04-21.39 0.85-32.08 0.26-9.34 0.55-18.72 1.05-28.07 0.31-6.98-0.72-13.95 0.5-20.94 0.48-4.37 0.08-8.72-0.34-13.07-0.62-7.31-0.56-14.61 0.66-21.92 0.37-5.99-0.04-11.95-0.82-17.94-0.87-7.99 0.49-16.02 0.62-24.01 0-10.33-1.4-20.73 0.85-31.09-0.22-9.65-1.14-19.31 0.66-28.97 0.17-6.65-0.29-13.32-0.96-19.96-0.17-11.7 1.22-23.42-1.3-35.1 0.18-7.65 0.85-15.31-0.24-22.96-0.41-6.01-0.15-11.97 0.88-17.97 0.78-7.29-0.11-14.56-1.16-21.86-0.68-7.06 0.44-14.16 0.56-21.22 0.09-9.65-1.07-19.31 0.89-28.98 0.11-6.97-0.57-13.97-0.74-20.94-0.13-8 0.46-15.98-0.37-23.96-0.66-5.35 0.25-10.68 0.71-16.04 0.54v-14.48c4.67-0.21 9.34-0.09 13.97 0.59 7.02 0.95 14.01-1.24 21.03-0.4 2.66 0.29 5.34 0.39 8.01 0.19 6.71 0.54 13.49 0.77 20.19-0.03 3.92-0.5 7.85 0.11 11.77 0.29 12.33 0.7 24.68-0.28 37.02 0.16 11 0.42 22.01-0.65 33.01 0 11.33 0.56 22.66-0.57 33.99-0.04 7.68 0.38 15.37 0.1 23.05-0.09 9.75-0.23 19.51 0.86 29.23-0.26 11.56 0.13 23.17 0.9 34.73-0.08 11.32 0.67 22.66 0.63 33.99 0.35 7.61-0.34 15.15 1.43 22.75 0.8 11.52-1.81 23.08 1.37 34.65 0.12 13.53-0.97 27.12 1.38 40.61-0.5 9.36-0.19 18.78 1.46 28.13 0.16 9.29-1.37 18.62 1.11 27.93 0.05 8.87-1.22 17.84-0.48 26.74-0.11 16.08-1.16 32.19 0.17 48.29-0.57-1.49-5.46-6.22-9.05-8.56-14.06-2.47-5.11-5.56-10.36-5.23-16.24 0.22-4.65 0.13-9.43 1.82-13.85 1.39-3.33 0.11-6.87 0.14-10.3 0.06-5.24 0.86-10.49 2.57-15.45 1.31-4.02 1.19-8.3 1.89-12.43 2.35-5.04 5.08-10.15 9.53-13.66 0.2-0.79 0.4-1.57 0.61-2.36 5.04-3.61 10.44-6.68 16.2-9 4.38-2.95 8.3-6.55 12.81-9.34 6.8-5.12 14.93-7.86 22.29-12 4.02-2.49 8.97-1.07 13.28-2.58 3.56-1.07 7.47-2.82 11.12-1.01 4.72 2.48 10.21 0.53 15.17 2.01 2.39 0.56 4.76 1.89 7.29 1.35 4.24-0.94 7.94-3.38 12-4.81 4.86 0.49 8.74 4.01 13.06 6.02 3-2.52 5.72-6.21 9.92-6.6 4.44-0.15 7.59 3.36 10.04 6.6 1.59 0.03 3.23-0.26 4.81 0.16 1.76 1.01 3.25 2.48 5.11 3.36 6.69-1.04 13.31-4.28 20.21-2.58-1.48 1.77-3.38 3.09-5.47 4.03-4.27 2.02-8.32 4.46-12.36 6.88-0.18 2.08-0.32 4.17-0.43 6.26 2.73 0.84 5.86 1.14 7.99 3.26 1.69 1.78 2.73 4.05 4.01 6.13 5.25-3.09 10.21-6.63 14.95-10.46 4.22-2.52 8.91-5.41 13.99-5.09 0.3 6.37-2.7 12.24-5.13 17.95-4.81 10.96-12.1 20.5-18.87 30.3-0.4 4.31-0.15 8.63-0.11 12.95-0.99 6.24-3.81 12.18-7.95 16.95 6.93 6.02 14.72 10.9 22.45 15.81 1.42 0.84 2.44 2.14 3.41 3.45-10.94-3.08-22.17-4.96-33.25-7.45-1.39-0.34-2.83-0.22-4.22-0.12-0.65-0.17-1.28-0.33-1.91-0.49-2.19 3.53-4.75 6.84-6.59 10.59-1.46 3.34-5.27 4.65-7.12 7.7-0.91 1.5-1.57 3.13-2.25 4.74-1.17 1.29-2.32 2.59-3.44 3.91 8.34 0.58 16.72 1.79 25.09 0.94 11.7-0.99 23.44 2.06 35.08-0.08 21.59-0.41 43.19-0.57 64.79-0.39 4.66-0.26 8.88 3.02 13.57 1.94 4.47-1.05 8.95-2.38 13.61-2.09 8.3 0.29 16.64 0.06 24.91 1.03 9.35 1.08 18.74-0.42 28.11-0.02 12.42 0.79 24.75-1.36 37.17-0.94-2.03-4.4-3.93-8.95-6.86-12.85-2.73-2.99-6.21-5.63-7.22-9.77-1.14-4.93-1.62-10.01-3.2-14.84-3.45-10.28-4.16-21.25-4.23-32.02-0.15-6.79 4.07-12.4 7.19-18.07 2.58-3.87 2.64-8.82 5.29-12.64 2.81-4.15 5.9-8.12 9.31-11.8 2.97-3.15 4.7-7.19 6.91-10.86 2.1-3.5 1.95-8.24 5.41-10.87 5.45-4.34 8.31-10.93 13.35-15.64 1.51-1.48 3-2.99 4.47-4.51 4.52-5.2 10.89-8.39 17.2-10.87z"/>
</svg>
