<?xml version="1.0" standalone="no"?>
<!DOCTYPE svg PUBLIC "-//W3C//DTD SVG 20010904//EN"
 "http://www.w3.org/TR/2001/REC-SVG-20010904/DTD/svg10.dtd">
<svg version="1.0" xmlns="http://www.w3.org/2000/svg"
 width="661.000000pt" height="531.000000pt" viewBox="0 0 661.000000 531.000000"
 preserveAspectRatio="xMidYMid meet">

<g transform="translate(0.000000,531.000000) scale(0.100000,-0.100000)"
fill="#000000" stroke="none">
<path d="M72 5232 c2 -5 55 -91 118 -191 63 -101 138 -219 165 -264 l50 -81
144 -43 c149 -44 186 -60 116 -50 -22 3 -86 9 -143 13 l-102 7 29 -68 29 -68
257 -81 c292 -92 292 -94 0 -73 -104 8 -193 12 -197 10 -4 -2 -2 -14 6 -26 7
-12 50 -91 96 -174 76 -140 86 -153 114 -157 17 -3 150 -21 296 -41 424 -59
570 -94 390 -95 -98 0 -246 15 -505 51 -165 23 -157 22 -168 20 -12 -2 98
-211 153 -289 105 -150 176 -170 494 -136 191 20 350 16 389 -10 15 -10 27
-24 27 -30 0 -7 -46 -27 -102 -45 -266 -82 -478 -91 -597 -25 -24 13 -45 24
-47 24 -2 0 15 -30 37 -67 137 -224 389 -471 569 -557 62 -30 71 -31 225 -35
115 -4 147 -7 115 -12 -29 -5 -16 -6 40 -3 47 2 96 7 110 10 19 4 21 3 11 -4
-8 -6 -51 -16 -96 -22 -59 -8 -82 -16 -82 -26 0 -8 7 -12 16 -10 9 3 30 8 46
11 27 6 26 4 -12 -18 -100 -60 -169 -136 -198 -217 -8 -22 -12 -40 -10 -40 3
0 26 15 52 34 175 123 385 203 441 168 7 -5 -22 -19 -80 -37 -88 -28 -248 -98
-248 -110 0 -3 18 4 39 15 73 37 281 107 281 95 0 -2 -30 -20 -67 -41 -38 -20
-124 -69 -192 -107 l-125 -70 32 -27 c18 -14 32 -29 32 -32 0 -3 -28 -13 -62
-23 -123 -34 -577 -167 -838 -246 -558 -169 -611 -191 -717 -295 -134 -131
-155 -281 -66 -462 46 -94 122 -173 200 -210 50 -23 70 -27 148 -27 62 1 104
6 135 19 43 17 573 156 595 156 6 0 132 -121 280 -268 149 -147 317 -306 375
-352 148 -118 379 -268 485 -314 50 -22 115 -54 145 -72 74 -44 277 -116 425
-150 114 -27 132 -28 365 -29 268 0 274 1 510 72 63 19 147 43 185 53 395 107
1338 414 2135 695 58 21 117 48 132 62 33 31 64 102 73 168 14 111 -50 294
-140 393 -86 95 -127 101 -305 46 -142 -44 -257 -71 -335 -79 -56 -6 -293 6
-415 21 -30 4 -52 4 -49 1 9 -10 187 -44 274 -53 l80 -8 -40 -12 c-173 -54
-710 85 -1212 314 -73 33 -133 58 -133 55 0 -9 349 -172 495 -231 131 -52 329
-119 490 -166 l50 -14 -45 5 c-213 24 -635 161 -939 304 -57 27 -106 48 -108
46 -6 -7 352 -176 487 -230 126 -51 339 -123 439 -147 80 -20 35 -20 -77 0
-190 34 -474 128 -717 236 -66 30 -122 54 -125 54 -17 0 108 -64 245 -126 185
-82 311 -131 468 -179 117 -36 110 -46 -15 -20 -169 35 -367 101 -578 191 -68
29 -126 51 -128 49 -7 -6 237 -120 384 -179 76 -30 184 -68 239 -83 122 -34
95 -42 -46 -13 -132 27 -368 106 -512 171 -144 65 -155 68 -82 25 86 -51 319
-153 465 -203 130 -44 127 -55 -8 -27 -129 27 -303 87 -484 168 -95 42 -66 20
50 -38 142 -71 212 -101 362 -153 113 -39 120 -42 70 -37 -122 13 -341 79
-503 153 -89 40 -98 39 -22 -2 108 -58 258 -124 358 -157 54 -18 96 -34 95
-35 -2 -2 -44 3 -94 10 -95 15 -253 63 -369 115 -75 32 -62 15 20 -27 73 -38
202 -93 265 -114 l55 -18 -41 0 c-58 -1 -220 42 -317 83 -44 20 -82 34 -84 32
-6 -5 173 -96 252 -128 l70 -29 -65 5 c-65 5 -140 25 -238 65 -29 12 -51 17
-48 13 5 -8 186 -100 235 -119 21 -8 2 -16 -130 -53 -84 -23 -170 -51 -190
-61 -49 -24 -110 -88 -139 -145 -22 -43 -25 -62 -25 -149 0 -89 3 -106 27
-155 15 -30 40 -70 56 -89 l28 -34 282 92 c155 50 289 94 298 98 14 5 15 1 9
-28 -19 -94 -30 -115 -95 -180 -142 -144 -417 -232 -760 -246 -461 -17 -929
156 -1410 523 -184 140 -361 312 -854 828 -322 336 -439 415 -621 418 -36 0
-65 3 -65 5 0 15 390 136 1239 383 l213 62 59 -41 c32 -22 65 -41 73 -41 8 0
65 18 126 39 60 22 110 38 110 36 0 -3 -22 -16 -50 -30 -28 -14 -50 -28 -50
-30 0 -3 23 6 52 21 28 14 70 32 92 40 37 12 39 12 21 -1 -87 -65 -133 -107
-171 -158 -25 -33 -42 -62 -40 -64 3 -3 20 6 38 20 53 40 159 86 227 98 34 6
65 9 68 5 8 -7 21 2 -134 -95 -73 -45 -133 -86 -133 -90 0 -16 139 -111 162
-111 12 0 66 11 118 25 52 14 99 25 104 25 4 0 -18 -18 -50 -39 -33 -22 -77
-58 -99 -81 -40 -42 -40 -42 38 13 42 31 101 64 130 75 99 37 92 39 116 -24
11 -31 21 -59 21 -63 0 -5 -37 -11 -82 -14 -170 -12 -253 -72 -202 -146 39
-55 206 -91 428 -91 207 0 303 23 339 81 15 24 0 65 -32 89 -47 33 -174 61
-305 67 -111 6 -119 5 -113 -11 4 -10 9 -30 12 -44 3 -15 -10 17 -29 71 -70
198 -162 419 -233 561 -19 37 -32 70 -29 73 8 8 123 -233 181 -378 l50 -127
110 -4 c61 -3 119 -9 130 -12 18 -7 18 -6 3 4 -10 6 -59 16 -110 23 l-93 13
60 19 c47 16 87 20 185 20 112 0 132 -3 188 -27 34 -14 62 -24 62 -22 0 2 -22
15 -50 29 -84 42 -171 58 -298 52 -68 -3 -110 -1 -104 5 5 5 42 27 83 49 73
39 61 45 -15 7 l-39 -20 22 30 c32 45 128 130 174 153 22 12 69 27 106 34 60
12 62 13 25 14 -96 2 -204 -50 -308 -148 -56 -52 -54 -49 27 73 33 49 54 85
48 82 -6 -4 -43 -53 -81 -108 -39 -56 -70 -98 -70 -94 0 3 14 35 31 69 44 86
105 251 120 324 12 60 13 61 49 66 51 7 134 -8 186 -34 51 -24 104 -65 250
-189 277 -238 540 -410 886 -580 179 -89 446 -200 477 -200 34 1 -27 37 -145
84 -178 73 -481 224 -637 318 -189 114 -349 230 -562 408 -218 182 -283 219
-402 227 -72 5 -80 8 -76 24 4 12 -33 77 -104 186 -133 203 -277 442 -327 541
-20 39 -42 72 -50 72 -13 0 -86 -73 -139 -140 -22 -29 -19 -18 18 58 26 52 43
92 38 89 -4 -3 -51 -92 -103 -198 -52 -105 -96 -185 -98 -176 -8 40 47 192
125 347 45 91 83 172 83 181 0 32 -80 177 -137 249 -107 133 -341 342 -444
395 -28 15 -29 15 -35 -12 -22 -102 -102 -359 -109 -351 -2 2 2 50 8 107 13
129 -1 299 -33 384 -17 46 -32 66 -68 93 -48 35 -476 254 -498 254 -14 0 -21
-33 -30 -143 -4 -43 -10 -79 -13 -82 -4 -2 -37 69 -74 159 l-68 162 -52 26
-53 26 3 -72 c3 -85 -3 -77 -12 17 -5 54 -11 69 -27 78 -20 11 -21 10 -16 -55
3 -37 3 -64 -1 -61 -3 4 -8 34 -11 68 l-5 62 -200 102 c-218 111 -242 122
-452 194 -151 52 -157 54 -151 41z m271 -152 c800 -542 1567 -1362 2085 -2226
109 -182 206 -363 199 -370 -3 -3 -35 50 -72 118 -199 361 -501 808 -754 1113
-444 536 -988 1039 -1476 1365 -122 81 -161 110 -151 110 4 0 80 -49 169 -110z
m83 -249 c44 -11 114 -27 157 -36 43 -10 76 -19 74 -22 -8 -7 -313 60 -325 72
-9 9 14 5 94 -14z m1004 -441 c-7 -63 -17 -126 -21 -140 -6 -17 -7 -11 -3 23
14 125 24 227 26 277 l2 55 4 -50 c2 -27 -2 -102 -8 -165z m87 18 c-6 -124
-24 -264 -33 -255 -3 2 2 57 11 121 8 64 15 151 15 192 0 40 3 74 6 74 4 0 4
-60 1 -132z m-944 105 c-7 -2 -19 -2 -25 0 -7 3 -2 5 12 5 14 0 19 -2 13 -5z
m207 -28 c63 -8 133 -16 155 -18 30 -3 25 -4 -19 -5 -61 -2 -249 22 -301 39
-27 8 -26 8 10 4 22 -3 92 -12 155 -20z m829 -120 c1 -80 -22 -252 -35 -264
-4 -3 -4 10 0 29 15 75 27 228 22 295 -4 46 -2 61 3 45 5 -14 9 -61 10 -105z
m88 -130 c-4 -60 -11 -123 -16 -140 -7 -22 -8 -8 -3 50 4 44 6 123 6 175 -1
78 1 89 9 60 5 -19 7 -84 4 -145z m-1040 19 c-3 -3 -12 -4 -19 -1 -8 3 -5 6 6
6 11 1 17 -2 13 -5z m143 -23 c58 -11 152 -24 210 -31 243 -27 248 -27 200
-29 -90 -2 -462 48 -514 69 -32 13 -10 11 104 -9z m1267 -103 c-3 -8 -6 -5 -6
6 -1 11 2 17 5 13 3 -3 4 -12 1 -19z m-1097 -62 c113 -14 250 -28 305 -32 55
-4 94 -9 86 -12 -34 -12 -644 57 -660 74 -3 4 10 4 29 1 19 -4 127 -18 240
-31z m1064 -63 c-27 -79 -134 -316 -140 -310 -2 2 21 57 50 123 30 65 67 156
83 201 15 46 29 79 31 74 2 -5 -9 -45 -24 -88z m-367 25 c-3 -7 -5 -2 -5 12 0
14 2 19 5 13 2 -7 2 -19 0 -25z m422 -90 c-32 -94 -133 -318 -143 -318 -3 0 6
26 21 58 50 109 112 261 129 318 10 31 20 51 22 46 2 -6 -11 -53 -29 -104z
m181 -129 c-29 -87 -139 -333 -146 -326 -2 2 21 57 51 123 29 65 69 164 87
220 18 55 34 95 36 89 1 -6 -11 -54 -28 -106z m75 -29 c-27 -104 -150 -389
-162 -377 -2 3 9 31 25 63 36 72 116 273 132 333 6 23 13 41 15 39 2 -2 -2
-28 -10 -58z m-752 -37 c-7 -2 -21 -2 -30 0 -10 3 -4 5 12 5 17 0 24 -2 18 -5z
m-103 -14 c-25 -4 -144 -10 -265 -13 l-220 -5 195 9 c107 5 204 11 215 13 11
2 43 4 70 4 l50 0 -45 -8z m-507 -6 c-13 -2 -33 -2 -45 0 -13 2 -3 4 22 4 25
0 35 -2 23 -4z m607 -74 c-61 -14 -278 -29 -414 -27 -124 1 -121 2 69 9 110 5
229 12 265 17 86 12 127 13 80 1z m-603 -15 c-3 -3 -12 -4 -19 -1 -8 3 -5 6 6
6 11 1 17 -2 13 -5z m943 -344 c-61 -15 -289 -30 -429 -28 -128 1 -123 2 74 9
116 5 239 12 275 17 86 12 127 13 80 2z m-617 -17 c-7 -2 -19 -2 -25 0 -7 3
-2 5 12 5 14 0 19 -2 13 -5z m1258 -125 c-105 -153 -168 -232 -90 -113 66 101
169 245 175 245 3 0 -36 -60 -85 -132z m-1084 -44 c-3 -3 -12 -4 -19 -1 -8 3
-5 6 6 6 11 1 17 -2 13 -5z m368 -21 c207 -6 239 -9 160 -13 -114 -6 -400 6
-466 20 l-44 9 45 -4 c25 -3 162 -8 305 -12z m855 -206 c-55 -80 -106 -149
-112 -153 -7 -4 23 44 66 106 92 134 140 199 144 195 1 -1 -42 -68 -98 -148z
m-1173 117 c-3 -3 -12 -4 -19 -1 -8 3 -5 6 6 6 11 1 17 -2 13 -5z m368 -24
l200 -8 -230 4 c-126 3 -250 9 -275 14 -37 7 -32 8 30 3 41 -3 165 -9 275 -13z
m288 3 c-7 -2 -19 -2 -25 0 -7 3 -2 5 12 5 14 0 19 -2 13 -5z m-63 -104 c-122
-9 -440 -9 -505 -1 -27 4 96 7 275 8 199 0 288 -3 230 -7z m790 -66 c-53 -90
-184 -292 -188 -288 -2 2 3 14 11 27 101 162 190 298 194 298 3 0 -5 -17 -17
-37z m34 -110 c-51 -89 -96 -155 -100 -150 -5 5 116 197 124 197 2 0 -9 -21
-24 -47z m55 -60 c-25 -43 -39 -60 -39 -50 0 9 51 87 57 87 3 0 -5 -17 -18
-37z m-469 -83 c0 -5 -17 -12 -37 -16 -56 -10 -198 -61 -278 -100 -77 -37 -61
-18 20 24 58 29 252 101 278 101 9 1 17 -3 17 -9z m524 -2 c-31 -56 -217 -348
-221 -348 -2 0 6 17 18 38 29 48 168 270 187 300 15 23 28 31 16 10z m-194
-137 c-40 -61 -74 -111 -76 -111 -6 0 12 33 51 95 18 27 44 70 59 93 15 24 30
42 32 39 3 -3 -27 -55 -66 -116z m-296 81 c3 -5 -33 -19 -81 -31 -47 -12 -128
-39 -179 -60 -52 -21 -94 -37 -94 -35 0 10 135 70 224 99 109 37 122 39 130
27z m212 -69 c-49 -73 -63 -80 -20 -10 51 82 56 89 61 84 2 -3 -16 -36 -41
-74z m-12 -322 c4 -5 -13 -12 -36 -16 -62 -11 -175 -51 -227 -82 -29 -17 -41
-20 -32 -10 18 23 131 77 206 98 71 21 82 22 89 10z m-2035 -383 c-6 -12 -11
-49 -11 -83 0 -91 37 -155 117 -199 l30 -17 -29 6 c-37 8 -73 36 -105 81 -33
46 -42 154 -17 202 9 18 19 32 22 32 2 0 -1 -10 -7 -22z m-48 -27 c-14 -26
-14 -104 1 -152 15 -52 73 -117 122 -140 23 -10 33 -19 23 -19 -25 0 -88 34
-113 62 -59 64 -79 166 -49 245 10 26 20 42 22 36 3 -7 0 -21 -6 -32z m-50
-30 c-12 -49 -13 -67 -2 -114 18 -83 64 -146 130 -179 30 -16 47 -28 37 -28
-52 0 -143 78 -174 149 -21 49 -20 157 1 199 10 17 19 32 21 32 1 0 -4 -26
-13 -59z m-82 -1 c-10 -28 -19 -72 -19 -100 0 -107 77 -232 168 -272 48 -22
55 -30 14 -19 -138 40 -229 203 -193 346 10 40 37 95 46 95 2 0 -5 -23 -16
-50z m2559 40 c45 -6 95 -16 110 -22 26 -11 25 -11 -28 -20 -118 -20 -500 6
-473 32 18 19 270 25 391 10z m-2605 -50 c-51 -143 17 -325 146 -392 29 -15
46 -28 37 -28 -28 0 -89 37 -128 77 -86 89 -114 234 -67 344 26 61 34 60 12
-1z m88 22 c-18 -34 -13 -155 8 -205 26 -59 74 -113 130 -143 25 -13 35 -22
21 -18 -110 27 -189 137 -190 260 0 56 24 143 36 131 3 -3 1 -14 -5 -25z
m-134 -39 c-52 -157 23 -346 166 -417 59 -30 43 -35 -20 -7 -55 26 -116 90
-150 159 -37 76 -40 201 -6 275 12 26 24 47 26 47 2 0 -5 -26 -16 -57z m-49
-25 c-24 -76 -20 -156 12 -242 30 -78 114 -168 183 -195 29 -11 43 -20 31 -20
-34 -1 -121 48 -158 89 -79 88 -116 210 -96 314 11 54 34 116 44 116 2 0 -5
-28 -16 -62z m-58 -2 c-14 -38 -12 -141 4 -201 29 -110 109 -216 196 -260 59
-30 157 -49 217 -42 37 4 43 3 28 -6 -36 -20 -168 -21 -224 -2 -95 31 -198
147 -242 271 -24 70 -23 176 4 238 19 43 34 45 17 2z m5957 -105 c84 -61 161
-220 170 -351 4 -61 1 -86 -16 -132 -12 -31 -28 -62 -36 -68 -19 -16 -19 -11
1 36 36 87 -2 271 -68 332 l-26 23 25 -49 c62 -126 62 -333 0 -377 -34 -24
-37 -18 -15 33 43 95 17 260 -53 336 l-29 31 24 -55 c30 -69 50 -189 42 -247
-9 -65 -40 -129 -65 -136 -12 -3 -21 -2 -19 1 31 58 40 95 40 162 0 89 -29
176 -74 224 l-29 31 21 -42 c32 -67 53 -170 47 -243 -5 -79 -36 -155 -66 -163
-26 -6 -26 -6 1 46 34 66 31 191 -6 274 -16 34 -37 70 -47 79 -19 17 -19 16 0
-27 49 -111 53 -271 10 -350 -13 -24 -32 -45 -41 -47 -16 -3 -15 2 5 45 44 97
23 266 -43 344 l-29 34 26 -65 c35 -88 43 -224 18 -300 -19 -56 -45 -90 -71
-90 -13 0 -13 4 4 25 67 85 48 309 -34 386 l-25 23 27 -59 c23 -49 28 -78 32
-161 5 -111 -5 -158 -45 -211 -41 -55 -53 -40 -21 25 28 53 29 63 26 147 -5
96 -31 177 -69 211 -20 18 -20 18 0 -28 32 -76 46 -187 31 -260 -14 -73 -42
-133 -69 -148 -30 -15 -30 -14 0 44 35 70 44 139 29 213 -14 64 -49 142 -76
164 -14 12 -14 8 4 -26 40 -79 52 -210 29 -302 -15 -55 -52 -119 -76 -128 -24
-9 -23 1 3 39 45 67 56 163 31 261 -16 59 -61 142 -72 131 -3 -3 -1 -12 5 -19
20 -24 42 -130 42 -204 0 -81 -20 -152 -57 -200 -35 -47 -60 -44 -28 3 36 53
48 108 43 195 -3 57 -12 91 -32 132 -34 71 -65 99 -34 31 20 -42 23 -66 23
-174 0 -111 -3 -130 -23 -168 -13 -24 -32 -52 -42 -62 -25 -25 -49 -27 -28 -2
70 79 81 248 23 362 -24 48 -57 84 -40 44 32 -78 38 -106 38 -199 1 -110 -19
-174 -70 -227 -40 -42 -46 -34 -13 20 65 104 60 273 -11 373 -26 37 -35 33
-14 -7 45 -87 45 -258 0 -349 -23 -49 -71 -102 -82 -91 -2 2 10 24 27 48 62
88 65 252 5 354 -32 54 -42 53 -19 -2 25 -58 31 -216 11 -285 -16 -53 -77
-139 -99 -139 -6 0 -4 8 4 18 66 74 89 237 49 343 -12 31 -31 65 -43 75 l-21
19 16 -30 c24 -49 40 -153 33 -225 -10 -93 -59 -195 -108 -221 -17 -9 -15 -3
10 32 43 60 66 156 57 233 -8 70 -38 146 -67 173 -19 16 -19 14 3 -27 21 -40
24 -58 24 -160 0 -129 -18 -186 -77 -248 -44 -44 -56 -40 -18 7 77 96 80 294
6 386 l-24 30 19 -58 c52 -156 4 -367 -96 -419 -19 -10 -19 -9 1 13 46 51 67
110 72 200 5 99 -12 164 -53 214 l-26 30 15 -30 c37 -77 44 -208 16 -305 -13
-48 -64 -126 -91 -140 -20 -11 -20 -10 4 22 43 56 60 114 60 208 0 67 -4 96
-22 137 -22 51 -66 105 -47 58 29 -70 35 -98 35 -165 1 -121 -29 -209 -90
-265 -32 -30 -32 -23 2 25 31 46 52 138 47 210 -5 67 -47 180 -67 180 -5 0 -2
-15 7 -32 13 -26 17 -60 17 -153 0 -134 -13 -178 -75 -248 -42 -48 -60 -48
-21 0 74 95 83 276 19 381 -27 43 -33 35 -11 -14 24 -55 24 -211 0 -281 -21
-59 -67 -127 -98 -144 -18 -9 -16 -4 9 27 44 55 64 117 65 204 2 85 -21 166
-55 196 l-21 19 18 -35 c12 -23 20 -65 23 -122 6 -121 -22 -212 -84 -277 l-45
-46 30 45 c42 61 65 158 58 238 -7 68 -33 138 -62 162 -17 14 -17 14 -1 -18
61 -118 28 -329 -65 -417 l-31 -30 30 48 c17 27 36 71 42 99 18 72 8 193 -18
245 -32 62 -41 60 -19 -5 38 -112 6 -284 -68 -368 -19 -21 -34 -34 -35 -28 0
6 7 17 15 24 8 6 24 37 36 68 42 108 26 276 -32 328 -19 17 -19 16 2 -31 19
-42 21 -62 17 -149 -5 -108 -23 -164 -74 -231 -35 -46 -50 -45 -19 1 69 102
72 297 5 376 l-20 23 16 -38 c49 -123 12 -320 -76 -402 l-33 -30 26 40 c41 62
57 121 57 203 0 87 -13 138 -46 178 l-23 29 20 -55 c27 -72 23 -198 -10 -282
-26 -68 -94 -145 -136 -154 -28 -7 -27 -4 26 49 137 134 141 336 11 496 -42
52 -140 118 -199 134 -24 6 -43 14 -43 17 0 4 42 18 93 33 145 41 1159 329
1402 397 121 34 301 86 400 115 214 63 247 66 302 26z m-4927 -241 c0 -3 -89
-28 -197 -54 -109 -27 -206 -51 -217 -54 -16 -4 -15 0 7 34 51 78 47 161 -10
225 -20 22 -34 41 -32 43 2 3 49 18 104 35 l100 30 122 -127 c68 -70 123 -129
123 -132z"/>
<path d="M1700 3467 c-25 -5 -166 -10 -313 -11 -178 -1 -255 -4 -230 -10 61
-14 418 -12 507 3 84 14 140 30 101 29 -11 0 -40 -5 -65 -11z"/>
<path d="M3109 2353 c-13 -16 -12 -17 4 -4 16 13 21 21 13 21 -2 0 -10 -8 -17
-17z"/>
<path d="M2712 1546 c-6 -15 -24 -28 -44 -34 -104 -30 -306 -125 -348 -164
-20 -19 -22 -28 -17 -77 17 -156 171 -663 250 -821 41 -83 43 -86 98 -107 83
-33 188 -46 319 -40 140 6 198 25 240 75 97 117 379 778 380 890 0 28 -8 38
-65 80 -36 26 -110 71 -165 101 -93 49 -100 55 -100 83 0 25 -3 29 -17 23 -10
-4 -79 -10 -153 -12 -118 -5 -241 4 -340 23 -21 5 -28 1 -38 -20z m138 -205
c12 -23 -12 -54 -38 -49 -21 4 -36 32 -29 52 9 22 54 20 67 -3z m503 -27 c9
-10 -4 -34 -18 -34 -17 0 -28 17 -20 30 7 11 28 13 38 4z m-766 -100 c-3 -3
-12 -4 -19 -1 -8 3 -5 6 6 6 11 1 17 -2 13 -5z m118 -20 c50 -9 192 -19 320
-23 l230 -8 -176 -1 c-186 -2 -337 9 -429 32 -76 19 -53 19 55 0z m662 -10
c-3 -3 -12 -4 -19 -1 -8 3 -5 6 6 6 11 1 17 -2 13 -5z m-49 -11 c-10 -2 -26
-2 -35 0 -10 3 -2 5 17 5 19 0 27 -2 18 -5z m-709 -63 c60 -12 162 -25 227
-29 l119 -8 -88 -2 c-121 -2 -373 39 -396 65 -3 4 2 4 12 1 9 -4 66 -16 126
-27z m1 -51 c52 -11 151 -24 220 -29 l125 -9 -135 4 c-134 4 -257 24 -315 51
-16 8 -21 12 -10 8 11 -3 63 -15 115 -25z m50 -60 c30 -6 109 -14 175 -19
l120 -8 -130 3 c-117 3 -270 25 -284 42 -3 3 10 3 29 -1 19 -4 60 -12 90 -17z
m-100 -29 c41 -12 205 -38 270 -43 37 -3 34 -4 -17 -5 -61 -2 -234 27 -283 47
-33 13 -14 14 30 1z m69 -65 c42 -9 112 -20 156 -25 l80 -9 -90 4 c-49 2 -124
13 -165 23 -92 24 -83 27 19 7z m532 -28 c-13 -13 -26 -3 -16 12 3 6 11 8 17
5 6 -4 6 -10 -1 -17z m-536 -21 c33 -8 112 -19 175 -26 63 -6 117 -14 120 -17
17 -19 -349 32 -368 52 -8 8 8 6 73 -9z m30 -56 c33 -6 112 -18 175 -25 l115
-14 -103 5 c-102 4 -231 25 -275 45 -25 11 -29 11 88 -11z m-78 -36 c-3 -3
-12 -4 -19 -1 -8 3 -5 6 6 6 11 1 17 -2 13 -5z m82 -15 c27 -6 101 -16 163
-23 87 -10 100 -14 58 -15 -62 -1 -232 23 -270 38 -34 13 -12 13 49 0z m-42
-45 c-3 -3 -12 -4 -19 -1 -8 3 -5 6 6 6 11 1 17 -2 13 -5z m208 -29 c85 -10
98 -13 55 -14 -62 -1 -238 23 -248 34 -4 4 13 4 38 0 25 -4 95 -13 155 -20z
m-148 -30 c44 -8 120 -19 169 -25 l89 -9 -102 5 c-88 3 -229 27 -242 40 -6 6
0 5 86 -11z m28 -55 c33 -6 98 -15 145 -20 l85 -9 -105 5 c-99 4 -214 24 -228
40 -4 4 4 4 18 1 14 -4 52 -12 85 -17z m-3 -50 c35 -7 104 -15 153 -20 l90 -7
-76 -2 c-76 -1 -220 22 -249 41 -13 8 -12 9 2 4 9 -3 45 -10 80 -16z m1 -50
c23 -6 89 -14 147 -19 l105 -8 -82 -2 c-71 -1 -218 21 -232 34 -7 8 17 6 62
-5z m-3 -50 c24 -7 92 -15 150 -20 l105 -7 -85 -1 c-86 -2 -205 18 -237 38
-20 12 -22 13 67 -10z m10 -52 c25 -6 88 -14 140 -19 l95 -7 -110 3 c-66 2
-126 9 -150 18 -48 19 -37 21 25 5z"/>
<path d="M2010 880 c-12 -7 -12 -12 -2 -22 16 -16 119 -15 135 1 18 18 -10 31
-68 31 -27 0 -57 -5 -65 -10z"/>
<path d="M3422 243 c-38 -7 -19 -27 36 -36 83 -14 188 18 120 37 -25 6 -119 6
-156 -1z"/>
<path d="M2037 229 c-65 -7 -89 -21 -69 -41 10 -10 65 -13 205 -13 190 0 247
6 247 25 0 6 -12 15 -27 21 -31 12 -267 17 -356 8z"/>
</g>
</svg>
