<?xml version="1.0" encoding="UTF-8"?>
<svg version="1.1" viewBox="0 0 495.24 800" xmlns="http://www.w3.org/2000/svg">
 <g transform="translate(-299.98 -605.14)">
  <path d="m644.95 605.15c-1.5918 0.14041-3.1321 1.013-4.7449 1.0743-2.4884 0.0947-4.9922-1.4985-7.4083-0.89527-1.428 0.35657-3.8569 1.0755-3.6258 2.5291 0.22754 1.4315 3.0282 0.37398 4.163 1.2758 1.4168 1.1259 2.9447 2.906 2.7082 4.7002-0.0892 0.67625-1.4548 1.4324-1.4548 1.4324s-0.37214-2.3109-1.2534-2.8872c-0.555-0.36299-1.417-0.33031-1.992 0-1.4526 0.83433-1.307 3.1963-2.5291 4.342-1.1802 1.1065-3.122 1.1086-4.342 2.171-2.8123 2.4492-6.334 9.2212-6.334 9.2212-1.3029-0.0922-2.379 0.42187-3.4468 0.91765-4.1166 1.9114-3.3434 7.5756-7.0502 10.475 0 0-3.5414-0.39257-5.0582 0.35811-2.4501 1.2126-4.7741 3.4977-5.4164 6.155-0.92062 3.8092 2.8873 11.392 2.8873 11.392-1.7303 4.7582-1.3028 4.818 1.6338 9.4227-0.58615 2.9307-0.17068 5.0825 1.0743 7.9455-4.9929 2.0785-5.437 15.125 2.8872 16.092 1.0672 3.5572 1.9271 4.6364 5.6178 6.155-5.2374 4.1662-4.3097 12.161 4.8792 11.75-0.15005 3.5049 2.2144 3.5679 5.4387 5.9759l-1.3205 4.3644c-1.4437 0.38412-3.1368-0.0127-4.8344-0.38049-4.8595-2.0826-4.9161-2.8907-8.2589 1.0967-1.2914 1.3802-2.7922 2.7816-5.6625 4.3197-5.6735 0.93416-7.1522 4.843-8.8631 9.2212-0.55112 0.90432 0.82458 1.6138 2.8872 1.2758 1.8722-0.30682 3.2954-2.4456 5.7745-3.0663 2.9687-0.74327 6.1252 0.45057 9.0645 2.7082 1.1738 1.8314-0.16315 3.3018-1.8129 3.8049-3.3089 1.009-2.9759 1.3032-3.2678 4.8792 0 0-1.6707-0.77035-2.5291-1.0967-1.7821-0.67755-3.8772-1.1726-5.7745-0.98479-2.4186 0.23948-3.8824 1.5634-5.9759 2.7977-3.5139 2.0716-0.62232 3.746-1.7234 4.7002-1.1391 0.98702-2.9312 0.68105-4.4316 0.53716-2.362-0.22652-4.0221-2.7106-6.334-3.2453-2.8786-0.66588-4.9299-0.38026-7.7664 0.44763-6.4107 2.2526-9.9345 7.1433-5.6178 11.124 1.9146 1.5256 5.0794 0.61329 7.5202 0.80574 3.7868 0.2986 7.3797-0.35238 11.124 0.29096 2.7262 0.46845 7.7665 2.8872 7.7665 2.8872l-10.676 7.2293c-3.3575-1.6788-6.1393-4.0389-9.4674-5.7745-4.5701-2.204-15.447 4.9151-20.188 14.1-3.7491 0.8822-4.4865 2.624-6.1549 6.334-4.9401 1.8525-7.7621 4.2967-10.116 9.2212l-2.5292 3.0663c-4.9592 0-8.44 0.82921-12.31 4.342-7.2003 0.35123-13.259 0.25816-19.539 4.342l-3.9839 0.91764c-5.1246 0.56941-8.7101 1.1792-12.825 4.7002-2.7364-1.1727-4.924-1.2059-7.9679-0.55954-3.2157-2.4589-4.5251-2.5333-8.6841-1.2534-5.0004-2.0834-10.137-1.4093-15.555-1.3653-1.5825-1.9477-3.289-1.8737-5.864-2.0815-4.7289-4.084-12.044-0.85147-17.905-1.7905-4.3108-2.0528-8.4014-2.5237-13.295-2.3724-8.0706-2.9054-16.043-5.9918-24.508-7.5874 0 0-1.5009 1.386-3.3572 3.2677l-11.571-5.4387s-3.0332-3.5558-5.0582-4.6106c-2.7954-1.4562-6.131-1.5844-9.2436-2.0815-3.7678-0.60173-11.392-1.0743-11.392-1.0743l-6.6921-1.8129c-3.6919 5.8868 0.1032 9.4029 6.5578 9.8255 1.8528 0.12131 3.5614 1.61 5.3939 1.5667l-0.91761 4.5211c-5.423 2.2596-10.342 4.7104-14.817 8.6841 0 0-3.4432 0.0698-5.0806-0.3581-1.0961-0.28637-2.1298-0.81757-3.0663-1.4548-2.3273-1.5836-6.1549-5.7968-6.1549-5.7968s-0.20391-2.1464-0.71621-3.0663c-1.9649-3.4583-4.9839-3.9992-8.9527-3.4468 0.5151 0.51116 0.53344 2.9404 2.9767 5.2597 1.158 3.3376 2.3007 6.3277 4.7002 9.0422l-4.7002-3.9839-3.0662-4.2525c-3.6508-3.436-4.4701-4.253-9.5793-2.6186l3.7825 5.7968c1.243 1.8941 0.57161 2.4008 3.4468 5.5954l3.2454 3.6258s-3.8632-2.3918-5.7745-3.6258c-4.3999-2.8503-4.8042-4.4863-9.9598-1.992l8.1469 8.505c-1.6913 1.1275-2.0096 1.8059-2.171 3.9839l6.8711 0.71621s4.5909 0.3888 8.326 2.7082c1.949 1.2103 4.578 0.45294 6.8711 0.38049 2.6087-0.0824 7.4084 0 7.4084 0s4.103 0.43567 6.155 0.3581c6.7481-0.25508 13.38-1.8596 20.076-2.7306 2.8921-0.37615 8.6841-1.0743 8.6841-1.0743l5.2149 4.6106c-0.41662 5.0555 0 10.195 0.82816 15.197 0.38639 2.3242 1.992 6.7816 1.992 6.7816l4.7001 0.44764 0.6491 3.8944s20.047-4.7542 30.193-4.163c10.425 0.60744 17.157 4.9327 27.127 8.3707 10.244 3.533 25.903 6.9108 34.378 7.5426 9.3792 0.69925 18.836-0.58442 28.223 0 14.591 1.0769 22.46 5.8083 38.698-2.171 0 0-5.4502 24.758-9.7584 36.907-5.0286 14.182-11.839 27.709-16.652 41.966-4.5669 13.527-8.1776 27.359-11.571 41.227-2.5183 10.291-2.9937 21.117-6.5131 31.111-4.9439 14.039-14.745 25.968-20.255 39.794-6.6104 16.587-8.4593 34.83-15.197 51.366-5.8414 14.336-21.71 41.048-21.71 41.048s15.236 4.6395 22.807 7.0726c7.6234 2.4501 15.294 4.7577 22.785 7.5874 10.413 3.9334 20.257 9.3198 30.752 13.026 8.2775 2.9231 16.62 6.0117 25.314 7.2293 1.672 0.2341 3.3774-0.1562 5.0583 0 5.8633 0.545 17.368 3.2677 17.368 3.2677 6.0964 18.08-5.8772 30.242 7.9679 100.56 1.6242 11.915 3.0943 23.851 4.342 35.811 2.0098 19.262 5.0583 57.879 5.0583 57.879l5.4163-1.0968c-3.0687 5.5241-2.158 13.831-19.897 22.807l-1.4324 9.9374h69.45c3.7105-0.6184 2.0735-14.684 0-21.531-1.0841-3.5795-0.21107-7.4762-0.35811-11.213-0.20448-5.1865-0.73863-15.555-0.73863-15.555 2.1275-27.894 5.1727-47.812-2.5292-75.225 0 0 2.3379-14.91 2.9097-22.426 0.77774-10.223 1.3843-20.522 0.71622-30.752-0.46139-7.0624-2.7235-13.938-3.2678-20.994-0.15763-2.0439-0.0927-4.0849 0-6.1326 0.21136-4.6567 1.2758-13.944 1.2758-13.944l15.376-1.2533 3.6259-2.171h10.117s10.83 23.032 11.929 35.452c1.4503 16.381 4.4375 32.093 8.326 47.74 4.3095 17.342 7.7853 34.893 12.668 52.082 6.2725 22.082 21.33 65.489 21.33 65.489l8.6841-1.4547c-3.2429 10.052-4.4494 11.359-1.4324 21.889h54.253s2.1822-6.0919 1.0967-8.8631c-1.4979-3.824-7.0271-4.6322-9.4226-7.9679-3.8206-5.3197-7.2293-18.263-7.2293-18.263-6.6807-16.869-6.618-35.536-7.5874-53.716-0.58959-8.6263 0.42479-18.021-3.6258-25.851 0.11738-9.8561 0.45887-19.24-2.7082-28.76-0.73949-14.199-1.6263-28.369-3.2677-42.503-2.8086-17.334-2.237-39.434-9.0422-58.438 13.426-1.1188 22.174 1.9975 19.897-13.742l3.805-4.8792c-4.0841-33.691-5.7452-64.639-11.034-101.84 0-4.7837 0.46654-9.4233-1.4548-13.921-1.0585-24.034-5.9194-46.985-11.571-70.368l-0.89526-13.742c-2.0624-19.207-1.7181-28.891-11.952-45.748 0 0 3.0958-7.3476 3.9839-11.213 0.97792-4.2567 0.21794-8.8373 1.4548-13.026 0.7256-2.4566 3.4244-6.8712 3.4244-6.8712l1.2758 9.9374c0.49941 5.6629-0.13981 11.562 3.4244 16.271l0.2014 4.9016c-1.085 13.451 0.26722 28.282 3.9616 42.324 0.88252 5.8838 2.007 11.392 4.7001 16.809-1.4785 5.4914-0.77171 7.9307 1.4548 13.563 0 0-1.5149 11.68-1.4548 17.547 0.0394 3.8182-1.4261 8.6074 1.1862 11.392 3.8765 4.1323 11.215 9.9018 16.271 12.646l1.0071 2.1934c-1.4677 0.352-1.797 0.414-2.35 0.5372l1.9919 1.9024c-0.96467-0.2402-1.9452 0.4677-2.9096 0.8953 0.77086 1.3867 2.7912 2.7763 4.9911 4.163-1.9197 1.0281-2.2944 2.5807-2.8201 4.0735l9.9598 0.5371c0.3377 1.2179-0.89168 2.1054 2.5292 3.9839 0 0 5.426-4.6115 6.6921-4.521 4.4252 0.2575 5.9711-4.2938 9.0422-7.0503-0.16516-3.0464 1.9988-4.0156 3.6259-6.4235-0.97161-10.938 0.16366-13.658-2.6411-20.613l-0.46998-1.4772c0.59739-1.7977 0.94003-2.9544 0.94003-2.9544l-12.489-21.352c2.8314-5.9774 3.9194-8.157 2.5291-14.996 1.0833-4.332 1.409-6.433-1.0743-10.497 2.2211-11.339 4.5674-22.61 5.0583-34.199 0.12491-13.885 0.27825-27.193-3.805-40.69 0.58257-8.8325 1.9024-17.402-0.71621-26.03 1.3494-5.6974 1.9498-10.268 0.17905-16.115 0 0 0.83418-1.2757 1.0743-1.992 0.91124-2.7162 1.2457-5.6179 1.2758-8.4826 0.0951-9.0555-2.8012-17.937-3.4468-26.97-0.2708-3.7891 0.29966-7.6238-0.17905-11.392-0.90666-7.1372-2.6703-14.57-5.9535-20.972-2.6142-5.0973-5.3363-10.198-10.318-13.026-3.3529-1.9037-7.5975-2.6754-11.392-1.992-3.6432 0.65616-9.5794 5.6178-9.5794 5.6178l-17.905-1.8129c-2.9481-1.7068-5.8117-3.0505-9.2436-3.6258-2.4038-3.6054-3.6856-4.6849-8.3036-5.2373-1.7055-2.9563-2.5596-5.2437-5.9759-6.334-2.4946-5.1284-4.3481-8.6538-9.5794-11.571-0.30181-3.9247-1.2906-5.9336-2.8648-7.6545 2.8745-3.4196 5.7042-7.0133 5.5731-10.989 0 0 2.6337-0.44849 3.6258-1.2534 2.0797-1.6872 3.9155-4.2026 4.1406-6.8712 0.20706-2.4544-2.7081-6.8712-2.7081-6.8712s5.7987 1.3076 7.7888-0.35811c2.0861-1.7461 2.0208-5.2554 1.8129-7.9679-0.213-2.7796-1.7958-5.2966-3.0886-7.7664-1.0082-1.9259-3.6035-5.4387-3.6035-5.4387s2.9151-5.815 2.5292-8.8631c-0.25469-2.0106-1.6556-3.8042-3.0887-5.2373s-3.3257-2.4154-5.2372-3.0887c-1.5521-0.54669-4.8793-0.71622-4.8793-0.71622s1.4109-2.5835 1.813-3.9839c0.25175-0.87693 0.83088-1.9279 0.35811-2.7082-0.73132-1.2071-2.5726-1.462-3.9839-1.4548-1.0302 5e-3 -2.8872 1.0967-2.8872 1.0967-3.49-6.282-3.9274-8.7873-11.034-11.034 0 0 1.1336-5.1737 0.17905-7.7888-0.68248-1.8698-1.6474-4.0281-3.4468-4.8792-1.4755-0.69797-3.32 0.84112-4.8792 0.3581-2.2125-0.68539-3.1646-3.7994-5.4164-4.342-2.6324-0.6344-5.2608 1.6924-7.9679 1.6339-1.4912-0.0322-2.91-0.65732-4.342-1.0743-2.0136-0.58636-3.8828-1.8616-5.9759-1.992-0.2302-0.0143-0.44406-0.02-0.67153 0zm130.84 406.34c-0.17204 4.868-0.65319 5.8338-4.8344 1.41 1.6711-0.09 3.2068-0.6045 4.8344-1.41z"/>
 </g>
</svg>
